M48
;Layer_Color=9474304
;FILE_FORMAT=4:4
METRIC,LZ
;TYPE=PLATED
T1F00S00C0.2500
T2F00S00C0.3000
T3F00S00C0.4000
T4F00S00C0.6000
T6F00S00C1.1176
T7F00S00C1.2540
T8F00S00C2.2540
%
T01
X00292Y00155
Y00168
X00305
X00318
Y00155
X00305
X00331
Y00168
T02
X00135Y-00212
X00155Y-001965
Y-00181
X00185Y-001785
X00210521Y-00188
X00222Y-002245
X002295
X00237
Y-001345
X002295
X00222
X00123Y-00149
X0011Y-001485
X00135Y-00122
X00155Y-001055
Y-000915
X00185Y-000885
X00210521Y-00098
X00222Y-000445
X002295
X00237
X00210521Y-00008
X00185Y000015
X00155
Y-000155
X00135Y-00032
X00119Y-00014
X001195Y00003
X000895Y-000175
X000775Y-00029
X00056Y000145
X00072Y00108
X00155Y00089
Y00075
X00135Y00058
X00185Y000915
X00210521Y00082
X00222Y000455
X002295
X00237
X00217698Y00036403
X00235Y001275
X00246
X0025775Y001285
X0026925Y001275
X003495Y00169
X00135Y001885
X00126669Y-00077991
X001095Y-000785
X00020252Y-00062271
X00000252
X00032882Y00022791
X00016568Y00052605
X-000085Y000815
X-0002645Y000655
X-000525Y00061
X-00056Y000456
X-00072Y00034
X-000855Y000335
X-00099Y00034
X-00113Y00038
X-00105Y000525
X-001055Y-000025
X-00114Y-00002
X-00093384Y-00002431
X-0008Y-000025
X-00072Y-00002
X-000855Y-000205
X-00099Y-000225
X-00114Y-000275
X-00206Y-00068
X-00246Y-000665
X-002565Y-00065
X-00259Y-000795
X-00265Y-000735
X-00256Y-000263
X-00255Y-00002
X-002565Y000985
X-002745Y001095
X-002705Y002085
X-00297
X-00022Y001847
X0Y002047
X00022Y001847
X000105Y001362
X-000225Y0003316
X-003795Y000645
X-003955Y-000775
X-00394Y-00111
T03
X-0042625Y-002365
X-004115Y-0025125
X-00390925
X-0037035
X-00349775
X-0042625Y-0019537
Y-00174804
Y-00154239
X-003292Y-0025125
X-00308625
X-0028805
X-00267475
X-002469
X-00226325
X-0020575
X-00185175
X-001646
X-00144025
X-0012345
X-00102875
X-000823
X-00061725
X-0004115
X-00020575
X-0
X00020575
X0004115
X00061725
X000823
X00102875
X0012345
X00144025
X001646
X00185175
X0020575
X00226325
X002469
X00267475
X0028805
X00308625
X003292
X00349775
X0037035
X00390925
X004115
X0042625Y-002365
Y-00215935
Y-0019537
Y-00174804
Y-00154239
Y-00133674
Y-00113109
Y-00092543
Y-00071978
Y-00051413
Y-00030848
Y-00010283
Y00010283
Y00030848
Y00051413
Y00071978
Y00092543
Y00113109
Y00133674
Y00154239
Y00174804
Y00195369
Y00215935
Y002365
X004115Y0025125
X00390925
X0037035
X00349775
X003292
X00308625
X0028805
X00267475
X002469
X00226325
X0020575
X00185175
X001646
X00144025
X0012345
X00102875
X000823
X00061725
X0004115
X00020575
X-0
X-00020575
X-0004115
X-00061725
X-000823
X-00102875
X-0012345
X-00144025
X-001646
X-00185175
X-0020575
X-00226325
X-002469
X-00267475
X-0028805
X-00308625
X-003292
X-00349775
X-0037035
X-00390925
X-004115
X-0042625Y002365
Y00215935
Y00195369
Y00174804
Y00154239
Y00133674
Y00113109
Y00092543
X-0042825Y00071978
Y00051413
Y00030848
Y00010282
Y-00010283
Y-00030848
Y-00051413
Y-00071978
Y-00092543
Y-00113109
T04
X-0022785Y-000454
X-0021515
Y-000327
X-0022785
Y-0002
X-0021515
Y-000073
X-0022785
Y000054
X-0021515
X-000381Y000975
Y001102
X-000254
Y000975
X-000127
Y001102
X0
Y000975
X000127
Y001102
X000254
Y000975
X000381
Y001102
T06
X-00167Y-0020165
Y-0015085
T07
X-00382Y-0021
Y-001425
T08
X00378Y001475
Y002025
M30
