G04*
G04 #@! TF.GenerationSoftware,Altium Limited,Altium Designer,22.4.2 (48)*
G04*
G04 Layer_Color=16711935*
%FSLAX44Y44*%
%MOMM*%
G71*
G04*
G04 #@! TF.SameCoordinates,5AEF41FB-E79F-4A44-A991-0DBAD6E3AD50*
G04*
G04*
G04 #@! TF.FilePolarity,Negative*
G04*
G01*
G75*
%ADD47O,1.0000X1.8000*%
%ADD48O,1.0000X2.1000*%
%ADD49C,1.6256*%
%ADD50C,0.6500*%
%ADD51C,1.0000*%
G04:AMPARAMS|DCode=52|XSize=1mm|YSize=1mm|CornerRadius=0.25mm|HoleSize=0mm|Usage=FLASHONLY|Rotation=270.000|XOffset=0mm|YOffset=0mm|HoleType=Round|Shape=RoundedRectangle|*
%AMROUNDEDRECTD52*
21,1,1.0000,0.5000,0,0,270.0*
21,1,0.5000,1.0000,0,0,270.0*
1,1,0.5000,-0.2500,-0.2500*
1,1,0.5000,-0.2500,0.2500*
1,1,0.5000,0.2500,0.2500*
1,1,0.5000,0.2500,-0.2500*
%
%ADD52ROUNDEDRECTD52*%
%ADD53C,3.2700*%
G04:AMPARAMS|DCode=54|XSize=1.881mm|YSize=1.881mm|CornerRadius=0.2351mm|HoleSize=0mm|Usage=FLASHONLY|Rotation=0.000|XOffset=0mm|YOffset=0mm|HoleType=Round|Shape=RoundedRectangle|*
%AMROUNDEDRECTD54*
21,1,1.8810,1.4108,0,0,0.0*
21,1,1.4108,1.8810,0,0,0.0*
1,1,0.4703,0.7054,-0.7054*
1,1,0.4703,-0.7054,-0.7054*
1,1,0.4703,-0.7054,0.7054*
1,1,0.4703,0.7054,0.7054*
%
%ADD54ROUNDEDRECTD54*%
%ADD55C,1.8810*%
D47*
X43200Y-233750D02*
D03*
X-43200D02*
D03*
D48*
X43200Y-191950D02*
D03*
X-43200D02*
D03*
D49*
X-167000Y-201650D02*
D03*
Y-150850D02*
D03*
D50*
X-28900Y-196950D02*
D03*
X28900D02*
D03*
D51*
X-215150Y-45400D02*
D03*
Y-32700D02*
D03*
X-227850Y-45400D02*
D03*
Y-32700D02*
D03*
X-215150Y-20000D02*
D03*
Y-7300D02*
D03*
X-227850Y-20000D02*
D03*
Y-7300D02*
D03*
X-215150Y5400D02*
D03*
X-38100Y97500D02*
D03*
Y110200D02*
D03*
X-25400Y97500D02*
D03*
Y110200D02*
D03*
X-12700Y97500D02*
D03*
Y110200D02*
D03*
X0Y97500D02*
D03*
Y110200D02*
D03*
X12700Y97500D02*
D03*
Y110200D02*
D03*
X25400Y97500D02*
D03*
Y110200D02*
D03*
X38100Y97500D02*
D03*
Y110200D02*
D03*
D52*
X-227850Y5400D02*
D03*
D53*
X378000Y202500D02*
D03*
Y147500D02*
D03*
D54*
X-382000Y-210000D02*
D03*
D55*
Y-142500D02*
D03*
M02*
