G04*
G04 #@! TF.GenerationSoftware,Altium Limited,Altium Designer,22.4.2 (48)*
G04*
G04 Layer_Physical_Order=1*
G04 Layer_Color=255*
%FSLAX44Y44*%
%MOMM*%
G71*
G04*
G04 #@! TF.SameCoordinates,5AEF41FB-E79F-4A44-A991-0DBAD6E3AD50*
G04*
G04*
G04 #@! TF.FilePolarity,Positive*
G04*
G01*
G75*
%ADD10C,0.2500*%
%ADD12C,0.2000*%
G04:AMPARAMS|DCode=17|XSize=1.1938mm|YSize=0.3048mm|CornerRadius=0.0381mm|HoleSize=0mm|Usage=FLASHONLY|Rotation=270.000|XOffset=0mm|YOffset=0mm|HoleType=Round|Shape=RoundedRectangle|*
%AMROUNDEDRECTD17*
21,1,1.1938,0.2286,0,0,270.0*
21,1,1.1176,0.3048,0,0,270.0*
1,1,0.0762,-0.1143,-0.5588*
1,1,0.0762,-0.1143,0.5588*
1,1,0.0762,0.1143,0.5588*
1,1,0.0762,0.1143,-0.5588*
%
%ADD17ROUNDEDRECTD17*%
%ADD18R,1.0000X2.1500*%
%ADD19R,2.0000X0.8000*%
G04:AMPARAMS|DCode=20|XSize=0.64mm|YSize=0.6mm|CornerRadius=0.075mm|HoleSize=0mm|Usage=FLASHONLY|Rotation=180.000|XOffset=0mm|YOffset=0mm|HoleType=Round|Shape=RoundedRectangle|*
%AMROUNDEDRECTD20*
21,1,0.6400,0.4500,0,0,180.0*
21,1,0.4900,0.6000,0,0,180.0*
1,1,0.1500,-0.2450,0.2250*
1,1,0.1500,0.2450,0.2250*
1,1,0.1500,0.2450,-0.2250*
1,1,0.1500,-0.2450,-0.2250*
%
%ADD20ROUNDEDRECTD20*%
G04:AMPARAMS|DCode=21|XSize=0.95mm|YSize=0.8mm|CornerRadius=0.1mm|HoleSize=0mm|Usage=FLASHONLY|Rotation=0.000|XOffset=0mm|YOffset=0mm|HoleType=Round|Shape=RoundedRectangle|*
%AMROUNDEDRECTD21*
21,1,0.9500,0.6000,0,0,0.0*
21,1,0.7500,0.8000,0,0,0.0*
1,1,0.2000,0.3750,-0.3000*
1,1,0.2000,-0.3750,-0.3000*
1,1,0.2000,-0.3750,0.3000*
1,1,0.2000,0.3750,0.3000*
%
%ADD21ROUNDEDRECTD21*%
G04:AMPARAMS|DCode=22|XSize=0.64mm|YSize=0.6mm|CornerRadius=0.075mm|HoleSize=0mm|Usage=FLASHONLY|Rotation=90.000|XOffset=0mm|YOffset=0mm|HoleType=Round|Shape=RoundedRectangle|*
%AMROUNDEDRECTD22*
21,1,0.6400,0.4500,0,0,90.0*
21,1,0.4900,0.6000,0,0,90.0*
1,1,0.1500,0.2250,0.2450*
1,1,0.1500,0.2250,-0.2450*
1,1,0.1500,-0.2250,-0.2450*
1,1,0.1500,-0.2250,0.2450*
%
%ADD22ROUNDEDRECTD22*%
G04:AMPARAMS|DCode=23|XSize=0.55mm|YSize=0.5mm|CornerRadius=0.0625mm|HoleSize=0mm|Usage=FLASHONLY|Rotation=270.000|XOffset=0mm|YOffset=0mm|HoleType=Round|Shape=RoundedRectangle|*
%AMROUNDEDRECTD23*
21,1,0.5500,0.3750,0,0,270.0*
21,1,0.4250,0.5000,0,0,270.0*
1,1,0.1250,-0.1875,-0.2125*
1,1,0.1250,-0.1875,0.2125*
1,1,0.1250,0.1875,0.2125*
1,1,0.1250,0.1875,-0.2125*
%
%ADD23ROUNDEDRECTD23*%
G04:AMPARAMS|DCode=24|XSize=1.05mm|YSize=2mm|CornerRadius=0.1313mm|HoleSize=0mm|Usage=FLASHONLY|Rotation=270.000|XOffset=0mm|YOffset=0mm|HoleType=Round|Shape=RoundedRectangle|*
%AMROUNDEDRECTD24*
21,1,1.0500,1.7375,0,0,270.0*
21,1,0.7875,2.0000,0,0,270.0*
1,1,0.2625,-0.8688,-0.3938*
1,1,0.2625,-0.8688,0.3938*
1,1,0.2625,0.8688,0.3938*
1,1,0.2625,0.8688,-0.3938*
%
%ADD24ROUNDEDRECTD24*%
G04:AMPARAMS|DCode=25|XSize=0.9mm|YSize=0.9mm|CornerRadius=0.1125mm|HoleSize=0mm|Usage=FLASHONLY|Rotation=0.000|XOffset=0mm|YOffset=0mm|HoleType=Round|Shape=RoundedRectangle|*
%AMROUNDEDRECTD25*
21,1,0.9000,0.6750,0,0,0.0*
21,1,0.6750,0.9000,0,0,0.0*
1,1,0.2250,0.3375,-0.3375*
1,1,0.2250,-0.3375,-0.3375*
1,1,0.2250,-0.3375,0.3375*
1,1,0.2250,0.3375,0.3375*
%
%ADD25ROUNDEDRECTD25*%
G04:AMPARAMS|DCode=26|XSize=1.55mm|YSize=0.6mm|CornerRadius=0.075mm|HoleSize=0mm|Usage=FLASHONLY|Rotation=90.000|XOffset=0mm|YOffset=0mm|HoleType=Round|Shape=RoundedRectangle|*
%AMROUNDEDRECTD26*
21,1,1.5500,0.4500,0,0,90.0*
21,1,1.4000,0.6000,0,0,90.0*
1,1,0.1500,0.2250,0.7000*
1,1,0.1500,0.2250,-0.7000*
1,1,0.1500,-0.2250,-0.7000*
1,1,0.1500,-0.2250,0.7000*
%
%ADD26ROUNDEDRECTD26*%
G04:AMPARAMS|DCode=27|XSize=1.2075mm|YSize=1.6621mm|CornerRadius=0.1509mm|HoleSize=0mm|Usage=FLASHONLY|Rotation=0.000|XOffset=0mm|YOffset=0mm|HoleType=Round|Shape=RoundedRectangle|*
%AMROUNDEDRECTD27*
21,1,1.2075,1.3603,0,0,0.0*
21,1,0.9056,1.6621,0,0,0.0*
1,1,0.3019,0.4528,-0.6801*
1,1,0.3019,-0.4528,-0.6801*
1,1,0.3019,-0.4528,0.6801*
1,1,0.3019,0.4528,0.6801*
%
%ADD27ROUNDEDRECTD27*%
G04:AMPARAMS|DCode=28|XSize=1.75mm|YSize=1mm|CornerRadius=0.125mm|HoleSize=0mm|Usage=FLASHONLY|Rotation=0.000|XOffset=0mm|YOffset=0mm|HoleType=Round|Shape=RoundedRectangle|*
%AMROUNDEDRECTD28*
21,1,1.7500,0.7500,0,0,0.0*
21,1,1.5000,1.0000,0,0,0.0*
1,1,0.2500,0.7500,-0.3750*
1,1,0.2500,-0.7500,-0.3750*
1,1,0.2500,-0.7500,0.3750*
1,1,0.2500,0.7500,0.3750*
%
%ADD28ROUNDEDRECTD28*%
G04:AMPARAMS|DCode=29|XSize=5.7mm|YSize=1.7mm|CornerRadius=0.2125mm|HoleSize=0mm|Usage=FLASHONLY|Rotation=0.000|XOffset=0mm|YOffset=0mm|HoleType=Round|Shape=RoundedRectangle|*
%AMROUNDEDRECTD29*
21,1,5.7000,1.2750,0,0,0.0*
21,1,5.2750,1.7000,0,0,0.0*
1,1,0.4250,2.6375,-0.6375*
1,1,0.4250,-2.6375,-0.6375*
1,1,0.4250,-2.6375,0.6375*
1,1,0.4250,2.6375,0.6375*
%
%ADD29ROUNDEDRECTD29*%
G04:AMPARAMS|DCode=30|XSize=1.75mm|YSize=1mm|CornerRadius=0.125mm|HoleSize=0mm|Usage=FLASHONLY|Rotation=270.000|XOffset=0mm|YOffset=0mm|HoleType=Round|Shape=RoundedRectangle|*
%AMROUNDEDRECTD30*
21,1,1.7500,0.7500,0,0,270.0*
21,1,1.5000,1.0000,0,0,270.0*
1,1,0.2500,-0.3750,-0.7500*
1,1,0.2500,-0.3750,0.7500*
1,1,0.2500,0.3750,0.7500*
1,1,0.2500,0.3750,-0.7500*
%
%ADD30ROUNDEDRECTD30*%
G04:AMPARAMS|DCode=31|XSize=1.2mm|YSize=1.2mm|CornerRadius=0.15mm|HoleSize=0mm|Usage=FLASHONLY|Rotation=90.000|XOffset=0mm|YOffset=0mm|HoleType=Round|Shape=RoundedRectangle|*
%AMROUNDEDRECTD31*
21,1,1.2000,0.9000,0,0,90.0*
21,1,0.9000,1.2000,0,0,90.0*
1,1,0.3000,0.4500,0.4500*
1,1,0.3000,0.4500,-0.4500*
1,1,0.3000,-0.4500,-0.4500*
1,1,0.3000,-0.4500,0.4500*
%
%ADD31ROUNDEDRECTD31*%
G04:AMPARAMS|DCode=32|XSize=1.1mm|YSize=0.6mm|CornerRadius=0.051mm|HoleSize=0mm|Usage=FLASHONLY|Rotation=270.000|XOffset=0mm|YOffset=0mm|HoleType=Round|Shape=RoundedRectangle|*
%AMROUNDEDRECTD32*
21,1,1.1000,0.4980,0,0,270.0*
21,1,0.9980,0.6000,0,0,270.0*
1,1,0.1020,-0.2490,-0.4990*
1,1,0.1020,-0.2490,0.4990*
1,1,0.1020,0.2490,0.4990*
1,1,0.1020,0.2490,-0.4990*
%
%ADD32ROUNDEDRECTD32*%
G04:AMPARAMS|DCode=33|XSize=1.1mm|YSize=0.6mm|CornerRadius=0.051mm|HoleSize=0mm|Usage=FLASHONLY|Rotation=0.000|XOffset=0mm|YOffset=0mm|HoleType=Round|Shape=RoundedRectangle|*
%AMROUNDEDRECTD33*
21,1,1.1000,0.4980,0,0,0.0*
21,1,0.9980,0.6000,0,0,0.0*
1,1,0.1020,0.4990,-0.2490*
1,1,0.1020,-0.4990,-0.2490*
1,1,0.1020,-0.4990,0.2490*
1,1,0.1020,0.4990,0.2490*
%
%ADD33ROUNDEDRECTD33*%
G04:AMPARAMS|DCode=34|XSize=0.8mm|YSize=0.8mm|CornerRadius=0.1mm|HoleSize=0mm|Usage=FLASHONLY|Rotation=90.000|XOffset=0mm|YOffset=0mm|HoleType=Round|Shape=RoundedRectangle|*
%AMROUNDEDRECTD34*
21,1,0.8000,0.6000,0,0,90.0*
21,1,0.6000,0.8000,0,0,90.0*
1,1,0.2000,0.3000,0.3000*
1,1,0.2000,0.3000,-0.3000*
1,1,0.2000,-0.3000,-0.3000*
1,1,0.2000,-0.3000,0.3000*
%
%ADD34ROUNDEDRECTD34*%
%ADD35R,1.1146X1.6862*%
G04:AMPARAMS|DCode=36|XSize=0.6mm|YSize=1mm|CornerRadius=0.075mm|HoleSize=0mm|Usage=FLASHONLY|Rotation=90.000|XOffset=0mm|YOffset=0mm|HoleType=Round|Shape=RoundedRectangle|*
%AMROUNDEDRECTD36*
21,1,0.6000,0.8500,0,0,90.0*
21,1,0.4500,1.0000,0,0,90.0*
1,1,0.1500,0.4250,0.2250*
1,1,0.1500,0.4250,-0.2250*
1,1,0.1500,-0.4250,-0.2250*
1,1,0.1500,-0.4250,0.2250*
%
%ADD36ROUNDEDRECTD36*%
G04:AMPARAMS|DCode=37|XSize=2.65mm|YSize=1.05mm|CornerRadius=0.1313mm|HoleSize=0mm|Usage=FLASHONLY|Rotation=180.000|XOffset=0mm|YOffset=0mm|HoleType=Round|Shape=RoundedRectangle|*
%AMROUNDEDRECTD37*
21,1,2.6500,0.7875,0,0,180.0*
21,1,2.3875,1.0500,0,0,180.0*
1,1,0.2625,-1.1938,0.3938*
1,1,0.2625,1.1938,0.3938*
1,1,0.2625,1.1938,-0.3938*
1,1,0.2625,-1.1938,-0.3938*
%
%ADD37ROUNDEDRECTD37*%
G04:AMPARAMS|DCode=38|XSize=1.1938mm|YSize=0.3048mm|CornerRadius=0.0381mm|HoleSize=0mm|Usage=FLASHONLY|Rotation=180.000|XOffset=0mm|YOffset=0mm|HoleType=Round|Shape=RoundedRectangle|*
%AMROUNDEDRECTD38*
21,1,1.1938,0.2286,0,0,180.0*
21,1,1.1176,0.3048,0,0,180.0*
1,1,0.0762,-0.5588,0.1143*
1,1,0.0762,0.5588,0.1143*
1,1,0.0762,0.5588,-0.1143*
1,1,0.0762,-0.5588,-0.1143*
%
%ADD38ROUNDEDRECTD38*%
G04:AMPARAMS|DCode=39|XSize=0.6mm|YSize=1.14mm|CornerRadius=0.075mm|HoleSize=0mm|Usage=FLASHONLY|Rotation=0.000|XOffset=0mm|YOffset=0mm|HoleType=Round|Shape=RoundedRectangle|*
%AMROUNDEDRECTD39*
21,1,0.6000,0.9900,0,0,0.0*
21,1,0.4500,1.1400,0,0,0.0*
1,1,0.1500,0.2250,-0.4950*
1,1,0.1500,-0.2250,-0.4950*
1,1,0.1500,-0.2250,0.4950*
1,1,0.1500,0.2250,0.4950*
%
%ADD39ROUNDEDRECTD39*%
G04:AMPARAMS|DCode=40|XSize=0.3mm|YSize=1.14mm|CornerRadius=0.0375mm|HoleSize=0mm|Usage=FLASHONLY|Rotation=0.000|XOffset=0mm|YOffset=0mm|HoleType=Round|Shape=RoundedRectangle|*
%AMROUNDEDRECTD40*
21,1,0.3000,1.0650,0,0,0.0*
21,1,0.2250,1.1400,0,0,0.0*
1,1,0.0750,0.1125,-0.5325*
1,1,0.0750,-0.1125,-0.5325*
1,1,0.0750,-0.1125,0.5325*
1,1,0.0750,0.1125,0.5325*
%
%ADD40ROUNDEDRECTD40*%
%ADD41R,0.7620X1.2954*%
%ADD42R,1.2954X0.7620*%
G04:AMPARAMS|DCode=43|XSize=1.1146mm|YSize=1.6862mm|CornerRadius=0.1393mm|HoleSize=0mm|Usage=FLASHONLY|Rotation=0.000|XOffset=0mm|YOffset=0mm|HoleType=Round|Shape=RoundedRectangle|*
%AMROUNDEDRECTD43*
21,1,1.1146,1.4075,0,0,0.0*
21,1,0.8360,1.6862,0,0,0.0*
1,1,0.2787,0.4180,-0.7038*
1,1,0.2787,-0.4180,-0.7038*
1,1,0.2787,-0.4180,0.7038*
1,1,0.2787,0.4180,0.7038*
%
%ADD43ROUNDEDRECTD43*%
%ADD44R,1.6621X1.2075*%
G04:AMPARAMS|DCode=45|XSize=3.5mm|YSize=2mm|CornerRadius=0.25mm|HoleSize=0mm|Usage=FLASHONLY|Rotation=180.000|XOffset=0mm|YOffset=0mm|HoleType=Round|Shape=RoundedRectangle|*
%AMROUNDEDRECTD45*
21,1,3.5000,1.5000,0,0,180.0*
21,1,3.0000,2.0000,0,0,180.0*
1,1,0.5000,-1.5000,0.7500*
1,1,0.5000,1.5000,0.7500*
1,1,0.5000,1.5000,-0.7500*
1,1,0.5000,-1.5000,-0.7500*
%
%ADD45ROUNDEDRECTD45*%
G04:AMPARAMS|DCode=46|XSize=6mm|YSize=2mm|CornerRadius=0.25mm|HoleSize=0mm|Usage=FLASHONLY|Rotation=180.000|XOffset=0mm|YOffset=0mm|HoleType=Round|Shape=RoundedRectangle|*
%AMROUNDEDRECTD46*
21,1,6.0000,1.5000,0,0,180.0*
21,1,5.5000,2.0000,0,0,180.0*
1,1,0.5000,-2.7500,0.7500*
1,1,0.5000,2.7500,0.7500*
1,1,0.5000,2.7500,-0.7500*
1,1,0.5000,-2.7500,-0.7500*
%
%ADD46ROUNDEDRECTD46*%
%ADD47O,1.0000X1.8000*%
%ADD48O,1.0000X2.1000*%
%ADD49C,1.6256*%
%ADD50C,0.6500*%
%ADD51C,1.0000*%
G04:AMPARAMS|DCode=52|XSize=1mm|YSize=1mm|CornerRadius=0.25mm|HoleSize=0mm|Usage=FLASHONLY|Rotation=270.000|XOffset=0mm|YOffset=0mm|HoleType=Round|Shape=RoundedRectangle|*
%AMROUNDEDRECTD52*
21,1,1.0000,0.5000,0,0,270.0*
21,1,0.5000,1.0000,0,0,270.0*
1,1,0.5000,-0.2500,-0.2500*
1,1,0.5000,-0.2500,0.2500*
1,1,0.5000,0.2500,0.2500*
1,1,0.5000,0.2500,-0.2500*
%
%ADD52ROUNDEDRECTD52*%
%ADD53C,3.2700*%
G04:AMPARAMS|DCode=54|XSize=1.881mm|YSize=1.881mm|CornerRadius=0.2351mm|HoleSize=0mm|Usage=FLASHONLY|Rotation=0.000|XOffset=0mm|YOffset=0mm|HoleType=Round|Shape=RoundedRectangle|*
%AMROUNDEDRECTD54*
21,1,1.8810,1.4108,0,0,0.0*
21,1,1.4108,1.8810,0,0,0.0*
1,1,0.4703,0.7054,-0.7054*
1,1,0.4703,-0.7054,-0.7054*
1,1,0.4703,-0.7054,0.7054*
1,1,0.4703,0.7054,0.7054*
%
%ADD54ROUNDEDRECTD54*%
%ADD55C,1.8810*%
%ADD56C,0.5000*%
G04:AMPARAMS|DCode=57|XSize=2.95mm|YSize=4.9mm|CornerRadius=0.3688mm|HoleSize=0mm|Usage=FLASHONLY|Rotation=90.000|XOffset=0mm|YOffset=0mm|HoleType=Round|Shape=RoundedRectangle|*
%AMROUNDEDRECTD57*
21,1,2.9500,4.1625,0,0,90.0*
21,1,2.2125,4.9000,0,0,90.0*
1,1,0.7375,2.0812,1.1063*
1,1,0.7375,2.0812,-1.1063*
1,1,0.7375,-2.0812,-1.1063*
1,1,0.7375,-2.0812,1.1063*
%
%ADD57ROUNDEDRECTD57*%
%ADD58C,0.3000*%
%ADD59C,0.8000*%
%ADD60C,0.6000*%
%ADD61C,1.0000*%
%ADD62C,0.7000*%
%ADD63C,0.4000*%
%ADD64C,0.6000*%
%ADD65C,0.5000*%
%ADD66C,0.8000*%
G36*
X414000Y257465D02*
X432464Y239000D01*
X432500D01*
Y-239000D01*
X432464D01*
X414000Y-257465D01*
Y-257500D01*
X-414000D01*
Y-257395D01*
X-431395Y-240000D01*
X-432451Y-238944D01*
Y-237451D01*
Y238944D01*
X-432448Y238948D01*
X-432482Y238982D01*
X-414000Y257464D01*
Y257500D01*
X414000D01*
Y257465D01*
D02*
G37*
%LPC*%
G36*
X408787Y245000D02*
X-408787D01*
X-420000Y233787D01*
Y-119331D01*
X-420300Y-119455D01*
X-422702Y-121298D01*
X-424545Y-123700D01*
X-425704Y-126498D01*
X-426099Y-129500D01*
X-425704Y-132502D01*
X-424545Y-135300D01*
X-422702Y-137702D01*
X-420300Y-139545D01*
X-420000Y-139669D01*
Y-212331D01*
X-420300Y-212455D01*
X-422702Y-214298D01*
X-424545Y-216700D01*
X-425704Y-219498D01*
X-426099Y-222500D01*
X-425704Y-225502D01*
X-424545Y-228300D01*
X-422702Y-230702D01*
X-420300Y-232545D01*
X-420000Y-232669D01*
Y-233787D01*
X-408787Y-245000D01*
X408787D01*
X420000Y-233787D01*
Y233787D01*
X408787Y245000D01*
D02*
G37*
%LPD*%
G36*
X284500Y224529D02*
X283425Y223807D01*
X282071Y225161D01*
Y235375D01*
X281790Y236789D01*
X280989Y237988D01*
X279789Y238790D01*
X278375Y239071D01*
X225625D01*
X224211Y238790D01*
X223011Y237988D01*
X222210Y236789D01*
X221929Y235375D01*
Y222625D01*
X222210Y221211D01*
X223011Y220012D01*
X224211Y219210D01*
X225625Y218929D01*
X275326D01*
X280897Y213358D01*
Y199221D01*
X281246Y197465D01*
X282241Y195976D01*
X282241Y195976D01*
X284500Y193717D01*
Y180865D01*
X281337Y177703D01*
X280674Y176710D01*
X280571Y176192D01*
X280537Y176158D01*
X280500Y176103D01*
X279874Y175166D01*
X279641Y173995D01*
X279641Y173995D01*
Y170844D01*
X278550D01*
X277672Y170669D01*
X276928Y170172D01*
X276431Y169428D01*
X276256Y168550D01*
Y164050D01*
X276431Y163172D01*
X276928Y162428D01*
X277164Y162270D01*
X276779Y161000D01*
X276079D01*
X276065Y160992D01*
X275984Y160968D01*
X275906Y161000D01*
X273809D01*
X272661Y160525D01*
X272185Y159376D01*
Y150017D01*
X272661Y148869D01*
X279902Y141628D01*
X280296Y141037D01*
X280435Y140340D01*
Y126267D01*
X280911Y125119D01*
X284500Y121530D01*
Y119266D01*
X283230Y118740D01*
X278098Y123872D01*
X277703Y124463D01*
X277565Y125160D01*
Y138669D01*
X277519Y138779D01*
X277549Y138894D01*
X277287Y139340D01*
X277089Y139817D01*
X276979Y139863D01*
X276919Y139965D01*
X276371Y140378D01*
X276111Y140445D01*
X275909Y140622D01*
X275533Y140595D01*
X275168Y140690D01*
X274210Y140991D01*
X273718Y141480D01*
X273648Y141648D01*
X272500Y142124D01*
X231500D01*
X230352Y141648D01*
X229876Y140500D01*
Y124000D01*
X229625Y123624D01*
X161000D01*
X159852Y123148D01*
X159376Y122000D01*
Y105078D01*
X159852Y103930D01*
X161000Y103455D01*
X170269D01*
X170707Y103636D01*
X171171Y103728D01*
X171359Y103854D01*
X171670Y103916D01*
X181330D01*
X181641Y103854D01*
X181769Y103769D01*
X181854Y103641D01*
X181916Y103330D01*
Y98670D01*
X181854Y98359D01*
X181589Y97963D01*
X181507Y97548D01*
X181319Y97168D01*
X180870Y96426D01*
X180291Y96039D01*
X171510D01*
X170726Y95883D01*
X170061Y95439D01*
X169617Y94774D01*
X169461Y93990D01*
Y89010D01*
X169617Y88226D01*
X170061Y87561D01*
X170192Y87473D01*
Y86026D01*
X170061Y85939D01*
X169617Y85274D01*
X169472Y84549D01*
X139000D01*
X138025Y84355D01*
X137198Y83802D01*
X130012Y76617D01*
X128742Y77143D01*
Y86695D01*
X143687D01*
X144785Y86913D01*
X145715Y87535D01*
X146337Y88465D01*
X146555Y89562D01*
Y97437D01*
X146337Y98535D01*
X145715Y99465D01*
X144785Y100087D01*
X143687Y100305D01*
X126313D01*
X125215Y100087D01*
X124285Y99465D01*
X123663Y98535D01*
X123445Y97437D01*
Y89562D01*
X123644Y88562D01*
Y77263D01*
X63894Y17513D01*
X62624Y18039D01*
X62623Y23000D01*
X62379Y23591D01*
X62148Y24148D01*
X62148Y25144D01*
X62329Y25581D01*
X62592Y25975D01*
X62560Y26138D01*
X62624Y26292D01*
Y147000D01*
X62148Y148148D01*
X37148Y173148D01*
X36000Y173624D01*
X27263D01*
X26569Y174872D01*
X26744Y175750D01*
Y180250D01*
X26588Y181034D01*
Y184700D01*
X26500Y185143D01*
Y185595D01*
X26327Y186013D01*
X26239Y186456D01*
X25988Y186832D01*
X25815Y187249D01*
X25495Y187569D01*
X25244Y187944D01*
X24869Y188195D01*
X24549Y188515D01*
X24132Y188688D01*
X23756Y188939D01*
X23313Y189027D01*
X22895Y189200D01*
X22443D01*
X22000Y189288D01*
X21557Y189200D01*
X21105D01*
X20687Y189027D01*
X20244Y188939D01*
X19868Y188688D01*
X19451Y188515D01*
X19131Y188195D01*
X18756Y187944D01*
X18505Y187569D01*
X18185Y187249D01*
X18012Y186832D01*
X17761Y186456D01*
X17673Y186013D01*
X17500Y185595D01*
Y185143D01*
X17412Y184700D01*
Y181034D01*
X17256Y180250D01*
Y175750D01*
X17431Y174872D01*
X16737Y173624D01*
X-16737D01*
X-17431Y174872D01*
X-17256Y175750D01*
Y180250D01*
X-17412Y181034D01*
Y184700D01*
X-17500Y185143D01*
Y185595D01*
X-17673Y186013D01*
X-17761Y186456D01*
X-18012Y186832D01*
X-18185Y187249D01*
X-18505Y187569D01*
X-18756Y187944D01*
X-19131Y188195D01*
X-19451Y188515D01*
X-19868Y188688D01*
X-20244Y188939D01*
X-20687Y189027D01*
X-21105Y189200D01*
X-21557D01*
X-22000Y189288D01*
X-22443Y189200D01*
X-22895D01*
X-23313Y189027D01*
X-23756Y188939D01*
X-24106Y188705D01*
X-24193Y188721D01*
X-25215Y189262D01*
X-25376Y189442D01*
Y243376D01*
X284500D01*
Y224529D01*
D02*
G37*
G36*
X309500Y179500D02*
X297597D01*
X296934Y180457D01*
X296849Y180770D01*
X296994Y181500D01*
Y188278D01*
X297038Y188500D01*
Y192255D01*
X296994Y192477D01*
Y195500D01*
X296819Y196378D01*
X296322Y197122D01*
X295578Y197619D01*
X294700Y197794D01*
X293400D01*
X291000Y200194D01*
Y217801D01*
X297147Y223949D01*
X297730D01*
X298754Y224152D01*
X299622Y224732D01*
X300203Y225601D01*
X300382Y226500D01*
X309500D01*
Y179500D01*
D02*
G37*
G36*
X272500Y124000D02*
X231500D01*
Y140500D01*
X272500D01*
Y124000D01*
D02*
G37*
G36*
X334500Y223500D02*
X342637Y215363D01*
X342174Y214671D01*
X341941Y213500D01*
Y204500D01*
X342174Y203329D01*
X342837Y202337D01*
X343829Y201674D01*
X345000Y201441D01*
X354000D01*
X355171Y201674D01*
X355863Y202137D01*
X360927Y197073D01*
X362182Y194045D01*
X364135Y191121D01*
X366621Y188635D01*
X369545Y186682D01*
X372573Y185427D01*
X400000Y158000D01*
X400000Y136000D01*
X380000Y116000D01*
X341500Y116000D01*
X335094Y135538D01*
Y141500D01*
X334919Y142378D01*
X334422Y143122D01*
X333678Y143619D01*
X332800Y143794D01*
X332387D01*
X331500Y146500D01*
X296500D01*
Y176912D01*
X297001Y177526D01*
X297597Y177876D01*
X309500D01*
X310648Y178352D01*
X311124Y179500D01*
Y223356D01*
X322689Y234922D01*
X334500D01*
Y223500D01*
D02*
G37*
G36*
X418376Y233114D02*
Y-233114D01*
X408114Y-243377D01*
X161000D01*
Y-190549D01*
X169472D01*
X169617Y-191274D01*
X170061Y-191939D01*
X170726Y-192383D01*
X171510Y-192539D01*
X181490D01*
X182274Y-192383D01*
X182939Y-191939D01*
X183383Y-191274D01*
X183539Y-190490D01*
Y-185510D01*
X183383Y-184726D01*
X182939Y-184061D01*
X183740Y-183147D01*
X184000Y-182957D01*
X184105Y-183000D01*
X185895D01*
X187549Y-182315D01*
X188815Y-181049D01*
X189500Y-179395D01*
Y-177605D01*
X188815Y-175951D01*
X187549Y-174685D01*
X185895Y-174000D01*
X184105D01*
X184000Y-174044D01*
X183740Y-173853D01*
X182939Y-172939D01*
X183383Y-172274D01*
X183539Y-171490D01*
Y-166510D01*
X183383Y-165726D01*
X182939Y-165061D01*
X182274Y-164617D01*
X181490Y-164461D01*
X171510D01*
X170726Y-164617D01*
X170269Y-164922D01*
X161000D01*
Y-101049D01*
X169572D01*
X169617Y-101274D01*
X170061Y-101939D01*
X170726Y-102383D01*
X171510Y-102539D01*
X181490D01*
X182274Y-102383D01*
X182939Y-101939D01*
X183383Y-101274D01*
X183539Y-100490D01*
Y-95510D01*
X183383Y-94726D01*
X182939Y-94061D01*
X183740Y-93147D01*
X184000Y-92956D01*
X184105Y-93000D01*
X185895D01*
X187549Y-92315D01*
X188815Y-91049D01*
X189500Y-89395D01*
Y-87605D01*
X188815Y-85951D01*
X187549Y-84685D01*
X185895Y-84000D01*
X184105D01*
X184000Y-84044D01*
X183740Y-83853D01*
X182939Y-82939D01*
X183383Y-82274D01*
X183539Y-81490D01*
Y-76510D01*
X183383Y-75726D01*
X182939Y-75061D01*
X182274Y-74617D01*
X181490Y-74461D01*
X171510D01*
X170726Y-74617D01*
X170269Y-74922D01*
X161000D01*
Y-10549D01*
X169472D01*
X169617Y-11274D01*
X170061Y-11939D01*
X170726Y-12383D01*
X171510Y-12539D01*
X181490D01*
X182274Y-12383D01*
X182939Y-11939D01*
X183383Y-11274D01*
X183539Y-10490D01*
Y-5510D01*
X183383Y-4726D01*
X182939Y-4061D01*
X183740Y-3147D01*
X184000Y-2957D01*
X184105Y-3000D01*
X185895D01*
X187549Y-2315D01*
X188815Y-1049D01*
X189500Y605D01*
Y2395D01*
X188815Y4049D01*
X187549Y5315D01*
X185895Y6000D01*
X184105D01*
X184000Y5957D01*
X183740Y6147D01*
X182939Y7061D01*
X183383Y7726D01*
X183539Y8510D01*
Y13490D01*
X183383Y14274D01*
X182939Y14939D01*
X182274Y15383D01*
X181490Y15539D01*
X171510D01*
X170726Y15383D01*
X170269Y15078D01*
X161000D01*
Y79451D01*
X169472D01*
X169617Y78726D01*
X170061Y78061D01*
X170726Y77617D01*
X171510Y77461D01*
X181490D01*
X182274Y77617D01*
X182939Y78061D01*
X183383Y78726D01*
X183539Y79510D01*
Y84490D01*
X183383Y85274D01*
X182939Y85939D01*
X183740Y86853D01*
X184000Y87044D01*
X184105Y87000D01*
X185895D01*
X187549Y87685D01*
X188815Y88951D01*
X189500Y90605D01*
Y92395D01*
X188815Y94049D01*
X187549Y95315D01*
X185895Y96000D01*
X184105D01*
X184000Y95956D01*
X183740Y96147D01*
X182939Y97061D01*
X183383Y97726D01*
X183539Y98510D01*
Y103490D01*
X183383Y104274D01*
X182939Y104939D01*
X182274Y105383D01*
X181490Y105539D01*
X171510D01*
X170726Y105383D01*
X170269Y105078D01*
X161000D01*
Y122000D01*
X252274D01*
Y122376D01*
X272500D01*
X273648Y122852D01*
X274124Y124000D01*
Y138449D01*
X275394Y139082D01*
X275941Y138669D01*
Y125000D01*
X275941Y125000D01*
X276174Y123829D01*
X276837Y122837D01*
X282837Y116837D01*
X283829Y116174D01*
X285000Y115941D01*
X285000Y115941D01*
X307443D01*
X307843Y115343D01*
X308546Y114873D01*
X309375Y114708D01*
X313125D01*
X313954Y114873D01*
X314657Y115343D01*
X315127Y116046D01*
X315292Y116875D01*
Y121125D01*
X315127Y121954D01*
X314657Y122657D01*
X313954Y123127D01*
X313125Y123292D01*
X309375D01*
X308546Y123127D01*
X307843Y122657D01*
X307443Y122059D01*
X286267D01*
X282059Y126267D01*
Y140500D01*
X281826Y141671D01*
X281163Y142663D01*
X281163Y142663D01*
X273809Y150017D01*
Y159376D01*
X275906D01*
X276256Y158950D01*
Y154450D01*
X276431Y153572D01*
X276928Y152828D01*
X277672Y152331D01*
X278550Y152156D01*
X279641D01*
Y147800D01*
X279641Y147800D01*
X279874Y146629D01*
X280537Y145637D01*
X287587Y138587D01*
X287587Y138587D01*
X287906Y138374D01*
Y127500D01*
X288081Y126622D01*
X288578Y125878D01*
X289322Y125380D01*
X290200Y125206D01*
X294700D01*
X295578Y125380D01*
X296322Y125878D01*
X296819Y126622D01*
X296994Y127500D01*
Y141500D01*
X296819Y142378D01*
X296322Y143122D01*
X295578Y143619D01*
X294700Y143794D01*
X292287D01*
X292230Y143878D01*
X292909Y145148D01*
X295843D01*
X296500Y144876D01*
X301832D01*
X302022Y143619D01*
X301278Y143122D01*
X300781Y142378D01*
X300606Y141500D01*
Y127500D01*
X300781Y126622D01*
X301278Y125878D01*
X302022Y125380D01*
X302900Y125206D01*
X307400D01*
X308278Y125380D01*
X309022Y125878D01*
X309519Y126622D01*
X309694Y127500D01*
Y141500D01*
X309519Y142378D01*
X309022Y143122D01*
X308278Y143619D01*
X308468Y144876D01*
X314532D01*
X314722Y143619D01*
X313978Y143122D01*
X313481Y142378D01*
X313306Y141500D01*
Y127500D01*
X313481Y126622D01*
X313978Y125878D01*
X314722Y125380D01*
X315600Y125206D01*
X320100D01*
X320978Y125380D01*
X321722Y125878D01*
X322219Y126622D01*
X322394Y127500D01*
Y141500D01*
X322219Y142378D01*
X321722Y143122D01*
X320978Y143619D01*
X321168Y144876D01*
X327232D01*
X327422Y143619D01*
X326678Y143122D01*
X326181Y142378D01*
X326006Y141500D01*
Y127500D01*
X326181Y126622D01*
X326678Y125878D01*
X326681Y125875D01*
Y122569D01*
X324216D01*
X324157Y122657D01*
X323454Y123127D01*
X322625Y123292D01*
X318875D01*
X318046Y123127D01*
X317343Y122657D01*
X316873Y121954D01*
X316708Y121125D01*
Y116875D01*
X316873Y116046D01*
X317343Y115343D01*
X318046Y114873D01*
X318875Y114708D01*
X322625D01*
X323454Y114873D01*
X324157Y115343D01*
X324216Y115431D01*
X326784D01*
X326843Y115343D01*
X327546Y114873D01*
X328375Y114708D01*
X332125D01*
X332954Y114873D01*
X333657Y115343D01*
X334127Y116046D01*
X334292Y116875D01*
Y121125D01*
X334127Y121954D01*
X333819Y122415D01*
Y122829D01*
X335089Y123426D01*
X335672Y122943D01*
Y119000D01*
X335708Y118815D01*
Y116875D01*
X335873Y116046D01*
X336343Y115343D01*
X337046Y114873D01*
X337875Y114708D01*
X340632D01*
X340767Y114551D01*
X341147Y114522D01*
X341500Y114376D01*
X380000Y114376D01*
X381148Y114852D01*
X401148Y134852D01*
X401624Y136000D01*
X401624Y158000D01*
X401148Y159148D01*
X377859Y182437D01*
X378345Y183610D01*
X379860D01*
X383510Y184336D01*
X386948Y185760D01*
X390042Y187827D01*
X390120Y187905D01*
X376763Y201263D01*
X363405Y214620D01*
X363327Y214542D01*
X363215Y214374D01*
X362000Y214743D01*
Y243376D01*
X408114D01*
X418376Y233114D01*
D02*
G37*
G36*
X-27000Y172000D02*
X36000D01*
X61000Y147000D01*
Y26292D01*
X60000Y25624D01*
X37000D01*
X36844Y25559D01*
X36478D01*
X35431Y26606D01*
X33777Y27291D01*
X31987D01*
X30333Y26606D01*
X29067Y25340D01*
X28382Y23686D01*
Y21896D01*
X29067Y20242D01*
X30333Y18976D01*
X31092Y18662D01*
X31390Y17164D01*
X29709Y15483D01*
X29709Y15483D01*
X27729Y13503D01*
X27176Y12676D01*
X26982Y11700D01*
Y-23299D01*
X26982Y-23300D01*
Y-33019D01*
X27176Y-33994D01*
X27729Y-34821D01*
X54451Y-61543D01*
Y-114000D01*
X-388997D01*
X-389846Y-112730D01*
X-389500Y-111895D01*
Y-110105D01*
X-389822Y-109328D01*
Y-108413D01*
X-389431Y-107828D01*
X-389256Y-106950D01*
Y-102050D01*
X-389431Y-101172D01*
X-389928Y-100428D01*
X-390177Y-100261D01*
Y-88301D01*
X-390190Y-88235D01*
Y-79079D01*
X-390543D01*
X-391000Y-78395D01*
Y-76605D01*
X-391685Y-74951D01*
X-392951Y-73685D01*
X-394605Y-73000D01*
X-396395D01*
X-398049Y-73685D01*
X-399315Y-74951D01*
X-400000Y-76605D01*
Y-78395D01*
X-400457Y-79079D01*
X-400810D01*
Y-95033D01*
X-398334D01*
Y-101998D01*
X-398344Y-102050D01*
Y-106950D01*
X-398169Y-107828D01*
X-397978Y-108114D01*
Y-108846D01*
X-398500Y-110105D01*
Y-111895D01*
X-398154Y-112730D01*
X-399003Y-114000D01*
X-418376D01*
Y107250D01*
X-411714D01*
Y131750D01*
X-418376D01*
Y194880D01*
X-411714D01*
Y219380D01*
X-418376D01*
Y233114D01*
X-408114Y243376D01*
X-27000D01*
Y172000D01*
D02*
G37*
G36*
X61000Y23000D02*
X61000Y17500D01*
X60000Y16500D01*
X53500D01*
X49000Y21000D01*
X37000D01*
Y24000D01*
X60000D01*
X61000Y23000D01*
D02*
G37*
G36*
X159376Y15078D02*
X159852Y13930D01*
X161000Y13455D01*
X170269D01*
X170707Y13636D01*
X171171Y13728D01*
X171359Y13854D01*
X171670Y13916D01*
X181330D01*
X181641Y13854D01*
X181769Y13769D01*
X181854Y13641D01*
X181916Y13330D01*
Y8670D01*
X181854Y8359D01*
X181589Y7963D01*
X181507Y7548D01*
X181319Y7168D01*
X180870Y6426D01*
X180291Y6039D01*
X171510D01*
X170726Y5883D01*
X170061Y5439D01*
X169617Y4774D01*
X169461Y3990D01*
Y-990D01*
X169617Y-1774D01*
X170061Y-2439D01*
X170192Y-2526D01*
Y-3974D01*
X170061Y-4061D01*
X169617Y-4726D01*
X169472Y-5451D01*
X79556D01*
X74802Y-698D01*
X73976Y-145D01*
X73000Y49D01*
X62450D01*
X61924Y1319D01*
X140056Y79451D01*
X159376D01*
Y15078D01*
D02*
G37*
G36*
Y-74922D02*
X159852Y-76070D01*
X161000Y-76545D01*
X170269D01*
X170707Y-76364D01*
X171171Y-76272D01*
X171359Y-76146D01*
X171670Y-76084D01*
X181330D01*
X181641Y-76146D01*
X181769Y-76231D01*
X181854Y-76359D01*
X181916Y-76670D01*
Y-81330D01*
X181854Y-81641D01*
X181589Y-82037D01*
X181507Y-82452D01*
X181319Y-82832D01*
X180870Y-83574D01*
X180291Y-83961D01*
X171510D01*
X170726Y-84117D01*
X170061Y-84561D01*
X169617Y-85226D01*
X169461Y-86010D01*
Y-90990D01*
X169617Y-91774D01*
X170061Y-92439D01*
X170192Y-92527D01*
Y-93974D01*
X170061Y-94061D01*
X169617Y-94726D01*
X169461Y-95510D01*
Y-95951D01*
X127556D01*
X126140Y-94536D01*
X126170Y-94322D01*
X126706Y-93305D01*
X143687D01*
X144785Y-93087D01*
X145715Y-92465D01*
X146337Y-91535D01*
X146555Y-90438D01*
Y-82563D01*
X146337Y-81465D01*
X145715Y-80535D01*
X144785Y-79913D01*
X143687Y-79695D01*
X131710D01*
X131169Y-78886D01*
Y-77096D01*
X130484Y-75442D01*
X129218Y-74176D01*
X127564Y-73491D01*
X125774D01*
X124120Y-74176D01*
X123819Y-74477D01*
X122549Y-73951D01*
Y-56485D01*
X122355Y-55510D01*
X121802Y-54683D01*
X90293Y-23173D01*
X90763Y-21848D01*
X92049Y-21315D01*
X93315Y-20049D01*
X94000Y-18395D01*
Y-16605D01*
X95173Y-16549D01*
X115185D01*
X115185Y-16549D01*
X116451Y-17815D01*
X118105Y-18500D01*
X119895D01*
X121549Y-17815D01*
X122815Y-16549D01*
X123500Y-14895D01*
Y-13105D01*
X122967Y-11819D01*
X123572Y-10549D01*
X159376D01*
Y-74922D01*
D02*
G37*
G36*
X73000Y-28105D02*
X73000Y-28105D01*
Y-29895D01*
X73685Y-31549D01*
X74951Y-32815D01*
X76605Y-33500D01*
X78395D01*
X80049Y-32815D01*
X81315Y-31549D01*
X82000Y-29895D01*
X83270Y-29375D01*
X113451Y-59556D01*
Y-74291D01*
X112181Y-74817D01*
X112049Y-74685D01*
X110395Y-74000D01*
X108605D01*
X106951Y-74685D01*
X106870Y-74766D01*
X61000Y-28895D01*
Y-20275D01*
X65170D01*
X73000Y-28105D01*
D02*
G37*
G36*
X-112865Y-150275D02*
X-112844D01*
X-112824Y-150275D01*
X-112804Y-150275D01*
X-112783Y-150276D01*
X-112763Y-150276D01*
X-112760Y-150276D01*
X-112755Y-150277D01*
X-112750Y-150277D01*
X-112745Y-150277D01*
X-112743Y-150277D01*
X-112743Y-150277D01*
X-112740Y-150278D01*
X-112735Y-150278D01*
X-112730Y-150278D01*
X-112725Y-150279D01*
X-112723Y-150279D01*
X-112723D01*
X-112720Y-150279D01*
X-112715Y-150279D01*
X-112710Y-150280D01*
X-112705Y-150280D01*
X-112702Y-150281D01*
X-112697Y-150281D01*
X-112687Y-150282D01*
X-112677Y-150284D01*
X-112667Y-150285D01*
X-112662Y-150286D01*
X-112662Y-150286D01*
Y-150286D01*
X-107108D01*
X-106967Y-150280D01*
X-106689Y-150342D01*
X-106437Y-150473D01*
X-106227Y-150665D01*
X-106150Y-150784D01*
X-106150D01*
X-106105Y-150857D01*
X-106036Y-151013D01*
X-105990Y-151178D01*
X-105967Y-151348D01*
X-105968Y-151433D01*
X-105958Y-151663D01*
X-106125Y-152093D01*
X-106450Y-152420D01*
X-106878Y-152590D01*
X-107108Y-152582D01*
X-111699D01*
Y-156025D01*
X-107108Y-156025D01*
X-106964Y-156015D01*
X-106680Y-156072D01*
X-106421Y-156200D01*
X-106205Y-156392D01*
X-106125Y-156513D01*
Y-156513D01*
X-106056Y-156625D01*
X-105968Y-156871D01*
X-105931Y-157130D01*
X-105949Y-157392D01*
X-105985Y-157518D01*
X-105985Y-157518D01*
X-106007Y-157602D01*
X-106078Y-157761D01*
X-106174Y-157907D01*
X-106291Y-158037D01*
X-106359Y-158091D01*
X-106439Y-158152D01*
X-106618Y-158242D01*
X-106810Y-158301D01*
X-107008Y-158326D01*
X-107108Y-158320D01*
X-107108Y-158320D01*
X-111699D01*
Y-161764D01*
X-107109D01*
X-107109Y-161764D01*
X-106966Y-161757D01*
X-106687Y-161818D01*
X-106433Y-161948D01*
X-106222Y-162140D01*
X-106144Y-162260D01*
X-106144Y-162260D01*
X-106077Y-162370D01*
X-105990Y-162613D01*
X-105954Y-162869D01*
X-105972Y-163127D01*
X-106007Y-163251D01*
Y-163251D01*
X-106029Y-163335D01*
X-106098Y-163493D01*
X-106192Y-163638D01*
X-106307Y-163766D01*
X-106374Y-163821D01*
X-106374Y-163821D01*
X-106452Y-163881D01*
X-106627Y-163973D01*
X-106814Y-164035D01*
X-107010Y-164063D01*
X-107109Y-164060D01*
X-107109Y-164060D01*
X-112847D01*
X-112860Y-164060D01*
X-112867Y-164059D01*
X-112880Y-164059D01*
X-112893Y-164058D01*
X-112906Y-164058D01*
X-112913Y-164057D01*
X-112913D01*
X-112920Y-164057D01*
X-112934Y-164056D01*
X-112947Y-164055D01*
X-112961Y-164054D01*
X-112968Y-164053D01*
X-112968Y-164053D01*
X-112969Y-164053D01*
X-112970Y-164053D01*
X-112971Y-164053D01*
X-112973Y-164053D01*
X-112974Y-164052D01*
X-112974Y-164052D01*
X-112976Y-164052D01*
X-112977Y-164052D01*
X-112979Y-164052D01*
X-112979Y-164051D01*
Y-164051D01*
X-112985Y-164051D01*
X-112991Y-164050D01*
X-112997Y-164049D01*
X-113003Y-164049D01*
X-113008Y-164048D01*
X-113014Y-164048D01*
X-113015Y-164048D01*
X-113018Y-164047D01*
X-113021Y-164047D01*
X-113024Y-164046D01*
X-113026Y-164046D01*
D01*
X-113026D01*
X-113026D01*
Y-164046D01*
X-113031Y-164045D01*
X-113037Y-164044D01*
X-113043Y-164043D01*
X-113049Y-164042D01*
X-113061Y-164040D01*
X-113066Y-164039D01*
X-113072Y-164037D01*
X-113084Y-164035D01*
X-113089Y-164034D01*
X-113094Y-164033D01*
X-113100Y-164032D01*
X-113105Y-164031D01*
X-113111Y-164030D01*
X-113116Y-164029D01*
X-113121Y-164028D01*
X-113126Y-164027D01*
X-113137Y-164024D01*
X-113138Y-164024D01*
X-113139Y-164023D01*
X-113141Y-164022D01*
X-113142Y-164022D01*
X-113143Y-164021D01*
X-113143Y-164021D01*
X-113144Y-164021D01*
X-113145Y-164020D01*
X-113147Y-164020D01*
X-113148Y-164019D01*
X-113149Y-164019D01*
X-113149Y-164019D01*
X-113149Y-164018D01*
X-113151Y-164018D01*
X-113152Y-164017D01*
X-113154Y-164017D01*
X-113154Y-164016D01*
X-113155Y-164016D01*
X-113157Y-164016D01*
X-113158Y-164015D01*
X-113160Y-164014D01*
X-113160Y-164014D01*
X-113161Y-164014D01*
X-113162Y-164013D01*
X-113164Y-164013D01*
X-113165Y-164012D01*
X-113166Y-164012D01*
X-113166D01*
X-113172Y-164010D01*
X-113178Y-164009D01*
X-113183Y-164007D01*
X-113185Y-164006D01*
X-113188Y-164005D01*
X-113190Y-164004D01*
X-113193Y-164003D01*
X-113195Y-164003D01*
X-113195D01*
X-113195Y-164002D01*
X-113197Y-164002D01*
X-113198Y-164001D01*
X-113199Y-164000D01*
X-113200Y-164000D01*
X-113200D01*
X-113201Y-163999D01*
X-113202Y-163999D01*
X-113203Y-163998D01*
X-113205Y-163997D01*
X-113205Y-163997D01*
X-113206Y-163997D01*
X-113207Y-163996D01*
X-113209Y-163995D01*
X-113210Y-163995D01*
X-113210Y-163995D01*
X-113210D01*
X-113211Y-163994D01*
X-113212Y-163994D01*
X-113214Y-163993D01*
X-113215Y-163993D01*
X-113216Y-163993D01*
X-113216Y-163992D01*
X-113216Y-163992D01*
X-113218Y-163992D01*
X-113219Y-163991D01*
X-113220Y-163991D01*
X-113221Y-163990D01*
X-113221D01*
X-113226Y-163989D01*
X-113231Y-163987D01*
X-113236Y-163985D01*
X-113238Y-163985D01*
X-113240Y-163983D01*
X-113243Y-163983D01*
X-113245Y-163981D01*
X-113247Y-163981D01*
X-113247Y-163981D01*
X-113247Y-163981D01*
X-113249Y-163980D01*
X-113250Y-163979D01*
X-113251Y-163978D01*
X-113252Y-163978D01*
Y-163978D01*
X-113253Y-163978D01*
X-113254Y-163977D01*
X-113256Y-163976D01*
X-113257Y-163976D01*
X-113258Y-163975D01*
X-113258Y-163975D01*
X-113260Y-163974D01*
X-113261Y-163974D01*
X-113263Y-163973D01*
X-113263Y-163973D01*
X-113263Y-163973D01*
X-113264Y-163973D01*
X-113265Y-163972D01*
X-113267Y-163972D01*
X-113268Y-163971D01*
X-113269Y-163971D01*
X-113269Y-163971D01*
X-113269Y-163971D01*
X-113269D01*
X-113269Y-163971D01*
X-113269Y-163971D01*
X-113271Y-163970D01*
X-113272Y-163969D01*
X-113273Y-163969D01*
X-113274Y-163969D01*
X-113274Y-163969D01*
X-113279Y-163967D01*
X-113285Y-163965D01*
X-113290Y-163963D01*
X-113292Y-163963D01*
X-113294Y-163962D01*
X-113297Y-163961D01*
X-113300Y-163960D01*
X-113301Y-163959D01*
X-113301D01*
Y-163959D01*
X-113302Y-163959D01*
X-113303Y-163958D01*
X-113304Y-163957D01*
X-113306Y-163957D01*
X-113306Y-163956D01*
X-113307Y-163956D01*
X-113308Y-163955D01*
X-113309Y-163955D01*
X-113311Y-163954D01*
X-113312Y-163953D01*
X-113312Y-163953D01*
X-113312Y-163953D01*
X-113313Y-163953D01*
X-113315Y-163952D01*
X-113316Y-163951D01*
X-113317Y-163951D01*
X-113317Y-163951D01*
X-113319Y-163950D01*
X-113320Y-163950D01*
X-113321Y-163949D01*
X-113322Y-163949D01*
Y-163949D01*
X-113322Y-163949D01*
X-113324Y-163948D01*
X-113325Y-163948D01*
X-113326Y-163947D01*
X-113327Y-163947D01*
X-113332Y-163945D01*
X-113337Y-163943D01*
X-113342Y-163941D01*
X-113344Y-163941D01*
X-113346Y-163940D01*
X-113349Y-163939D01*
X-113351Y-163938D01*
X-113353Y-163937D01*
X-113353Y-163937D01*
X-113355Y-163936D01*
X-113356Y-163936D01*
X-113357Y-163935D01*
X-113358Y-163934D01*
X-113358Y-163934D01*
X-113358Y-163934D01*
X-113359Y-163933D01*
X-113361Y-163933D01*
X-113362Y-163932D01*
X-113363Y-163932D01*
X-113363Y-163932D01*
X-113364Y-163931D01*
X-113366Y-163930D01*
X-113367Y-163930D01*
X-113368Y-163929D01*
X-113368Y-163929D01*
X-113370Y-163929D01*
X-113371Y-163928D01*
X-113372Y-163927D01*
X-113373Y-163927D01*
X-113373Y-163927D01*
X-113375Y-163927D01*
X-113376Y-163926D01*
X-113377Y-163926D01*
X-113378Y-163925D01*
X-113378Y-163925D01*
X-113383Y-163923D01*
X-113388Y-163922D01*
X-113393Y-163920D01*
X-113394Y-163919D01*
X-113396Y-163918D01*
X-113399Y-163917D01*
X-113401Y-163916D01*
X-113403Y-163916D01*
X-113409Y-163912D01*
X-113422Y-163904D01*
X-113434Y-163895D01*
X-113447Y-163887D01*
X-113453Y-163883D01*
X-113453Y-163883D01*
X-113468Y-163873D01*
X-113482Y-163864D01*
X-113500Y-163851D01*
X-113514Y-163841D01*
X-113528Y-163831D01*
X-113547Y-163818D01*
X-113560Y-163808D01*
X-113574Y-163799D01*
X-113592Y-163785D01*
X-113605Y-163776D01*
X-113617Y-163766D01*
X-113634Y-163753D01*
X-113635Y-163752D01*
X-113636Y-163752D01*
X-113637Y-163751D01*
X-113638Y-163750D01*
X-113639Y-163749D01*
X-113639Y-163749D01*
X-113639Y-163749D01*
X-113640Y-163748D01*
X-113641Y-163747D01*
X-113642Y-163746D01*
X-113643Y-163745D01*
X-113643D01*
X-113643Y-163745D01*
X-113645Y-163744D01*
X-113646Y-163743D01*
X-113647Y-163741D01*
X-113647Y-163741D01*
X-113648Y-163740D01*
X-113649Y-163739D01*
X-113650Y-163738D01*
X-113651Y-163737D01*
X-113651Y-163736D01*
X-113651Y-163736D01*
X-113656Y-163731D01*
X-113660Y-163726D01*
X-113660Y-163726D01*
X-113661Y-163724D01*
X-113662Y-163723D01*
X-113663Y-163722D01*
X-113664Y-163722D01*
X-113664D01*
X-113664Y-163721D01*
X-113665Y-163720D01*
X-113666Y-163719D01*
X-113667Y-163718D01*
X-113668Y-163717D01*
Y-163717D01*
X-113669Y-163716D01*
X-113671Y-163714D01*
X-113673Y-163712D01*
X-113675Y-163710D01*
X-113676Y-163709D01*
X-113677Y-163709D01*
X-113678Y-163708D01*
X-113679Y-163707D01*
X-113680Y-163706D01*
X-113680Y-163706D01*
X-113680Y-163706D01*
X-113680Y-163705D01*
X-113681Y-163704D01*
X-113682Y-163703D01*
X-113683Y-163702D01*
X-113684Y-163702D01*
Y-163702D01*
X-113684Y-163701D01*
X-113685Y-163700D01*
X-113686Y-163699D01*
X-113687Y-163698D01*
X-113687Y-163697D01*
X-113687Y-163697D01*
X-113688Y-163697D01*
X-113689Y-163696D01*
X-113690Y-163694D01*
X-113691Y-163693D01*
X-113691Y-163693D01*
X-113691D01*
X-113695Y-163688D01*
X-113699Y-163683D01*
X-113702Y-163678D01*
X-113703Y-163678D01*
X-113704Y-163676D01*
X-113704Y-163675D01*
X-113705Y-163674D01*
X-113706Y-163674D01*
X-113706Y-163674D01*
X-113707Y-163673D01*
X-113708Y-163671D01*
X-113710Y-163669D01*
X-113712Y-163667D01*
X-113713Y-163666D01*
X-113713D01*
X-113714Y-163666D01*
X-113715Y-163665D01*
X-113715Y-163664D01*
X-113716Y-163663D01*
X-113717Y-163662D01*
X-113717Y-163662D01*
X-113718Y-163661D01*
X-113719Y-163660D01*
X-113720Y-163659D01*
X-113721Y-163658D01*
X-113721D01*
X-113721Y-163658D01*
X-113722Y-163657D01*
X-113723Y-163656D01*
X-113724Y-163654D01*
X-113725Y-163654D01*
Y-163654D01*
X-113725Y-163653D01*
X-113726Y-163652D01*
X-113727Y-163651D01*
X-113728Y-163650D01*
X-113729Y-163649D01*
X-113732Y-163644D01*
X-113736Y-163639D01*
X-113740Y-163635D01*
X-113740Y-163634D01*
X-113741Y-163633D01*
X-113742Y-163632D01*
X-113743Y-163631D01*
X-113743Y-163630D01*
X-113744D01*
X-113743Y-163630D01*
X-113744Y-163629D01*
X-113746Y-163627D01*
X-113748Y-163625D01*
X-113750Y-163623D01*
X-113751Y-163622D01*
X-113751Y-163622D01*
X-113752Y-163621D01*
X-113753Y-163620D01*
X-113754Y-163619D01*
X-113754Y-163619D01*
X-113755Y-163619D01*
X-113756Y-163617D01*
X-113757Y-163617D01*
X-113757Y-163615D01*
X-113758Y-163615D01*
X-113758Y-163614D01*
X-113759Y-163613D01*
X-113760Y-163612D01*
X-113761Y-163611D01*
X-113761Y-163610D01*
X-113761Y-163610D01*
X-113762Y-163610D01*
X-113762Y-163609D01*
X-113763Y-163608D01*
X-113764Y-163606D01*
X-113764Y-163606D01*
Y-163606D01*
X-113768Y-163601D01*
X-113771Y-163596D01*
X-113774Y-163591D01*
X-113775Y-163591D01*
X-113776Y-163589D01*
X-113777Y-163588D01*
X-113777Y-163587D01*
X-113778Y-163587D01*
X-113778Y-163586D01*
X-113780Y-163584D01*
X-113782Y-163582D01*
X-113783Y-163580D01*
X-113784Y-163579D01*
X-113784Y-163579D01*
X-113785Y-163578D01*
X-113785Y-163577D01*
X-113786Y-163575D01*
X-113787Y-163574D01*
X-113788Y-163573D01*
Y-163573D01*
X-113788Y-163573D01*
X-113788Y-163572D01*
X-113789Y-163571D01*
X-113790Y-163569D01*
X-113791Y-163568D01*
X-113791Y-163567D01*
X-113791Y-163567D01*
X-113791Y-163567D01*
X-113791Y-163566D01*
X-113792Y-163565D01*
X-113793Y-163564D01*
X-113794Y-163563D01*
X-113794Y-163562D01*
X-113794D01*
X-113798Y-163557D01*
X-113801Y-163552D01*
X-113804Y-163547D01*
X-113805Y-163546D01*
X-113805Y-163545D01*
X-113806Y-163544D01*
X-113807Y-163543D01*
X-113807Y-163542D01*
Y-163542D01*
X-113809Y-163540D01*
X-113811Y-163536D01*
X-113814Y-163531D01*
X-113816Y-163527D01*
X-113817Y-163525D01*
X-113817D01*
X-113817D01*
D01*
X-113817Y-163525D01*
X-113817Y-163524D01*
X-113818Y-163524D01*
X-113819Y-163523D01*
X-113820Y-163522D01*
X-113820Y-163521D01*
Y-163521D01*
X-113820Y-163521D01*
X-113821Y-163520D01*
X-113822Y-163519D01*
X-113822Y-163518D01*
X-113823Y-163517D01*
Y-163517D01*
X-113823D01*
X-113823Y-163517D01*
X-113824Y-163515D01*
X-113825Y-163514D01*
X-113825Y-163513D01*
X-113826Y-163513D01*
Y-163513D01*
X-113826Y-163512D01*
X-113827Y-163511D01*
X-113827Y-163510D01*
X-113828Y-163509D01*
X-113829Y-163508D01*
Y-163508D01*
X-113831Y-163503D01*
X-113834Y-163498D01*
X-113837Y-163493D01*
X-113837Y-163493D01*
X-113838Y-163492D01*
X-113839Y-163491D01*
X-113840Y-163490D01*
X-113840Y-163489D01*
X-113841Y-163488D01*
X-113842Y-163486D01*
X-113843Y-163484D01*
X-113845Y-163482D01*
X-113846Y-163481D01*
Y-163481D01*
X-113846Y-163481D01*
X-113847Y-163479D01*
X-113847Y-163477D01*
X-113848Y-163476D01*
X-113848Y-163475D01*
X-113848Y-163475D01*
X-113849Y-163475D01*
X-113849Y-163473D01*
X-113850Y-163472D01*
X-113851Y-163470D01*
X-113851Y-163470D01*
X-113852Y-163469D01*
X-113852Y-163468D01*
X-113853Y-163466D01*
X-113854Y-163465D01*
X-113854Y-163464D01*
X-113854Y-163464D01*
X-113857Y-163459D01*
X-113860Y-163454D01*
X-113862Y-163449D01*
X-113863Y-163449D01*
X-113863Y-163447D01*
X-113864Y-163446D01*
X-113865Y-163445D01*
X-113865Y-163444D01*
X-113866Y-163442D01*
X-113868Y-163438D01*
X-113870Y-163434D01*
X-113872Y-163429D01*
X-113873Y-163427D01*
Y-163427D01*
X-113873Y-163426D01*
X-113874Y-163425D01*
X-113875Y-163423D01*
X-113875Y-163422D01*
X-113876Y-163421D01*
Y-163421D01*
X-113876Y-163420D01*
X-113876Y-163419D01*
X-113877Y-163417D01*
X-113878Y-163416D01*
X-113878Y-163415D01*
X-113878Y-163414D01*
X-113879Y-163413D01*
X-113880Y-163412D01*
X-113880Y-163410D01*
X-113881Y-163410D01*
X-113883Y-163405D01*
X-113885Y-163400D01*
X-113888Y-163395D01*
X-113888Y-163394D01*
X-113889Y-163393D01*
X-113889Y-163392D01*
X-113890Y-163391D01*
X-113890Y-163390D01*
X-113891Y-163388D01*
X-113893Y-163384D01*
X-113895Y-163379D01*
X-113896Y-163375D01*
X-113897Y-163373D01*
Y-163373D01*
X-113897Y-163372D01*
X-113898Y-163370D01*
X-113898Y-163369D01*
X-113899Y-163367D01*
X-113899Y-163367D01*
X-113899Y-163366D01*
X-113900Y-163364D01*
X-113901Y-163363D01*
X-113901Y-163361D01*
X-113902Y-163361D01*
X-113902Y-163361D01*
X-113902Y-163360D01*
X-113903Y-163359D01*
X-113903Y-163358D01*
X-113904Y-163356D01*
X-113904Y-163356D01*
X-113904Y-163356D01*
X-113908Y-163346D01*
X-113911Y-163341D01*
X-113911Y-163340D01*
X-113912Y-163339D01*
X-113912Y-163337D01*
X-113912Y-163336D01*
X-113913Y-163336D01*
X-113914Y-163333D01*
X-113915Y-163329D01*
X-113917Y-163325D01*
X-113919Y-163321D01*
X-113919Y-163318D01*
X-113919D01*
X-113919Y-163318D01*
X-113920Y-163316D01*
X-113920Y-163315D01*
X-113921Y-163313D01*
X-113921Y-163312D01*
D01*
X-113921Y-163312D01*
X-113922Y-163310D01*
X-113922Y-163309D01*
X-113923Y-163307D01*
X-113923Y-163307D01*
Y-163307D01*
X-113925Y-163301D01*
X-113927Y-163296D01*
X-113929Y-163291D01*
X-113931Y-163286D01*
X-113933Y-163281D01*
X-113933Y-163279D01*
X-113935Y-163275D01*
X-113936Y-163271D01*
X-113937Y-163266D01*
X-113938Y-163264D01*
X-113938Y-163263D01*
X-113939Y-163262D01*
X-113939Y-163260D01*
X-113940Y-163259D01*
X-113940Y-163258D01*
X-113940D01*
X-113940Y-163257D01*
X-113940Y-163256D01*
X-113941Y-163254D01*
X-113941Y-163253D01*
X-113941Y-163252D01*
X-113943Y-163247D01*
X-113945Y-163242D01*
X-113947Y-163237D01*
X-113948Y-163232D01*
X-113950Y-163227D01*
X-113950Y-163225D01*
X-113952Y-163221D01*
X-113953Y-163216D01*
X-113954Y-163212D01*
X-113954Y-163210D01*
X-113954D01*
X-113954Y-163209D01*
X-113955Y-163207D01*
X-113955Y-163206D01*
X-113956Y-163204D01*
X-113956Y-163204D01*
X-113956Y-163204D01*
X-113957Y-163198D01*
X-113959Y-163193D01*
X-113960Y-163188D01*
X-113961Y-163183D01*
X-113963Y-163178D01*
X-113964Y-163173D01*
X-113965Y-163171D01*
X-113966Y-163166D01*
X-113967Y-163162D01*
X-113968Y-163158D01*
X-113968Y-163155D01*
Y-163155D01*
X-113969Y-163149D01*
X-113970Y-163144D01*
X-113971Y-163138D01*
X-113973Y-163133D01*
X-113974Y-163128D01*
X-113975Y-163123D01*
X-113975Y-163121D01*
X-113976Y-163115D01*
X-113977Y-163110D01*
X-113978Y-163104D01*
X-113978Y-163101D01*
X-113979Y-163095D01*
X-113980Y-163089D01*
X-113981Y-163084D01*
X-113982Y-163079D01*
X-113983Y-163074D01*
X-113984Y-163069D01*
X-113984Y-163066D01*
X-113985Y-163061D01*
X-113986Y-163055D01*
X-113987Y-163050D01*
X-113987Y-163047D01*
X-113987D01*
X-113988Y-163041D01*
X-113988Y-163035D01*
X-113989Y-163030D01*
X-113989Y-163025D01*
X-113989Y-163020D01*
X-113990Y-163016D01*
X-113990Y-163010D01*
X-113991Y-163003D01*
X-113991Y-162996D01*
X-113991Y-162993D01*
X-113991D01*
X-113992Y-162985D01*
X-113993Y-162968D01*
X-113994Y-162952D01*
X-113994Y-162936D01*
X-113994Y-162927D01*
Y-162927D01*
X-113994Y-162926D01*
X-113995Y-162924D01*
X-113995Y-162922D01*
X-113995Y-162920D01*
X-113995Y-162917D01*
Y-151438D01*
X-113998Y-151210D01*
X-113830Y-150786D01*
X-113512Y-150459D01*
X-113093Y-150278D01*
X-112865Y-150275D01*
Y-150275D01*
D02*
G37*
G36*
X-126133Y-150280D02*
X-126113Y-150280D01*
X-126092Y-150280D01*
X-126072Y-150280D01*
X-126052Y-150280D01*
X-126031Y-150281D01*
X-126029Y-150281D01*
X-126024Y-150281D01*
X-126019Y-150281D01*
X-126014Y-150282D01*
X-126011Y-150282D01*
X-126011D01*
X-126009Y-150282D01*
X-126003Y-150282D01*
X-125998Y-150283D01*
X-125993Y-150283D01*
X-125991Y-150283D01*
X-125988Y-150283D01*
X-125983Y-150284D01*
X-125978Y-150284D01*
X-125973Y-150285D01*
X-125970Y-150285D01*
Y-150285D01*
X-125965Y-150286D01*
X-125955Y-150287D01*
X-125945Y-150288D01*
X-125935Y-150290D01*
X-125930Y-150290D01*
X-125930Y-150290D01*
Y-150290D01*
X-122887Y-150290D01*
X-122881D01*
X-122868Y-150291D01*
X-122855Y-150291D01*
X-122843Y-150291D01*
X-122836Y-150292D01*
X-122836Y-150292D01*
X-122409Y-150298D01*
X-121573Y-150476D01*
X-120787Y-150811D01*
X-120081Y-151292D01*
X-119480Y-151899D01*
X-119008Y-152611D01*
X-118682Y-153401D01*
X-118513Y-154238D01*
X-118512Y-154665D01*
X-118512Y-154665D01*
X-118511Y-154678D01*
X-118511Y-154702D01*
X-118512Y-154727D01*
X-118513Y-154751D01*
X-118514Y-154763D01*
X-118525Y-155230D01*
X-118744Y-156138D01*
X-119150Y-156980D01*
X-119724Y-157716D01*
X-120083Y-158016D01*
Y-158016D01*
Y-158016D01*
D01*
X-118570Y-162558D01*
X-118515Y-162692D01*
X-118479Y-162979D01*
X-118519Y-163266D01*
X-118632Y-163532D01*
X-118722Y-163646D01*
X-118722Y-163646D01*
X-118806Y-163746D01*
X-119011Y-163909D01*
X-119246Y-164025D01*
X-119500Y-164091D01*
X-119630Y-164097D01*
X-119630Y-164097D01*
X-119718Y-164102D01*
X-119892Y-164085D01*
X-120060Y-164041D01*
X-120220Y-163970D01*
X-120294Y-163923D01*
Y-163923D01*
X-120376Y-163866D01*
X-120519Y-163725D01*
X-120635Y-163561D01*
X-120721Y-163380D01*
X-120748Y-163284D01*
Y-163284D01*
X-120748D01*
X-122180Y-158988D01*
X-122197Y-158991D01*
X-122232Y-158996D01*
X-122267Y-159000D01*
X-122302Y-159004D01*
X-122319Y-159007D01*
X-122319Y-159007D01*
X-122336Y-159009D01*
X-122372Y-159013D01*
X-122407Y-159016D01*
X-122442Y-159020D01*
X-122459Y-159022D01*
X-122477Y-159023D01*
X-122512Y-159026D01*
X-122548Y-159029D01*
X-122583Y-159032D01*
X-122601Y-159033D01*
X-122636Y-159035D01*
X-122708Y-159039D01*
X-122780Y-159042D01*
X-122852Y-159043D01*
X-122887Y-159043D01*
X-124967D01*
Y-162916D01*
X-124961Y-163059D01*
X-125022Y-163338D01*
X-125152Y-163592D01*
X-125344Y-163803D01*
X-125464Y-163881D01*
X-125574Y-163948D01*
X-125817Y-164035D01*
X-126073Y-164071D01*
X-126331Y-164053D01*
X-126456Y-164019D01*
X-126456D01*
X-126539Y-163997D01*
X-126697Y-163927D01*
X-126842Y-163833D01*
X-126970Y-163718D01*
X-127025Y-163651D01*
Y-163651D01*
X-127085Y-163573D01*
X-127177Y-163398D01*
X-127238Y-163210D01*
X-127266Y-163015D01*
X-127263Y-162916D01*
Y-151438D01*
X-127267Y-151210D01*
X-127098Y-150786D01*
X-126780Y-150459D01*
X-126361Y-150278D01*
X-126133Y-150275D01*
Y-150280D01*
D02*
G37*
G36*
X-94870Y-171797D02*
X-94867D01*
X-94865Y-171797D01*
X-94864D01*
X-94862Y-171797D01*
X-94861D01*
X-94859Y-171797D01*
X-94858D01*
X-94854Y-171797D01*
X-94854Y-171797D01*
X-94852D01*
X-94850Y-171797D01*
X-94848Y-171797D01*
X-94847Y-171797D01*
X-94847D01*
X-94846Y-171797D01*
X-94844Y-171797D01*
X-94843Y-171797D01*
X-94841Y-171798D01*
X-94840Y-171798D01*
X-94840Y-171798D01*
X-94839Y-171798D01*
X-94837Y-171798D01*
X-94835Y-171798D01*
X-94833Y-171798D01*
X-94832Y-171798D01*
X-94832D01*
X-94832Y-171798D01*
X-94830Y-171798D01*
X-94828Y-171798D01*
X-94826Y-171799D01*
X-94825Y-171799D01*
X-94818Y-171800D01*
X-94810Y-171800D01*
X-94803Y-171801D01*
X-94796Y-171802D01*
X-94781Y-171804D01*
X-94780Y-171805D01*
X-94779Y-171805D01*
X-94778Y-171805D01*
X-94777Y-171805D01*
X-94775Y-171805D01*
X-94774Y-171805D01*
X-94773Y-171805D01*
X-94772Y-171805D01*
X-94770Y-171805D01*
X-94593Y-171826D01*
X-94270Y-171973D01*
X-94005Y-172210D01*
X-93825Y-172516D01*
X-93785Y-172689D01*
X-93785D01*
X-89531Y-184034D01*
X-89472Y-184165D01*
X-89426Y-184450D01*
X-89457Y-184737D01*
X-89561Y-185006D01*
X-89646Y-185123D01*
Y-185122D01*
X-89726Y-185226D01*
X-89925Y-185395D01*
X-90154Y-185519D01*
X-90404Y-185594D01*
X-90534Y-185605D01*
X-90621Y-185614D01*
X-90795Y-185603D01*
X-90965Y-185565D01*
X-91127Y-185501D01*
X-91202Y-185457D01*
X-91286Y-185403D01*
X-91434Y-185269D01*
X-91557Y-185111D01*
X-91650Y-184935D01*
X-91681Y-184839D01*
Y-184839D01*
X-91681Y-184840D01*
X-92746Y-181997D01*
X-97074D01*
X-98140Y-184840D01*
X-98182Y-184977D01*
X-98336Y-185221D01*
X-98547Y-185416D01*
X-98802Y-185549D01*
X-98942Y-185581D01*
X-99070Y-185606D01*
X-99331Y-185602D01*
X-99585Y-185545D01*
X-99822Y-185438D01*
X-99927Y-185361D01*
X-99927D01*
X-99997Y-185310D01*
X-100121Y-185188D01*
X-100225Y-185049D01*
X-100304Y-184894D01*
X-100332Y-184812D01*
Y-184812D01*
X-100360Y-184716D01*
X-100384Y-184519D01*
X-100373Y-184319D01*
X-100328Y-184125D01*
X-100289Y-184034D01*
Y-184034D01*
X-100289D01*
X-96033Y-172684D01*
X-95991Y-172501D01*
X-95795Y-172183D01*
X-95507Y-171943D01*
X-95159Y-171807D01*
X-94972Y-171798D01*
Y-171798D01*
X-94971Y-171798D01*
X-94969Y-171798D01*
X-94968Y-171798D01*
X-94966Y-171798D01*
X-94965Y-171798D01*
X-94963Y-171798D01*
X-94962Y-171798D01*
X-94960Y-171798D01*
X-94958Y-171798D01*
X-94950Y-171798D01*
X-94947Y-171798D01*
X-94940Y-171797D01*
X-94932Y-171797D01*
X-94925Y-171797D01*
X-94922Y-171797D01*
X-94917Y-171796D01*
X-94908Y-171796D01*
X-94899Y-171796D01*
X-94890Y-171796D01*
X-94886Y-171796D01*
X-94886Y-171796D01*
X-94886Y-171796D01*
X-94870Y-171797D01*
D02*
G37*
G36*
X-112133Y-171794D02*
X-112128Y-171795D01*
X-112123Y-171795D01*
X-112120Y-171795D01*
X-112120Y-171795D01*
X-112118Y-171795D01*
X-112113Y-171795D01*
X-112107Y-171795D01*
X-112102Y-171796D01*
X-112100Y-171796D01*
X-112097Y-171796D01*
X-112092Y-171796D01*
X-112087Y-171796D01*
X-112081Y-171797D01*
X-112079Y-171797D01*
X-112076Y-171797D01*
X-112071Y-171798D01*
X-112066Y-171798D01*
X-112061Y-171799D01*
X-112058Y-171799D01*
X-112058Y-171799D01*
X-112037Y-171801D01*
X-112017Y-171804D01*
X-111996Y-171807D01*
X-111976Y-171810D01*
X-111935Y-171816D01*
X-109255D01*
X-109235Y-171816D01*
X-109225D01*
X-109206Y-171816D01*
X-109186Y-171817D01*
X-109166Y-171818D01*
X-109157Y-171819D01*
X-108626Y-171830D01*
X-107590Y-172055D01*
X-106617Y-172476D01*
X-105742Y-173075D01*
X-104999Y-173832D01*
X-104415Y-174717D01*
X-104011Y-175697D01*
X-103804Y-176737D01*
X-103802Y-177268D01*
X-103802Y-177268D01*
X-103802Y-180137D01*
X-103802Y-180149D01*
X-103802Y-180174D01*
X-103803Y-180198D01*
X-103804Y-180223D01*
X-103805Y-180235D01*
X-103805D01*
X-103816Y-180765D01*
X-104041Y-181801D01*
X-104461Y-182775D01*
X-105061Y-183650D01*
X-105818Y-184394D01*
X-106703Y-184978D01*
X-107684Y-185382D01*
X-108724Y-185589D01*
X-109255Y-185591D01*
Y-185591D01*
X-109255Y-185591D01*
X-109255D01*
Y-185591D01*
X-112124D01*
X-112137Y-185590D01*
X-112143Y-185590D01*
X-112156Y-185590D01*
X-112169Y-185589D01*
X-112181Y-185589D01*
X-112188Y-185588D01*
Y-185588D01*
X-112195Y-185588D01*
X-112209Y-185587D01*
X-112223Y-185586D01*
X-112237Y-185585D01*
X-112244Y-185585D01*
Y-185585D01*
X-112245Y-185585D01*
X-112246Y-185584D01*
X-112248Y-185584D01*
X-112249Y-185584D01*
X-112250Y-185584D01*
X-112251Y-185584D01*
X-112252Y-185583D01*
X-112254Y-185583D01*
X-112255Y-185583D01*
X-112256Y-185583D01*
X-112262Y-185582D01*
X-112268Y-185581D01*
X-112274Y-185581D01*
X-112280Y-185580D01*
X-112286Y-185580D01*
X-112292Y-185579D01*
X-112294Y-185579D01*
X-112296Y-185578D01*
X-112299Y-185578D01*
X-112302Y-185578D01*
X-112304Y-185577D01*
X-112309Y-185576D01*
X-112314Y-185575D01*
X-112319Y-185574D01*
X-112325Y-185573D01*
X-112330Y-185572D01*
X-112335Y-185571D01*
X-112340Y-185570D01*
X-112345Y-185569D01*
X-112356Y-185567D01*
X-112362Y-185565D01*
X-112368Y-185564D01*
X-112374Y-185563D01*
X-112380Y-185562D01*
X-112386Y-185561D01*
X-112392Y-185560D01*
X-112398Y-185559D01*
X-112404Y-185558D01*
X-112416Y-185556D01*
X-112421Y-185555D01*
X-112426Y-185554D01*
X-112431Y-185553D01*
X-112437Y-185551D01*
X-112442Y-185550D01*
X-112447Y-185549D01*
X-112453Y-185548D01*
X-112458Y-185547D01*
X-112468Y-185545D01*
X-112469Y-185544D01*
X-112471Y-185544D01*
X-112472Y-185543D01*
X-112473Y-185542D01*
X-112474Y-185542D01*
X-112475Y-185541D01*
X-112476Y-185541D01*
X-112478Y-185540D01*
X-112479Y-185539D01*
X-112480Y-185539D01*
X-112480Y-185539D01*
X-112480Y-185539D01*
X-112482Y-185538D01*
X-112483Y-185538D01*
X-112485Y-185537D01*
X-112485Y-185537D01*
X-112486Y-185536D01*
X-112487Y-185536D01*
X-112489Y-185535D01*
X-112490Y-185535D01*
X-112491Y-185535D01*
X-112491D01*
X-112491Y-185535D01*
X-112492Y-185534D01*
X-112493Y-185534D01*
X-112494Y-185533D01*
X-112496Y-185533D01*
X-112496Y-185533D01*
X-112496Y-185533D01*
X-112502Y-185531D01*
X-112507Y-185529D01*
X-112513Y-185527D01*
X-112514Y-185527D01*
X-112517Y-185526D01*
X-112520Y-185525D01*
X-112523Y-185524D01*
X-112524Y-185523D01*
Y-185523D01*
X-112525Y-185523D01*
X-112526Y-185522D01*
X-112528Y-185521D01*
X-112529Y-185520D01*
X-112530Y-185520D01*
Y-185520D01*
X-112530Y-185520D01*
X-112532Y-185519D01*
X-112533Y-185518D01*
X-112534Y-185518D01*
X-112535Y-185517D01*
X-112536Y-185517D01*
X-112537Y-185516D01*
X-112538Y-185516D01*
X-112540Y-185515D01*
X-112540Y-185515D01*
X-112541Y-185515D01*
X-112542Y-185514D01*
X-112544Y-185514D01*
X-112545Y-185513D01*
X-112546Y-185513D01*
X-112546Y-185513D01*
X-112548Y-185512D01*
X-112549Y-185512D01*
X-112550Y-185511D01*
X-112551Y-185511D01*
D01*
X-112556Y-185509D01*
X-112562Y-185507D01*
X-112567Y-185505D01*
X-112569Y-185505D01*
X-112571Y-185504D01*
X-112574Y-185503D01*
X-112577Y-185502D01*
X-112578Y-185501D01*
X-112578Y-185501D01*
X-112578Y-185501D01*
X-112580Y-185500D01*
X-112581Y-185499D01*
X-112582Y-185499D01*
X-112583Y-185498D01*
X-112583Y-185498D01*
X-112583D01*
X-112584Y-185498D01*
X-112585Y-185497D01*
X-112586Y-185497D01*
X-112587Y-185496D01*
X-112588Y-185496D01*
X-112589Y-185495D01*
X-112590Y-185495D01*
X-112591Y-185494D01*
X-112593Y-185494D01*
X-112593Y-185493D01*
X-112594Y-185493D01*
X-112595Y-185492D01*
X-112596Y-185492D01*
X-112598Y-185491D01*
X-112598Y-185491D01*
X-112599Y-185491D01*
X-112600Y-185490D01*
X-112601Y-185490D01*
X-112603Y-185490D01*
X-112603Y-185489D01*
Y-185489D01*
X-112608Y-185487D01*
X-112614Y-185485D01*
X-112619Y-185484D01*
X-112620Y-185483D01*
X-112622Y-185482D01*
X-112625Y-185481D01*
X-112627Y-185480D01*
X-112629Y-185480D01*
X-112629Y-185480D01*
X-112629D01*
X-112645Y-185470D01*
X-112661Y-185460D01*
X-112681Y-185447D01*
X-112696Y-185437D01*
X-112710Y-185427D01*
X-112729Y-185415D01*
X-112744Y-185405D01*
X-112758Y-185395D01*
X-112777Y-185382D01*
X-112792Y-185372D01*
X-112806Y-185362D01*
X-112824Y-185349D01*
X-112838Y-185340D01*
X-112851Y-185330D01*
X-112868Y-185317D01*
X-112868Y-185316D01*
X-112869Y-185315D01*
X-112870Y-185315D01*
X-112872Y-185314D01*
X-112872Y-185313D01*
X-112873Y-185313D01*
X-112874Y-185312D01*
X-112875Y-185311D01*
X-112876Y-185310D01*
X-112877Y-185309D01*
X-112877Y-185309D01*
X-112878Y-185308D01*
X-112879Y-185306D01*
X-112880Y-185305D01*
X-112881Y-185305D01*
X-112881Y-185304D01*
X-112883Y-185303D01*
X-112884Y-185302D01*
X-112885Y-185301D01*
X-112885Y-185300D01*
X-112890Y-185295D01*
X-112894Y-185290D01*
X-112895Y-185290D01*
X-112896Y-185288D01*
X-112897Y-185287D01*
X-112898Y-185286D01*
X-112899Y-185285D01*
X-112898D01*
X-112899Y-185285D01*
X-112899Y-185285D01*
X-112900Y-185284D01*
X-112901Y-185283D01*
X-112902Y-185282D01*
X-112903Y-185281D01*
X-112904Y-185280D01*
X-112906Y-185278D01*
X-112908Y-185276D01*
X-112910Y-185274D01*
X-112911Y-185273D01*
X-112911D01*
X-112912Y-185273D01*
X-112913Y-185272D01*
X-112914Y-185271D01*
X-112915Y-185270D01*
X-112915Y-185270D01*
X-112916Y-185269D01*
X-112917Y-185268D01*
X-112918Y-185267D01*
X-112919Y-185266D01*
X-112920Y-185266D01*
Y-185266D01*
X-112920Y-185265D01*
X-112921Y-185264D01*
X-112922Y-185263D01*
X-112923Y-185262D01*
X-112924Y-185261D01*
X-112924Y-185261D01*
X-112925Y-185259D01*
X-112926Y-185258D01*
X-112927Y-185257D01*
X-112928Y-185257D01*
X-112928Y-185257D01*
X-112932Y-185252D01*
X-112936Y-185247D01*
X-112940Y-185242D01*
X-112940Y-185242D01*
X-112941Y-185240D01*
X-112942Y-185239D01*
X-112943Y-185238D01*
X-112944Y-185238D01*
X-112944D01*
Y-185238D01*
X-112945Y-185236D01*
X-112947Y-185235D01*
X-112949Y-185233D01*
X-112950Y-185231D01*
X-112951Y-185230D01*
X-112952Y-185229D01*
X-112953Y-185229D01*
X-112954Y-185228D01*
X-112955Y-185227D01*
X-112956Y-185226D01*
Y-185226D01*
X-112956Y-185226D01*
X-112957Y-185225D01*
X-112958Y-185224D01*
X-112959Y-185223D01*
X-112960Y-185222D01*
X-112960D01*
X-112960Y-185222D01*
X-112961Y-185221D01*
X-112962Y-185219D01*
X-112963Y-185218D01*
X-112964Y-185218D01*
X-112964Y-185217D01*
X-112965Y-185216D01*
X-112966Y-185215D01*
X-112967Y-185214D01*
X-112968Y-185213D01*
Y-185213D01*
X-112971Y-185208D01*
X-112975Y-185203D01*
X-112976Y-185203D01*
X-112977Y-185201D01*
X-112978Y-185200D01*
X-112979Y-185199D01*
X-112979Y-185199D01*
X-112980Y-185198D01*
X-112981Y-185197D01*
X-112982Y-185196D01*
X-112983Y-185195D01*
X-112983Y-185194D01*
X-112983D01*
X-112984Y-185193D01*
X-112986Y-185191D01*
X-112988Y-185189D01*
X-112990Y-185187D01*
X-112991Y-185186D01*
X-112991Y-185186D01*
X-112992Y-185185D01*
X-112993Y-185184D01*
X-112994Y-185183D01*
X-112994Y-185183D01*
X-112995Y-185182D01*
X-112996Y-185181D01*
X-112997Y-185180D01*
X-112998Y-185179D01*
X-112998Y-185179D01*
X-112999Y-185178D01*
X-113000Y-185177D01*
X-113001Y-185176D01*
X-113001Y-185175D01*
X-113002Y-185174D01*
X-113002Y-185174D01*
X-113002Y-185174D01*
X-113003Y-185173D01*
X-113004Y-185171D01*
X-113005Y-185170D01*
X-113006Y-185170D01*
Y-185170D01*
X-113009Y-185165D01*
X-113013Y-185160D01*
X-113017Y-185155D01*
X-113017Y-185154D01*
X-113018Y-185153D01*
X-113019Y-185152D01*
X-113020Y-185151D01*
X-113020Y-185151D01*
X-113021Y-185150D01*
X-113023Y-185148D01*
X-113024Y-185146D01*
X-113026Y-185144D01*
X-113027Y-185143D01*
X-113027Y-185143D01*
X-113028Y-185143D01*
X-113028Y-185142D01*
X-113029Y-185141D01*
X-113030Y-185140D01*
X-113031Y-185139D01*
X-113031Y-185140D01*
X-113031Y-185139D01*
X-113032Y-185138D01*
X-113033Y-185137D01*
X-113034Y-185136D01*
X-113034Y-185135D01*
X-113034Y-185135D01*
Y-185135D01*
X-113035Y-185135D01*
X-113035Y-185134D01*
X-113036Y-185133D01*
X-113037Y-185131D01*
X-113038Y-185131D01*
Y-185131D01*
X-113038Y-185131D01*
X-113038Y-185130D01*
X-113039Y-185129D01*
X-113040Y-185128D01*
X-113041Y-185127D01*
X-113041Y-185126D01*
X-113041Y-185126D01*
X-113041D01*
X-113045Y-185121D01*
X-113048Y-185116D01*
X-113051Y-185112D01*
X-113052Y-185111D01*
X-113053Y-185110D01*
X-113053Y-185109D01*
X-113054Y-185108D01*
X-113055Y-185107D01*
X-113055Y-185106D01*
X-113057Y-185104D01*
X-113059Y-185102D01*
X-113060Y-185100D01*
X-113061Y-185100D01*
X-113062Y-185099D01*
X-113062Y-185098D01*
X-113063Y-185097D01*
X-113064Y-185096D01*
X-113064Y-185096D01*
X-113064D01*
X-113065Y-185096D01*
X-113066Y-185095D01*
X-113067Y-185093D01*
X-113067Y-185092D01*
X-113068Y-185092D01*
X-113068Y-185092D01*
X-113068Y-185091D01*
X-113069Y-185090D01*
X-113070Y-185089D01*
X-113070Y-185088D01*
X-113071Y-185087D01*
Y-185087D01*
X-113071Y-185087D01*
X-113072Y-185086D01*
X-113073Y-185084D01*
X-113074Y-185083D01*
X-113074Y-185083D01*
X-113074D01*
X-113077Y-185078D01*
X-113080Y-185073D01*
X-113083Y-185068D01*
X-113084Y-185068D01*
X-113084Y-185067D01*
X-113085Y-185065D01*
X-113086Y-185064D01*
X-113086Y-185064D01*
X-113086D01*
X-113087Y-185063D01*
X-113089Y-185061D01*
X-113090Y-185059D01*
X-113092Y-185057D01*
X-113092Y-185056D01*
X-113093Y-185055D01*
X-113094Y-185054D01*
X-113095Y-185052D01*
X-113095Y-185051D01*
X-113096Y-185050D01*
X-113096Y-185050D01*
X-113096Y-185049D01*
X-113097Y-185048D01*
X-113098Y-185046D01*
X-113098Y-185045D01*
X-113099Y-185044D01*
X-113099D01*
X-113099Y-185044D01*
X-113100Y-185042D01*
X-113101Y-185041D01*
X-113102Y-185040D01*
X-113102Y-185039D01*
Y-185039D01*
X-113105Y-185034D01*
X-113108Y-185029D01*
X-113111Y-185024D01*
X-113112Y-185023D01*
X-113112Y-185022D01*
X-113113Y-185021D01*
X-113114Y-185020D01*
X-113114Y-185019D01*
X-113116Y-185017D01*
X-113118Y-185013D01*
X-113120Y-185008D01*
X-113122Y-185004D01*
X-113123Y-185002D01*
X-113123D01*
X-113124Y-185001D01*
X-113124Y-185000D01*
X-113125Y-184998D01*
X-113126Y-184996D01*
X-113126Y-184996D01*
Y-184996D01*
X-113126Y-184996D01*
X-113126Y-184995D01*
X-113127Y-184993D01*
X-113127Y-184992D01*
X-113128Y-184991D01*
X-113129Y-184990D01*
X-113129Y-184990D01*
X-113129Y-184989D01*
X-113130Y-184988D01*
X-113130Y-184987D01*
X-113131Y-184985D01*
X-113131Y-184985D01*
X-113131Y-184985D01*
X-113134Y-184979D01*
X-113136Y-184975D01*
X-113139Y-184970D01*
X-113139Y-184969D01*
X-113140Y-184968D01*
X-113140Y-184967D01*
X-113141Y-184965D01*
X-113141Y-184965D01*
X-113142Y-184963D01*
X-113144Y-184958D01*
X-113146Y-184954D01*
X-113148Y-184950D01*
X-113149Y-184947D01*
X-113149D01*
X-113149Y-184947D01*
X-113150Y-184945D01*
X-113150Y-184944D01*
X-113151Y-184942D01*
X-113151Y-184941D01*
Y-184941D01*
X-113152Y-184941D01*
X-113152Y-184939D01*
X-113153Y-184938D01*
X-113154Y-184936D01*
X-113154Y-184936D01*
X-113154Y-184935D01*
X-113155Y-184934D01*
X-113156Y-184932D01*
X-113156Y-184931D01*
X-113157Y-184930D01*
X-113157D01*
X-113159Y-184925D01*
X-113162Y-184920D01*
X-113164Y-184915D01*
X-113165Y-184915D01*
X-113165Y-184914D01*
X-113166Y-184912D01*
X-113167Y-184911D01*
X-113167Y-184910D01*
X-113167D01*
X-113168Y-184908D01*
X-113170Y-184904D01*
X-113172Y-184900D01*
X-113173Y-184895D01*
X-113174Y-184893D01*
X-113174Y-184893D01*
X-113174Y-184892D01*
X-113175Y-184891D01*
X-113176Y-184889D01*
X-113176Y-184888D01*
X-113176Y-184887D01*
X-113176D01*
X-113177Y-184886D01*
X-113177Y-184885D01*
X-113178Y-184883D01*
X-113179Y-184882D01*
X-113179Y-184881D01*
X-113179Y-184881D01*
X-113180Y-184879D01*
X-113180Y-184878D01*
X-113181Y-184877D01*
X-113181Y-184876D01*
X-113181Y-184876D01*
X-113183Y-184871D01*
X-113185Y-184866D01*
X-113187Y-184861D01*
X-113188Y-184860D01*
X-113188Y-184859D01*
X-113189Y-184858D01*
X-113189Y-184857D01*
X-113189Y-184856D01*
X-113190Y-184854D01*
X-113192Y-184850D01*
X-113194Y-184845D01*
X-113195Y-184841D01*
X-113196Y-184839D01*
X-113196Y-184838D01*
X-113196Y-184837D01*
X-113197Y-184835D01*
X-113197Y-184834D01*
X-113198Y-184833D01*
X-113198Y-184832D01*
X-113199Y-184830D01*
X-113199Y-184829D01*
X-113200Y-184828D01*
X-113200Y-184827D01*
X-113200Y-184827D01*
X-113202Y-184822D01*
X-113204Y-184817D01*
X-113206Y-184812D01*
X-113208Y-184807D01*
X-113208Y-184806D01*
X-113208Y-184805D01*
X-113209Y-184804D01*
X-113209Y-184802D01*
X-113209Y-184802D01*
X-113210Y-184800D01*
X-113212Y-184795D01*
X-113213Y-184791D01*
X-113214Y-184787D01*
X-113215Y-184785D01*
X-113215D01*
X-113215D01*
D01*
X-113215Y-184785D01*
X-113215Y-184784D01*
X-113216Y-184782D01*
X-113216Y-184781D01*
X-113216Y-184779D01*
X-113217Y-184778D01*
X-113217D01*
Y-184778D01*
X-113218Y-184773D01*
X-113220Y-184767D01*
X-113222Y-184762D01*
X-113223Y-184757D01*
X-113225Y-184753D01*
X-113226Y-184748D01*
X-113227Y-184745D01*
X-113228Y-184741D01*
X-113229Y-184737D01*
X-113230Y-184732D01*
X-113231Y-184730D01*
X-113231Y-184729D01*
X-113231Y-184728D01*
X-113232Y-184726D01*
X-113232Y-184725D01*
X-113232Y-184724D01*
X-113232Y-184724D01*
X-113234Y-184718D01*
X-113235Y-184713D01*
X-113237Y-184708D01*
X-113238Y-184703D01*
X-113240Y-184698D01*
X-113241Y-184693D01*
X-113241Y-184693D01*
X-113242Y-184691D01*
X-113243Y-184687D01*
X-113244Y-184683D01*
X-113245Y-184678D01*
X-113245Y-184676D01*
X-113246Y-184670D01*
X-113247Y-184664D01*
X-113249Y-184659D01*
X-113250Y-184654D01*
X-113251Y-184649D01*
X-113252Y-184644D01*
X-113252Y-184641D01*
X-113253Y-184636D01*
X-113254Y-184630D01*
X-113255Y-184625D01*
X-113255Y-184622D01*
X-113255Y-184622D01*
X-113256Y-184615D01*
X-113257Y-184610D01*
X-113258Y-184604D01*
X-113259Y-184599D01*
X-113260Y-184594D01*
X-113261Y-184590D01*
X-113261Y-184587D01*
X-113262Y-184581D01*
X-113263Y-184576D01*
X-113264Y-184570D01*
X-113264Y-184567D01*
X-113265Y-184561D01*
X-113265Y-184555D01*
X-113266Y-184550D01*
X-113266Y-184545D01*
X-113267Y-184540D01*
X-113267Y-184537D01*
X-113267Y-184530D01*
X-113268Y-184523D01*
X-113268Y-184517D01*
X-113268Y-184513D01*
X-113268D01*
X-113269Y-184507D01*
X-113269Y-184501D01*
X-113270Y-184496D01*
X-113270Y-184491D01*
X-113270Y-184486D01*
X-113270Y-184484D01*
X-113271Y-184480D01*
X-113271Y-184476D01*
X-113271Y-184473D01*
X-113271Y-184471D01*
Y-184471D01*
X-113271D01*
X-113271Y-184459D01*
X-113272Y-184451D01*
X-113272Y-184449D01*
X-113272Y-184447D01*
X-113272Y-184445D01*
X-113272Y-184443D01*
X-113272Y-184437D01*
X-113272Y-173179D01*
X-113303Y-173018D01*
X-113273Y-172693D01*
X-113154Y-172389D01*
X-112955Y-172131D01*
X-112823Y-172034D01*
X-112823Y-172034D01*
X-112751Y-171978D01*
X-112589Y-171890D01*
X-112415Y-171829D01*
X-112233Y-171797D01*
X-112141Y-171795D01*
X-112141Y-171795D01*
Y-171794D01*
X-112139D01*
X-112133Y-171794D01*
D02*
G37*
G36*
X124698Y-100302D02*
X125525Y-100855D01*
X126500Y-101049D01*
X159376D01*
Y-164922D01*
X159852Y-166070D01*
X161000Y-166545D01*
X170269D01*
X170707Y-166364D01*
X171171Y-166272D01*
X171359Y-166146D01*
X171670Y-166084D01*
X181330D01*
X181641Y-166146D01*
X181769Y-166231D01*
X181854Y-166359D01*
X181916Y-166670D01*
Y-171330D01*
X181854Y-171641D01*
X181589Y-172037D01*
X181507Y-172452D01*
X181319Y-172832D01*
X180870Y-173574D01*
X180291Y-173961D01*
X171510D01*
X170726Y-174117D01*
X170061Y-174561D01*
X169617Y-175226D01*
X169461Y-176010D01*
Y-180990D01*
X169617Y-181774D01*
X170061Y-182439D01*
X170192Y-182526D01*
Y-183974D01*
X170061Y-184061D01*
X169617Y-184726D01*
X169472Y-185451D01*
X128056D01*
X127180Y-184575D01*
X127706Y-183305D01*
X143687D01*
X144785Y-183087D01*
X145715Y-182465D01*
X146337Y-181535D01*
X146555Y-180438D01*
Y-172563D01*
X146337Y-171465D01*
X145715Y-170535D01*
X144785Y-169913D01*
X143687Y-169695D01*
X127084D01*
X125549Y-168160D01*
Y-152815D01*
X125549Y-152815D01*
X126815Y-151549D01*
X127500Y-149895D01*
Y-148105D01*
X126815Y-146451D01*
X125549Y-145185D01*
X123895Y-144500D01*
X122105D01*
X120451Y-145185D01*
X119819Y-145817D01*
X118549Y-145291D01*
Y-95813D01*
X119722Y-95327D01*
X124698Y-100302D01*
D02*
G37*
G36*
X-112551Y-185511D02*
X-112551Y-185511D01*
X-112551Y-185511D01*
X-112551D01*
D02*
G37*
G36*
X54451Y-199944D02*
X42944Y-211451D01*
X14056D01*
X1277Y-198672D01*
X1763Y-197499D01*
X5023D01*
X5998Y-197305D01*
X6825Y-196752D01*
X8802Y-194775D01*
X9328Y-193989D01*
X9367Y-193940D01*
X9871Y-193615D01*
X10643Y-193341D01*
X11375Y-193487D01*
X13625D01*
X14357Y-193341D01*
X15000Y-192941D01*
X15643Y-193341D01*
X16375Y-193487D01*
X18625D01*
X19357Y-193341D01*
X19977Y-192927D01*
X20391Y-192306D01*
X20537Y-191575D01*
Y-185812D01*
X20549Y-185750D01*
Y-179292D01*
X21125D01*
X21954Y-179127D01*
X22657Y-178657D01*
X23127Y-177954D01*
X23292Y-177125D01*
Y-172875D01*
X23127Y-172046D01*
X22657Y-171343D01*
X21954Y-170873D01*
X21125Y-170708D01*
X17375D01*
X16546Y-170873D01*
X15843Y-171343D01*
X15373Y-172046D01*
X15208Y-172875D01*
Y-177125D01*
X15373Y-177954D01*
X15451Y-178070D01*
Y-178363D01*
X14643Y-178950D01*
X14181Y-179124D01*
X13625Y-179013D01*
X11375D01*
X10643Y-179159D01*
X10000Y-179559D01*
X9357Y-179159D01*
X8625Y-179013D01*
X6375D01*
X5643Y-179159D01*
X4365Y-178556D01*
X4328Y-178511D01*
X3802Y-177725D01*
X1825Y-175748D01*
X998Y-175195D01*
X23Y-175001D01*
X-5023D01*
X-5998Y-175195D01*
X-6825Y-175748D01*
X-8802Y-177725D01*
X-9328Y-178511D01*
X-9357Y-178547D01*
X-9380Y-178552D01*
X-10620D01*
X-10643Y-178547D01*
X-10672Y-178511D01*
X-11198Y-177725D01*
X-13175Y-175748D01*
X-14002Y-175195D01*
X-14977Y-175001D01*
X-15208D01*
Y-172875D01*
X-15373Y-172046D01*
X-15843Y-171343D01*
X-16546Y-170873D01*
X-17375Y-170708D01*
X-21125D01*
X-21954Y-170873D01*
X-22657Y-171343D01*
X-23127Y-172046D01*
X-23292Y-172875D01*
Y-177125D01*
X-23127Y-177954D01*
X-22657Y-178657D01*
X-21954Y-179127D01*
X-21294Y-179258D01*
X-20966Y-179598D01*
X-20464Y-180562D01*
X-20537Y-180925D01*
Y-191575D01*
X-20391Y-192306D01*
X-19977Y-192927D01*
X-19357Y-193341D01*
X-18625Y-193487D01*
X-16375D01*
X-15643Y-193341D01*
X-15000Y-192941D01*
X-14357Y-193341D01*
X-13625Y-193487D01*
X-11375D01*
X-10819Y-193376D01*
X-10357Y-193550D01*
X-9549Y-194137D01*
Y-199657D01*
X-9355Y-200632D01*
X-8802Y-201459D01*
X9541Y-219802D01*
X10368Y-220355D01*
X11343Y-220549D01*
X45657D01*
X46632Y-220355D01*
X47459Y-219802D01*
X58827Y-208435D01*
X60000Y-208921D01*
Y-243377D01*
X48467D01*
X48050Y-242106D01*
X48878Y-241028D01*
X49533Y-239447D01*
X49756Y-237750D01*
Y-229750D01*
X49533Y-228053D01*
X48878Y-226472D01*
X47836Y-225114D01*
X46478Y-224072D01*
X44897Y-223417D01*
X43200Y-223194D01*
X41503Y-223417D01*
X39922Y-224072D01*
X38564Y-225114D01*
X37522Y-226472D01*
X36867Y-228053D01*
X36644Y-229750D01*
Y-237750D01*
X36867Y-239447D01*
X37522Y-241028D01*
X38350Y-242106D01*
X37933Y-243377D01*
X-37933D01*
X-38350Y-242106D01*
X-37522Y-241028D01*
X-36867Y-239447D01*
X-36644Y-237750D01*
Y-229750D01*
X-36867Y-228053D01*
X-37522Y-226472D01*
X-38564Y-225114D01*
X-39922Y-224072D01*
X-41503Y-223417D01*
X-43200Y-223194D01*
X-44897Y-223417D01*
X-46478Y-224072D01*
X-47836Y-225114D01*
X-48878Y-226472D01*
X-49533Y-228053D01*
X-49756Y-229750D01*
Y-237750D01*
X-49533Y-239447D01*
X-48878Y-241028D01*
X-48050Y-242106D01*
X-48467Y-243377D01*
X-60000D01*
Y-115624D01*
X54451D01*
Y-199944D01*
D02*
G37*
G36*
X-79395Y-193331D02*
X-78500Y-193451D01*
X-77629Y-193686D01*
X-76796Y-194032D01*
X-76015Y-194484D01*
X-75300Y-195034D01*
X-74662Y-195672D01*
X-74112Y-196388D01*
X-73661Y-197169D01*
X-73315Y-198002D01*
X-73080Y-198873D01*
X-72960Y-199767D01*
X-72959Y-200218D01*
D01*
Y-200218D01*
Y-200218D01*
X-72960Y-200669D01*
X-73080Y-201564D01*
X-73315Y-202435D01*
X-73661Y-203268D01*
X-74112Y-204049D01*
X-74662Y-204765D01*
X-75300Y-205403D01*
X-76015Y-205952D01*
X-76796Y-206404D01*
X-77629Y-206751D01*
X-78500Y-206986D01*
X-79395Y-207106D01*
X-79846Y-207107D01*
X-79846D01*
X-79846D01*
X-79846D01*
X-80297Y-207106D01*
X-81191Y-206986D01*
X-82063Y-206751D01*
X-82896Y-206404D01*
X-83677Y-205952D01*
X-84392Y-205403D01*
X-85030Y-204765D01*
X-85580Y-204049D01*
X-86031Y-203268D01*
X-86377Y-202435D01*
X-86612Y-201563D01*
X-86732Y-200669D01*
X-86733Y-200218D01*
X-86733Y-200218D01*
X-86733Y-200218D01*
Y-200218D01*
X-86733Y-200218D01*
X-86732Y-199767D01*
X-86612Y-198873D01*
X-86377Y-198002D01*
X-86031Y-197169D01*
X-85579Y-196388D01*
X-85030Y-195672D01*
X-84392Y-195034D01*
X-83676Y-194484D01*
X-82895Y-194032D01*
X-82062Y-193686D01*
X-81191Y-193451D01*
X-80297Y-193331D01*
X-79846Y-193330D01*
X-79395Y-193331D01*
D02*
G37*
G36*
X-101796Y-193487D02*
X-101467Y-193816D01*
X-101291Y-194248D01*
X-101295Y-194480D01*
X-101295Y-194480D01*
Y-198074D01*
X-94604Y-193614D01*
X-94604D01*
X-94604Y-193614D01*
X-94527Y-193544D01*
X-94351Y-193434D01*
X-94158Y-193358D01*
X-93955Y-193318D01*
X-93851Y-193316D01*
Y-193316D01*
X-93776Y-193316D01*
X-93626Y-193334D01*
X-93479Y-193371D01*
X-93339Y-193427D01*
X-93273Y-193464D01*
X-93118Y-193548D01*
X-92874Y-193802D01*
X-92717Y-194117D01*
X-92661Y-194465D01*
X-92687Y-194639D01*
Y-199071D01*
X-90606D01*
Y-199071D01*
X-90462Y-199061D01*
X-90178Y-199118D01*
X-89918Y-199247D01*
X-89702Y-199439D01*
X-89623Y-199560D01*
X-89623Y-199560D01*
X-89554Y-199671D01*
X-89465Y-199917D01*
X-89429Y-200177D01*
X-89447Y-200438D01*
X-89482Y-200564D01*
X-89482Y-200564D01*
X-89505Y-200648D01*
X-89576Y-200808D01*
X-89671Y-200954D01*
X-89789Y-201083D01*
X-89857Y-201137D01*
Y-201138D01*
X-89937Y-201198D01*
X-90115Y-201289D01*
X-90307Y-201347D01*
X-90506Y-201372D01*
X-90606Y-201367D01*
X-92687Y-201367D01*
Y-205787D01*
Y-205787D01*
X-92661Y-205944D01*
X-92698Y-206260D01*
X-92820Y-206553D01*
X-93017Y-206803D01*
X-93146Y-206897D01*
Y-206897D01*
X-93308Y-207019D01*
X-93699Y-207136D01*
X-94105Y-207113D01*
X-94479Y-206950D01*
X-94626Y-206810D01*
X-101295Y-202364D01*
Y-205958D01*
X-101295Y-205958D01*
X-101288Y-206101D01*
X-101348Y-206380D01*
X-101479Y-206633D01*
X-101670Y-206845D01*
X-101790Y-206922D01*
Y-206922D01*
X-101863Y-206967D01*
X-102020Y-207037D01*
X-102186Y-207083D01*
X-102356Y-207106D01*
X-102442Y-207106D01*
Y-207106D01*
X-102673Y-207115D01*
X-103104Y-206947D01*
X-103432Y-206621D01*
X-103600Y-206190D01*
X-103590Y-205958D01*
Y-194480D01*
X-103594Y-194252D01*
X-103425Y-193828D01*
X-103107Y-193501D01*
X-102688Y-193320D01*
X-102460Y-193316D01*
X-102227Y-193313D01*
X-101796Y-193487D01*
D02*
G37*
G36*
X107451Y-88556D02*
Y-144685D01*
X107451Y-144685D01*
X106185Y-145951D01*
X105500Y-147605D01*
Y-149395D01*
X106185Y-151049D01*
X107451Y-152315D01*
X109105Y-153000D01*
X110895D01*
X112181Y-152467D01*
X113451Y-153072D01*
Y-177000D01*
X113645Y-177976D01*
X114198Y-178802D01*
X125198Y-189802D01*
X126025Y-190355D01*
X127000Y-190549D01*
X159376D01*
Y-243377D01*
X61624D01*
Y-240056D01*
X73355D01*
X75052Y-239833D01*
X75731Y-239551D01*
X76730D01*
X77754Y-239348D01*
X78622Y-238768D01*
X79203Y-237899D01*
X79406Y-236875D01*
Y-235876D01*
X79688Y-235197D01*
X79911Y-233500D01*
X79688Y-231803D01*
X79406Y-231124D01*
Y-230125D01*
X79203Y-229101D01*
X78622Y-228232D01*
X77754Y-227652D01*
X76730Y-227449D01*
X75731D01*
X75052Y-227167D01*
X73355Y-226944D01*
X61624D01*
Y-208921D01*
X61500Y-208623D01*
Y-208300D01*
X61272Y-208071D01*
X61148Y-207773D01*
X61000Y-207712D01*
Y-206262D01*
X62802Y-204459D01*
X63355Y-203632D01*
X63549Y-202657D01*
Y-58500D01*
X63355Y-57524D01*
X62802Y-56698D01*
X61000Y-54895D01*
Y-43764D01*
X62173Y-43278D01*
X107451Y-88556D01*
D02*
G37*
%LPC*%
G36*
X143687Y203805D02*
X126313D01*
X125215Y203587D01*
X124285Y202965D01*
X123663Y202035D01*
X123445Y200938D01*
Y193063D01*
X123663Y191965D01*
X124285Y191035D01*
X125215Y190413D01*
X126313Y190195D01*
X129966D01*
X130500Y189395D01*
Y187605D01*
X131185Y185951D01*
X132451Y184685D01*
X134105Y184000D01*
X135895D01*
X137549Y184685D01*
X138815Y185951D01*
X139500Y187605D01*
Y189395D01*
X140035Y190195D01*
X143687D01*
X144785Y190413D01*
X145715Y191035D01*
X146337Y191965D01*
X146555Y193063D01*
Y200938D01*
X146337Y202035D01*
X145715Y202965D01*
X144785Y203587D01*
X143687Y203805D01*
D02*
G37*
G36*
X895Y209200D02*
X-895D01*
X-2549Y208515D01*
X-3815Y207249D01*
X-4500Y205595D01*
Y203805D01*
X-4078Y202787D01*
Y202263D01*
X-4569Y201528D01*
X-4744Y200650D01*
Y195750D01*
X-4569Y194872D01*
X-4078Y194137D01*
Y192431D01*
X-4383Y191974D01*
X-4539Y191190D01*
Y181210D01*
X-4383Y180426D01*
X-3939Y179761D01*
X-3274Y179317D01*
X-2490Y179161D01*
X2490D01*
X3274Y179317D01*
X3939Y179761D01*
X4383Y180426D01*
X4539Y181210D01*
Y191190D01*
X4383Y191974D01*
X4078Y192431D01*
Y194736D01*
X4169Y194872D01*
X4344Y195750D01*
Y200650D01*
X4169Y201528D01*
X4078Y201664D01*
Y202787D01*
X4500Y203805D01*
Y205595D01*
X3815Y207249D01*
X2549Y208515D01*
X895Y209200D01*
D02*
G37*
G36*
X227310Y171561D02*
X207689D01*
Y156486D01*
X227310D01*
Y171561D01*
D02*
G37*
G36*
X204310D02*
X184689D01*
Y156486D01*
X204310D01*
Y171561D01*
D02*
G37*
G36*
X143687Y159805D02*
X126313D01*
X125215Y159587D01*
X124285Y158965D01*
X123663Y158035D01*
X123445Y156938D01*
Y151492D01*
X112943D01*
X111967Y151298D01*
X111141Y150745D01*
X72895Y112500D01*
X72895Y112500D01*
X71105D01*
X69451Y111815D01*
X68185Y110549D01*
X67500Y108895D01*
Y107105D01*
X68185Y105451D01*
X69451Y104185D01*
X71105Y103500D01*
X72895D01*
X74549Y104185D01*
X75815Y105451D01*
X76500Y107105D01*
Y108895D01*
X76500Y108895D01*
X113999Y146394D01*
X125312D01*
X126313Y146195D01*
X143687D01*
X144785Y146413D01*
X145715Y147035D01*
X146337Y147965D01*
X146555Y149062D01*
Y156938D01*
X146337Y158035D01*
X145715Y158965D01*
X144785Y159587D01*
X143687Y159805D01*
D02*
G37*
G36*
X227310Y144514D02*
X207689D01*
Y129439D01*
X227310D01*
Y144514D01*
D02*
G37*
G36*
X204310D02*
X184689D01*
Y129439D01*
X204310D01*
Y144514D01*
D02*
G37*
G36*
X332800Y197794D02*
X328300D01*
X327422Y197619D01*
X326678Y197122D01*
X326181Y196378D01*
X326006Y195500D01*
Y181500D01*
X326181Y180622D01*
X326678Y179878D01*
X327422Y179380D01*
X328300Y179206D01*
X332800D01*
X333678Y179380D01*
X334422Y179878D01*
X334919Y180622D01*
X335094Y181500D01*
Y195500D01*
X334919Y196378D01*
X334422Y197122D01*
X333678Y197619D01*
X332800Y197794D01*
D02*
G37*
G36*
X379860Y166390D02*
X376139D01*
X372490Y165664D01*
X369052Y164240D01*
X365958Y162173D01*
X365880Y162095D01*
X378000Y149975D01*
X390120Y162095D01*
X390042Y162173D01*
X386948Y164240D01*
X383510Y165664D01*
X379860Y166390D01*
D02*
G37*
G36*
X392595Y159620D02*
X380475Y147500D01*
X392595Y135380D01*
X392673Y135458D01*
X394740Y138552D01*
X396164Y141990D01*
X396890Y145640D01*
Y149361D01*
X396164Y153010D01*
X394740Y156448D01*
X392673Y159542D01*
X392595Y159620D01*
D02*
G37*
G36*
X363405Y159620D02*
X363327Y159542D01*
X361260Y156448D01*
X359836Y153010D01*
X359110Y149361D01*
Y145640D01*
X359836Y141990D01*
X361260Y138552D01*
X363327Y135458D01*
X363405Y135380D01*
X375525Y147500D01*
X363405Y159620D01*
D02*
G37*
G36*
X378000Y145025D02*
X365880Y132905D01*
X365958Y132827D01*
X369052Y130760D01*
X372490Y129336D01*
X376139Y128610D01*
X379860D01*
X383510Y129336D01*
X386948Y130760D01*
X390042Y132827D01*
X390120Y132905D01*
X378000Y145025D01*
D02*
G37*
G36*
X379860Y221390D02*
X376139D01*
X372490Y220664D01*
X369052Y219240D01*
X365958Y217173D01*
X365880Y217095D01*
X378000Y204975D01*
X390120Y217095D01*
X390042Y217173D01*
X386948Y219240D01*
X383510Y220664D01*
X379860Y221390D01*
D02*
G37*
G36*
X392595Y214620D02*
X380475Y202500D01*
X392595Y190380D01*
X392673Y190458D01*
X394740Y193552D01*
X396164Y196990D01*
X396890Y200640D01*
Y204361D01*
X396164Y208010D01*
X394740Y211448D01*
X392673Y214542D01*
X392595Y214620D01*
D02*
G37*
G36*
X222250Y105544D02*
X213750D01*
X212872Y105369D01*
X212128Y104872D01*
X211631Y104128D01*
X211456Y103250D01*
Y98750D01*
X211631Y97872D01*
X211681Y97796D01*
Y94915D01*
X211373Y94454D01*
X211208Y93625D01*
Y89375D01*
X211373Y88546D01*
X211843Y87843D01*
X212399Y87472D01*
X212403Y87441D01*
X211812Y86336D01*
X211416Y86500D01*
X209843D01*
X209615Y86621D01*
X209402Y87190D01*
X209230Y87953D01*
X209627Y88546D01*
X209792Y89375D01*
Y93625D01*
X209627Y94454D01*
X209319Y94915D01*
Y97629D01*
X209383Y97726D01*
X209539Y98510D01*
Y103490D01*
X209383Y104274D01*
X208939Y104939D01*
X208274Y105383D01*
X207490Y105539D01*
X197510D01*
X196726Y105383D01*
X196061Y104939D01*
X195617Y104274D01*
X195461Y103490D01*
Y98510D01*
X195617Y97726D01*
X196061Y97061D01*
X196726Y96617D01*
X197510Y96461D01*
X202181D01*
Y94915D01*
X201873Y94454D01*
X201708Y93625D01*
Y89375D01*
X201873Y88546D01*
X202343Y87843D01*
X202393Y87809D01*
X202008Y86539D01*
X197510D01*
X196726Y86383D01*
X196061Y85939D01*
X195617Y85274D01*
X195461Y84490D01*
Y79510D01*
X195617Y78726D01*
X196061Y78061D01*
X196726Y77617D01*
X197510Y77461D01*
X207490D01*
X208274Y77617D01*
X208684Y77890D01*
X209626Y77500D01*
X211416D01*
X212434Y77922D01*
X212437D01*
X212872Y77631D01*
X213750Y77456D01*
X222250D01*
X223128Y77631D01*
X223872Y78128D01*
X224369Y78872D01*
X224544Y79750D01*
Y84250D01*
X224369Y85128D01*
X223872Y85872D01*
X223128Y86369D01*
X222250Y86544D01*
X218999D01*
X218614Y87814D01*
X218657Y87843D01*
X219127Y88546D01*
X219292Y89375D01*
Y93625D01*
X219127Y94454D01*
X218819Y94915D01*
Y96456D01*
X222250D01*
X223128Y96631D01*
X223872Y97128D01*
X224369Y97872D01*
X224544Y98750D01*
Y103250D01*
X224369Y104128D01*
X223872Y104872D01*
X223128Y105369D01*
X222250Y105544D01*
D02*
G37*
G36*
X413000Y103078D02*
X358000D01*
X356439Y102768D01*
X355116Y101884D01*
X354232Y100561D01*
X353922Y99000D01*
Y84000D01*
X354232Y82439D01*
X355116Y81116D01*
X356439Y80232D01*
X358000Y79922D01*
X413000D01*
X414561Y80232D01*
X415884Y81116D01*
X416768Y82439D01*
X417078Y84000D01*
Y99000D01*
X416768Y100561D01*
X415884Y101884D01*
X414561Y102768D01*
X413000Y103078D01*
D02*
G37*
G36*
X310500Y103124D02*
X241000D01*
X239852Y102648D01*
X235852Y98648D01*
X235376Y97500D01*
Y86000D01*
X235852Y84852D01*
X241352Y79352D01*
X242500Y78876D01*
X310500D01*
X311648Y79352D01*
X312124Y80500D01*
Y101500D01*
X311648Y102648D01*
X310500Y103124D01*
D02*
G37*
G36*
X413000Y63078D02*
X358000D01*
X356439Y62768D01*
X355116Y61884D01*
X354232Y60561D01*
X353922Y59000D01*
Y44000D01*
X354232Y42439D01*
X355116Y41116D01*
X356439Y40232D01*
X358000Y39922D01*
X413000D01*
X414561Y40232D01*
X415884Y41116D01*
X416768Y42439D01*
X417078Y44000D01*
Y59000D01*
X416768Y60561D01*
X415884Y61884D01*
X414561Y62768D01*
X413000Y63078D01*
D02*
G37*
G36*
X300500Y74624D02*
X196500D01*
X195352Y74148D01*
X194876Y73000D01*
Y54000D01*
X195352Y52852D01*
X207852Y40352D01*
X209000Y39876D01*
X212917D01*
X213596Y38606D01*
X213362Y38256D01*
X213013Y36500D01*
X213197Y35570D01*
Y35508D01*
X213221Y35451D01*
X213362Y34744D01*
X213762Y34145D01*
X213883Y33854D01*
X214105Y33631D01*
X214356Y33256D01*
X214453Y33159D01*
X214695Y32997D01*
Y32562D01*
X214913Y31465D01*
X215535Y30535D01*
X216465Y29913D01*
X217563Y29695D01*
X241437D01*
X242535Y29913D01*
X243465Y30535D01*
X244087Y31465D01*
X244305Y32562D01*
Y39876D01*
X310500D01*
X311648Y40352D01*
X312124Y41500D01*
Y63000D01*
X311648Y64148D01*
X301648Y74148D01*
X300500Y74624D01*
D02*
G37*
G36*
X222250Y15544D02*
X213750D01*
X212872Y15369D01*
X212128Y14872D01*
X211631Y14128D01*
X211456Y13250D01*
Y8750D01*
X211631Y7872D01*
X211681Y7796D01*
Y4915D01*
X211373Y4454D01*
X211208Y3625D01*
Y-625D01*
X211373Y-1454D01*
X211843Y-2157D01*
X212399Y-2528D01*
X212403Y-2559D01*
X211812Y-3664D01*
X211416Y-3500D01*
X209843D01*
X209615Y-3379D01*
X209402Y-2810D01*
X209230Y-2047D01*
X209627Y-1454D01*
X209792Y-625D01*
Y3625D01*
X209627Y4454D01*
X209319Y4915D01*
Y7629D01*
X209383Y7726D01*
X209539Y8510D01*
Y13490D01*
X209383Y14274D01*
X208939Y14939D01*
X208274Y15383D01*
X207490Y15539D01*
X197510D01*
X196726Y15383D01*
X196061Y14939D01*
X195617Y14274D01*
X195461Y13490D01*
Y8510D01*
X195617Y7726D01*
X196061Y7061D01*
X196726Y6617D01*
X197510Y6461D01*
X202181D01*
Y4915D01*
X201873Y4454D01*
X201708Y3625D01*
Y-625D01*
X201873Y-1454D01*
X202343Y-2157D01*
X202393Y-2191D01*
X202008Y-3461D01*
X197510D01*
X196726Y-3617D01*
X196061Y-4061D01*
X195617Y-4726D01*
X195461Y-5510D01*
Y-10490D01*
X195617Y-11274D01*
X196061Y-11939D01*
X196726Y-12383D01*
X197510Y-12539D01*
X207490D01*
X208274Y-12383D01*
X208684Y-12110D01*
X209626Y-12500D01*
X211416D01*
X212434Y-12078D01*
X212437D01*
X212872Y-12369D01*
X213750Y-12544D01*
X222250D01*
X223128Y-12369D01*
X223872Y-11872D01*
X224369Y-11128D01*
X224544Y-10250D01*
Y-5750D01*
X224369Y-4872D01*
X223872Y-4128D01*
X223128Y-3631D01*
X222250Y-3456D01*
X218999D01*
X218614Y-2186D01*
X218657Y-2157D01*
X219127Y-1454D01*
X219292Y-625D01*
Y3625D01*
X219127Y4454D01*
X218819Y4915D01*
Y6456D01*
X222250D01*
X223128Y6631D01*
X223872Y7128D01*
X224369Y7872D01*
X224544Y8750D01*
Y13250D01*
X224369Y14128D01*
X223872Y14872D01*
X223128Y15369D01*
X222250Y15544D01*
D02*
G37*
G36*
X413000Y13078D02*
X358000D01*
X356439Y12768D01*
X355116Y11884D01*
X354232Y10561D01*
X353922Y9000D01*
Y-6000D01*
X354232Y-7561D01*
X355116Y-8884D01*
X356439Y-9768D01*
X358000Y-10078D01*
X413000D01*
X414561Y-9768D01*
X415884Y-8884D01*
X416768Y-7561D01*
X417078Y-6000D01*
Y9000D01*
X416768Y10561D01*
X415884Y11884D01*
X414561Y12768D01*
X413000Y13078D01*
D02*
G37*
G36*
X310500Y13124D02*
X241000D01*
X239852Y12648D01*
X235852Y8648D01*
X235376Y7500D01*
Y-4000D01*
X235852Y-5148D01*
X241352Y-10648D01*
X242500Y-11124D01*
X310500D01*
X311648Y-10648D01*
X312124Y-9500D01*
Y11500D01*
X311648Y12648D01*
X310500Y13124D01*
D02*
G37*
G36*
X413000Y-26922D02*
X358000D01*
X356439Y-27232D01*
X355116Y-28116D01*
X354232Y-29439D01*
X353922Y-31000D01*
Y-46000D01*
X354232Y-47561D01*
X355116Y-48884D01*
X356439Y-49768D01*
X358000Y-50078D01*
X413000D01*
X414561Y-49768D01*
X415884Y-48884D01*
X416768Y-47561D01*
X417078Y-46000D01*
Y-31000D01*
X416768Y-29439D01*
X415884Y-28116D01*
X414561Y-27232D01*
X413000Y-26922D01*
D02*
G37*
G36*
X300500Y-15376D02*
X196500D01*
X195352Y-15852D01*
X194876Y-17000D01*
Y-36000D01*
X195352Y-37148D01*
X207852Y-49648D01*
X209000Y-50124D01*
X214695D01*
Y-57438D01*
X214913Y-58535D01*
X215535Y-59465D01*
X216465Y-60087D01*
X217563Y-60305D01*
X241437D01*
X242535Y-60087D01*
X243465Y-59465D01*
X244087Y-58535D01*
X244305Y-57438D01*
Y-50124D01*
X310500D01*
X311648Y-49648D01*
X312124Y-48500D01*
Y-27000D01*
X311648Y-25852D01*
X301648Y-15852D01*
X300500Y-15376D01*
D02*
G37*
G36*
X222250Y-74456D02*
X213750D01*
X212872Y-74631D01*
X212128Y-75128D01*
X211631Y-75872D01*
X211456Y-76750D01*
Y-81250D01*
X211631Y-82128D01*
X211681Y-82204D01*
Y-85085D01*
X211373Y-85546D01*
X211208Y-86375D01*
Y-90625D01*
X211373Y-91454D01*
X211843Y-92157D01*
X212399Y-92528D01*
X212403Y-92559D01*
X211812Y-93664D01*
X211416Y-93500D01*
X209843D01*
X209615Y-93379D01*
X209402Y-92810D01*
X209230Y-92047D01*
X209627Y-91454D01*
X209792Y-90625D01*
Y-86375D01*
X209627Y-85546D01*
X209319Y-85085D01*
Y-82371D01*
X209383Y-82274D01*
X209539Y-81490D01*
Y-76510D01*
X209383Y-75726D01*
X208939Y-75061D01*
X208274Y-74617D01*
X207490Y-74461D01*
X197510D01*
X196726Y-74617D01*
X196061Y-75061D01*
X195617Y-75726D01*
X195461Y-76510D01*
Y-81490D01*
X195617Y-82274D01*
X196061Y-82939D01*
X196726Y-83383D01*
X197510Y-83539D01*
X202181D01*
Y-85085D01*
X201873Y-85546D01*
X201708Y-86375D01*
Y-90625D01*
X201873Y-91454D01*
X202343Y-92157D01*
X202393Y-92191D01*
X202008Y-93461D01*
X197510D01*
X196726Y-93617D01*
X196061Y-94061D01*
X195617Y-94726D01*
X195461Y-95510D01*
Y-100490D01*
X195617Y-101274D01*
X196061Y-101939D01*
X196726Y-102383D01*
X197510Y-102539D01*
X207490D01*
X208274Y-102383D01*
X208684Y-102110D01*
X209626Y-102500D01*
X211416D01*
X212434Y-102078D01*
X212437D01*
X212872Y-102369D01*
X213750Y-102544D01*
X222250D01*
X223128Y-102369D01*
X223872Y-101872D01*
X224369Y-101128D01*
X224544Y-100250D01*
Y-95750D01*
X224369Y-94872D01*
X223872Y-94128D01*
X223128Y-93631D01*
X222250Y-93456D01*
X218999D01*
X218614Y-92186D01*
X218657Y-92157D01*
X219127Y-91454D01*
X219292Y-90625D01*
Y-86375D01*
X219127Y-85546D01*
X218819Y-85085D01*
Y-83544D01*
X222250D01*
X223128Y-83369D01*
X223872Y-82872D01*
X224369Y-82128D01*
X224544Y-81250D01*
Y-76750D01*
X224369Y-75872D01*
X223872Y-75128D01*
X223128Y-74631D01*
X222250Y-74456D01*
D02*
G37*
G36*
X413000Y-76922D02*
X358000D01*
X356439Y-77232D01*
X355116Y-78116D01*
X354232Y-79439D01*
X353922Y-81000D01*
Y-96000D01*
X354232Y-97561D01*
X355116Y-98884D01*
X356439Y-99768D01*
X358000Y-100078D01*
X413000D01*
X414561Y-99768D01*
X415884Y-98884D01*
X416768Y-97561D01*
X417078Y-96000D01*
Y-81000D01*
X416768Y-79439D01*
X415884Y-78116D01*
X414561Y-77232D01*
X413000Y-76922D01*
D02*
G37*
G36*
X310500Y-76876D02*
X241000D01*
X239852Y-77352D01*
X235852Y-81352D01*
X235376Y-82500D01*
Y-94000D01*
X235852Y-95148D01*
X241352Y-100648D01*
X242500Y-101124D01*
X310500D01*
X311648Y-100648D01*
X312124Y-99500D01*
Y-78500D01*
X311648Y-77352D01*
X310500Y-76876D01*
D02*
G37*
G36*
X413000Y-116922D02*
X358000D01*
X356439Y-117232D01*
X355116Y-118116D01*
X354232Y-119439D01*
X353922Y-121000D01*
Y-136000D01*
X354232Y-137561D01*
X355116Y-138884D01*
X356439Y-139768D01*
X358000Y-140078D01*
X413000D01*
X414561Y-139768D01*
X415884Y-138884D01*
X416768Y-137561D01*
X417078Y-136000D01*
Y-121000D01*
X416768Y-119439D01*
X415884Y-118116D01*
X414561Y-117232D01*
X413000Y-116922D01*
D02*
G37*
G36*
X300500Y-105376D02*
X196500D01*
X195352Y-105852D01*
X194876Y-107000D01*
Y-126000D01*
X195352Y-127148D01*
X207852Y-139648D01*
X209000Y-140124D01*
X214695D01*
Y-147437D01*
X214913Y-148535D01*
X215535Y-149465D01*
X216465Y-150087D01*
X217563Y-150305D01*
X241437D01*
X242535Y-150087D01*
X243465Y-149465D01*
X244087Y-148535D01*
X244305Y-147437D01*
Y-140124D01*
X310500D01*
X311648Y-139648D01*
X312124Y-138500D01*
Y-117000D01*
X311648Y-115852D01*
X301648Y-105852D01*
X300500Y-105376D01*
D02*
G37*
G36*
X222250Y-164456D02*
X213750D01*
X212872Y-164631D01*
X212128Y-165128D01*
X211631Y-165872D01*
X211456Y-166750D01*
Y-171250D01*
X211631Y-172128D01*
X211681Y-172204D01*
Y-175085D01*
X211373Y-175546D01*
X211208Y-176375D01*
Y-180625D01*
X211373Y-181454D01*
X211843Y-182157D01*
X212399Y-182528D01*
X212403Y-182559D01*
X211812Y-183664D01*
X211416Y-183500D01*
X209843D01*
X209615Y-183379D01*
X209402Y-182810D01*
X209230Y-182047D01*
X209627Y-181454D01*
X209792Y-180625D01*
Y-176375D01*
X209627Y-175546D01*
X209319Y-175085D01*
Y-172371D01*
X209383Y-172274D01*
X209539Y-171490D01*
Y-166510D01*
X209383Y-165726D01*
X208939Y-165061D01*
X208274Y-164617D01*
X207490Y-164461D01*
X197510D01*
X196726Y-164617D01*
X196061Y-165061D01*
X195617Y-165726D01*
X195461Y-166510D01*
Y-171490D01*
X195617Y-172274D01*
X196061Y-172939D01*
X196726Y-173383D01*
X197510Y-173539D01*
X202181D01*
Y-175085D01*
X201873Y-175546D01*
X201708Y-176375D01*
Y-180625D01*
X201873Y-181454D01*
X202343Y-182157D01*
X202393Y-182191D01*
X202008Y-183461D01*
X197510D01*
X196726Y-183617D01*
X196061Y-184061D01*
X195617Y-184726D01*
X195461Y-185510D01*
Y-190490D01*
X195617Y-191274D01*
X196061Y-191939D01*
X196726Y-192383D01*
X197510Y-192539D01*
X207490D01*
X208274Y-192383D01*
X208684Y-192110D01*
X209626Y-192500D01*
X211416D01*
X212434Y-192078D01*
X212437D01*
X212872Y-192369D01*
X213750Y-192544D01*
X222250D01*
X223128Y-192369D01*
X223872Y-191872D01*
X224369Y-191128D01*
X224544Y-190250D01*
Y-185750D01*
X224369Y-184872D01*
X223872Y-184128D01*
X223128Y-183631D01*
X222250Y-183456D01*
X218999D01*
X218614Y-182186D01*
X218657Y-182157D01*
X219127Y-181454D01*
X219292Y-180625D01*
Y-176375D01*
X219127Y-175546D01*
X218819Y-175085D01*
Y-173544D01*
X222250D01*
X223128Y-173369D01*
X223872Y-172872D01*
X224369Y-172128D01*
X224544Y-171250D01*
Y-166750D01*
X224369Y-165872D01*
X223872Y-165128D01*
X223128Y-164631D01*
X222250Y-164456D01*
D02*
G37*
G36*
X413000Y-166922D02*
X358000D01*
X356439Y-167232D01*
X355116Y-168116D01*
X354232Y-169439D01*
X353922Y-171000D01*
Y-186000D01*
X354232Y-187561D01*
X355116Y-188884D01*
X356439Y-189768D01*
X358000Y-190078D01*
X413000D01*
X414561Y-189768D01*
X415884Y-188884D01*
X416768Y-187561D01*
X417078Y-186000D01*
Y-171000D01*
X416768Y-169439D01*
X415884Y-168116D01*
X414561Y-167232D01*
X413000Y-166922D01*
D02*
G37*
G36*
X310500Y-166876D02*
X241000D01*
X239852Y-167352D01*
X235852Y-171352D01*
X235376Y-172500D01*
Y-184000D01*
X235852Y-185148D01*
X241352Y-190648D01*
X242500Y-191124D01*
X310500D01*
X311648Y-190648D01*
X312124Y-189500D01*
Y-168500D01*
X311648Y-167352D01*
X310500Y-166876D01*
D02*
G37*
G36*
X413000Y-206922D02*
X358000D01*
X356439Y-207232D01*
X355116Y-208116D01*
X354232Y-209439D01*
X353922Y-211000D01*
Y-226000D01*
X354232Y-227561D01*
X355116Y-228884D01*
X356439Y-229768D01*
X358000Y-230078D01*
X413000D01*
X414561Y-229768D01*
X415884Y-228884D01*
X416768Y-227561D01*
X417078Y-226000D01*
Y-211000D01*
X416768Y-209439D01*
X415884Y-208116D01*
X414561Y-207232D01*
X413000Y-206922D01*
D02*
G37*
G36*
X300500Y-195376D02*
X196500D01*
X195352Y-195852D01*
X194876Y-197000D01*
Y-216000D01*
X195352Y-217148D01*
X207852Y-229648D01*
X209000Y-230124D01*
X214695D01*
Y-237437D01*
X214913Y-238535D01*
X215535Y-239465D01*
X216465Y-240087D01*
X217563Y-240305D01*
X241437D01*
X242535Y-240087D01*
X243465Y-239465D01*
X244087Y-238535D01*
X244305Y-237437D01*
Y-230124D01*
X310500D01*
X311648Y-229648D01*
X312124Y-228500D01*
Y-207000D01*
X311648Y-205852D01*
X301648Y-195852D01*
X300500Y-195376D01*
D02*
G37*
%LPD*%
G36*
X310500Y80500D02*
X242500D01*
X237000Y86000D01*
Y97500D01*
X241000Y101500D01*
X310500D01*
Y80500D01*
D02*
G37*
G36*
Y63000D02*
Y41500D01*
X244094D01*
X244087Y41535D01*
X243465Y42465D01*
X242535Y43087D01*
X241588Y43275D01*
Y45500D01*
X241500Y45943D01*
Y46395D01*
X241327Y46813D01*
X241239Y47256D01*
X240988Y47632D01*
X240815Y48049D01*
X240495Y48369D01*
X240244Y48744D01*
X239869Y48995D01*
X239549Y49315D01*
X239132Y49488D01*
X238756Y49739D01*
X238313Y49827D01*
X237895Y50000D01*
X237443D01*
X237000Y50088D01*
X222000D01*
X221557Y50000D01*
X221105D01*
X220687Y49827D01*
X220244Y49739D01*
X219868Y49488D01*
X219451Y49315D01*
X219131Y48995D01*
X218756Y48744D01*
X218505Y48369D01*
X218185Y48049D01*
X218012Y47632D01*
X217761Y47256D01*
X217673Y46813D01*
X217500Y46395D01*
Y45943D01*
X217412Y45500D01*
Y43275D01*
X216465Y43087D01*
X215535Y42465D01*
X214913Y41535D01*
X214906Y41500D01*
X209000D01*
X196500Y54000D01*
Y73000D01*
X300500D01*
X310500Y63000D01*
D02*
G37*
G36*
Y-9500D02*
X242500D01*
X237000Y-4000D01*
Y7500D01*
X241000Y11500D01*
X310500D01*
Y-9500D01*
D02*
G37*
G36*
Y-27000D02*
Y-48500D01*
X244094D01*
X244087Y-48465D01*
X243465Y-47535D01*
X242535Y-46913D01*
X241588Y-46725D01*
Y-44500D01*
X241500Y-44057D01*
Y-43605D01*
X241327Y-43187D01*
X241239Y-42744D01*
X240988Y-42368D01*
X240815Y-41951D01*
X240495Y-41631D01*
X240244Y-41256D01*
X239869Y-41005D01*
X239549Y-40685D01*
X239132Y-40512D01*
X238756Y-40261D01*
X238313Y-40173D01*
X237895Y-40000D01*
X237443D01*
X237000Y-39912D01*
X222000D01*
X221557Y-40000D01*
X221105D01*
X220687Y-40173D01*
X220244Y-40261D01*
X219868Y-40512D01*
X219451Y-40685D01*
X219131Y-41005D01*
X218756Y-41256D01*
X218505Y-41631D01*
X218185Y-41951D01*
X218012Y-42368D01*
X217761Y-42744D01*
X217673Y-43187D01*
X217500Y-43605D01*
Y-44057D01*
X217412Y-44500D01*
Y-46725D01*
X216465Y-46913D01*
X215535Y-47535D01*
X214913Y-48465D01*
X214906Y-48500D01*
X209000D01*
X196500Y-36000D01*
Y-17000D01*
X300500D01*
X310500Y-27000D01*
D02*
G37*
G36*
Y-99500D02*
X242500D01*
X237000Y-94000D01*
Y-82500D01*
X241000Y-78500D01*
X310500D01*
Y-99500D01*
D02*
G37*
G36*
Y-117000D02*
Y-138500D01*
X244094D01*
X244087Y-138465D01*
X243465Y-137535D01*
X242535Y-136913D01*
X241588Y-136725D01*
Y-134500D01*
X241500Y-134057D01*
Y-133605D01*
X241327Y-133187D01*
X241239Y-132744D01*
X240988Y-132368D01*
X240815Y-131951D01*
X240495Y-131631D01*
X240244Y-131256D01*
X239869Y-131005D01*
X239549Y-130685D01*
X239132Y-130512D01*
X238756Y-130261D01*
X238313Y-130173D01*
X237895Y-130000D01*
X237443D01*
X237000Y-129912D01*
X222000D01*
X221557Y-130000D01*
X221105D01*
X220687Y-130173D01*
X220244Y-130261D01*
X219868Y-130512D01*
X219451Y-130685D01*
X219131Y-131005D01*
X218756Y-131256D01*
X218505Y-131631D01*
X218185Y-131951D01*
X218012Y-132368D01*
X217761Y-132744D01*
X217673Y-133187D01*
X217500Y-133605D01*
Y-134057D01*
X217412Y-134500D01*
Y-136725D01*
X216465Y-136913D01*
X215535Y-137535D01*
X214913Y-138465D01*
X214906Y-138500D01*
X209000D01*
X196500Y-126000D01*
Y-107000D01*
X300500D01*
X310500Y-117000D01*
D02*
G37*
G36*
Y-189500D02*
X242500D01*
X237000Y-184000D01*
Y-172500D01*
X241000Y-168500D01*
X310500D01*
Y-189500D01*
D02*
G37*
G36*
Y-207000D02*
Y-228500D01*
X244094D01*
X244087Y-228465D01*
X243465Y-227535D01*
X242535Y-226913D01*
X241588Y-226725D01*
Y-224500D01*
X241500Y-224057D01*
Y-223605D01*
X241327Y-223187D01*
X241239Y-222744D01*
X240988Y-222368D01*
X240815Y-221951D01*
X240495Y-221631D01*
X240244Y-221256D01*
X239869Y-221005D01*
X239549Y-220685D01*
X239132Y-220512D01*
X238756Y-220261D01*
X238313Y-220173D01*
X237895Y-220000D01*
X237443D01*
X237000Y-219912D01*
X222000D01*
X221557Y-220000D01*
X221105D01*
X220687Y-220173D01*
X220244Y-220261D01*
X219868Y-220512D01*
X219451Y-220685D01*
X219131Y-221005D01*
X218756Y-221256D01*
X218505Y-221631D01*
X218185Y-221951D01*
X218012Y-222368D01*
X217761Y-222744D01*
X217673Y-223187D01*
X217500Y-223605D01*
Y-224057D01*
X217412Y-224500D01*
Y-226725D01*
X216465Y-226913D01*
X215535Y-227535D01*
X214913Y-228465D01*
X214906Y-228500D01*
X209000D01*
X196500Y-216000D01*
Y-197000D01*
X300500D01*
X310500Y-207000D01*
D02*
G37*
%LPC*%
G36*
X-272094Y213750D02*
X-295094D01*
Y213675D01*
X-296105Y213000D01*
X-297895D01*
X-299549Y212315D01*
X-300815Y211049D01*
X-301500Y209395D01*
Y207605D01*
X-300815Y205951D01*
X-299549Y204685D01*
X-297895Y204000D01*
X-296105D01*
X-295094Y203325D01*
Y202750D01*
X-272094D01*
Y203533D01*
X-271395Y204000D01*
X-269605D01*
X-267951Y204685D01*
X-266685Y205951D01*
X-266000Y207605D01*
Y209395D01*
X-266685Y211049D01*
X-267951Y212315D01*
X-269605Y213000D01*
X-271395D01*
X-272094Y213467D01*
Y213750D01*
D02*
G37*
G36*
Y201050D02*
X-295094D01*
Y190050D01*
X-273921D01*
X-273618Y189620D01*
X-274277Y188350D01*
X-295094D01*
Y177350D01*
X-280840D01*
X-280594Y177301D01*
X-266063D01*
X-259634Y170872D01*
X-260120Y169699D01*
X-272094D01*
Y175650D01*
X-295094D01*
Y164650D01*
X-280840D01*
X-280594Y164601D01*
X-259019D01*
X-252591Y158172D01*
X-253077Y156999D01*
X-272094D01*
Y162950D01*
X-295094D01*
Y151950D01*
X-280840D01*
X-280594Y151901D01*
X-251976D01*
X-245548Y145472D01*
X-246033Y144299D01*
X-272094D01*
Y150250D01*
X-295094D01*
Y139250D01*
X-280840D01*
X-280594Y139201D01*
X-244933D01*
X-238904Y133172D01*
X-239391Y131999D01*
X-272094D01*
Y137550D01*
X-295094D01*
Y126550D01*
X-272094D01*
Y126901D01*
X-238290D01*
X-113587Y2198D01*
X-112760Y1645D01*
X-111784Y1451D01*
X-109709D01*
X-109183Y181D01*
X-109315Y49D01*
X-110000Y-1605D01*
Y-3395D01*
X-109467Y-4681D01*
X-110072Y-5951D01*
X-157444D01*
X-203198Y39802D01*
X-204025Y40355D01*
X-205000Y40549D01*
X-301290D01*
Y55033D01*
X-311910D01*
Y43101D01*
X-313083Y42614D01*
X-313990Y43521D01*
Y55033D01*
X-324610D01*
Y42263D01*
X-325783Y41777D01*
X-326690Y42684D01*
Y55033D01*
X-337310D01*
Y39079D01*
X-330295D01*
X-324938Y33722D01*
X-325424Y32549D01*
X-341955D01*
X-347312Y37906D01*
X-346826Y39079D01*
X-339390D01*
Y55033D01*
X-346405D01*
X-349708Y58335D01*
X-350535Y58888D01*
X-351510Y59082D01*
X-362453D01*
X-363428Y58888D01*
X-364255Y58335D01*
X-366012Y56578D01*
X-366565Y55751D01*
X-366759Y54776D01*
Y39336D01*
X-366565Y38361D01*
X-366012Y37534D01*
X-352676Y24198D01*
X-351849Y23645D01*
X-350874Y23451D01*
X-231206D01*
X-230280Y22181D01*
X-230292Y22125D01*
Y19341D01*
X-237652Y11981D01*
X-238205Y11154D01*
X-238399Y10178D01*
Y622D01*
X-238205Y-354D01*
X-237652Y-1181D01*
X-233936Y-4897D01*
X-234350Y-6444D01*
Y-8156D01*
X-233919Y-9764D01*
X-237606Y-13451D01*
X-259000D01*
X-259975Y-13645D01*
X-260134Y-13751D01*
X-260142D01*
X-261117Y-13945D01*
X-261945Y-14498D01*
X-277138Y-29691D01*
X-295087D01*
X-296062Y-29885D01*
X-296889Y-30438D01*
X-298646Y-32195D01*
X-299199Y-33022D01*
X-299393Y-33997D01*
Y-45642D01*
X-328781Y-75030D01*
X-362453D01*
X-363428Y-75224D01*
X-364255Y-75777D01*
X-367557Y-79079D01*
X-375410D01*
Y-95033D01*
X-364790D01*
Y-83475D01*
X-364650Y-83381D01*
X-363883Y-82614D01*
X-362710Y-83101D01*
Y-95033D01*
X-355695D01*
X-348392Y-102335D01*
X-347565Y-102888D01*
X-346590Y-103082D01*
X-312591D01*
X-311615Y-102888D01*
X-310788Y-102335D01*
X-296502Y-88049D01*
X-232623D01*
X-231647Y-87855D01*
X-230820Y-87302D01*
X-197348Y-53830D01*
X-196795Y-53003D01*
X-196601Y-52027D01*
Y-23300D01*
X-196795Y-22325D01*
X-197348Y-21498D01*
X-209081Y-9764D01*
X-208650Y-8156D01*
Y-6444D01*
X-209093Y-4791D01*
X-209949Y-3309D01*
X-210924Y-2333D01*
X-210969Y-1256D01*
X-216388Y4163D01*
X-215150Y5400D01*
X-216388Y6637D01*
X-211199Y11826D01*
X-212240Y12426D01*
X-214157Y12940D01*
X-216143D01*
X-218060Y12426D01*
X-219780Y11434D01*
X-220735Y10479D01*
X-222126Y10483D01*
X-222331Y10582D01*
X-222466Y10784D01*
X-223789Y11668D01*
X-225350Y11978D01*
X-228649D01*
X-229175Y13248D01*
X-226715Y15708D01*
X-224375D01*
X-223546Y15873D01*
X-222843Y16343D01*
X-222373Y17046D01*
X-222208Y17875D01*
Y22125D01*
X-222220Y22181D01*
X-221294Y23451D01*
X-212056D01*
X-165802Y-22802D01*
X-164975Y-23355D01*
X-164000Y-23549D01*
X-103436D01*
X-102815Y-25049D01*
X-101549Y-26315D01*
X-99895Y-27000D01*
X-98105D01*
X-96451Y-26315D01*
X-95185Y-25049D01*
X-95185Y-25049D01*
X-93041D01*
X-89788Y-28302D01*
X-88961Y-28855D01*
X-87985Y-29049D01*
X-83015D01*
X-82039Y-28855D01*
X-81212Y-28302D01*
X-78435Y-25525D01*
X-51135D01*
X-50006Y-26357D01*
Y-28643D01*
X-49860Y-29377D01*
X-49444Y-29999D01*
X-48822Y-30415D01*
X-48088Y-30561D01*
X-36912D01*
X-36178Y-30415D01*
X-35556Y-29999D01*
X-35140Y-29377D01*
X-34994Y-28643D01*
Y-26357D01*
X-35140Y-25623D01*
X-35556Y-25001D01*
Y-24999D01*
X-35140Y-24377D01*
X-34994Y-23643D01*
Y-21357D01*
X-35140Y-20623D01*
X-35556Y-20001D01*
Y-19999D01*
X-35140Y-19377D01*
X-34994Y-18643D01*
Y-16357D01*
X-35140Y-15623D01*
X-35556Y-15001D01*
Y-14999D01*
X-35140Y-14377D01*
X-34994Y-13643D01*
Y-11357D01*
X-35140Y-10623D01*
X-35556Y-10001D01*
Y-9999D01*
X-35140Y-9377D01*
X-34994Y-8643D01*
Y-6357D01*
X-35140Y-5623D01*
X-35556Y-5001D01*
Y-4999D01*
X-35140Y-4377D01*
X-34994Y-3643D01*
Y-1357D01*
X-35140Y-623D01*
X-35556Y-1D01*
Y1D01*
X-35140Y623D01*
X-34994Y1357D01*
Y3643D01*
X-35140Y4377D01*
X-35556Y4999D01*
Y5001D01*
X-35140Y5623D01*
X-34994Y6357D01*
Y8643D01*
X-35140Y9377D01*
X-35556Y9999D01*
Y10001D01*
X-35140Y10623D01*
X-34994Y11357D01*
Y13643D01*
X-35140Y14377D01*
X-35556Y14999D01*
Y15001D01*
X-35140Y15623D01*
X-34994Y16357D01*
Y18643D01*
X-35140Y19377D01*
X-35556Y19999D01*
Y20001D01*
X-35140Y20623D01*
X-34994Y21357D01*
Y23643D01*
X-35140Y24377D01*
X-35556Y24999D01*
X-36178Y25415D01*
X-36912Y25561D01*
X-48088D01*
X-48268Y25525D01*
X-107077D01*
X-122330Y40778D01*
X-121844Y41951D01*
X-113000D01*
X-112024Y42145D01*
X-111198Y42698D01*
X-105895Y48000D01*
X-105895Y48000D01*
X-104105D01*
X-102451Y48685D01*
X-101185Y49951D01*
X-100500Y51605D01*
Y53395D01*
X-101185Y55049D01*
X-102451Y56315D01*
X-104105Y57000D01*
X-105895D01*
X-107549Y56315D01*
X-108815Y55049D01*
X-109500Y53395D01*
Y51605D01*
X-109500Y51605D01*
X-114056Y47049D01*
X-122944D01*
X-271377Y195482D01*
X-272094Y195961D01*
Y201050D01*
D02*
G37*
G36*
X11395Y140700D02*
X9605D01*
X8587Y140278D01*
X7526D01*
X7454Y140327D01*
X6625Y140492D01*
X2875D01*
X2046Y140327D01*
X1343Y139857D01*
X873Y139154D01*
X708Y138325D01*
Y136460D01*
X672Y136275D01*
Y136125D01*
X708Y135940D01*
Y134075D01*
X873Y133246D01*
X1343Y132543D01*
X2046Y132073D01*
X2875Y131908D01*
X6625D01*
X7454Y132073D01*
X7527Y132122D01*
X8587D01*
X9605Y131700D01*
X11395D01*
X13049Y132385D01*
X14315Y133651D01*
X15000Y135305D01*
Y137095D01*
X14315Y138749D01*
X13049Y140015D01*
X11395Y140700D01*
D02*
G37*
G36*
X-7010Y167239D02*
X-11990D01*
X-12774Y167083D01*
X-13439Y166639D01*
X-13883Y165974D01*
X-14039Y165190D01*
Y155210D01*
X-13883Y154426D01*
X-13439Y153761D01*
X-12774Y153317D01*
X-11990Y153161D01*
X-11933D01*
X-11930Y153155D01*
X-11721Y151891D01*
X-12302Y151502D01*
X-12855Y150675D01*
X-13049Y149700D01*
Y143700D01*
X-12855Y142725D01*
X-12302Y141898D01*
X-11475Y141345D01*
X-10500Y141151D01*
X-8506D01*
X-8121Y139881D01*
X-8157Y139857D01*
X-8627Y139154D01*
X-8792Y138325D01*
Y134075D01*
X-8627Y133246D01*
X-8157Y132543D01*
X-7454Y132073D01*
X-6625Y131908D01*
X-2875D01*
X-2046Y132073D01*
X-1343Y132543D01*
X-873Y133246D01*
X-708Y134075D01*
Y138325D01*
X-873Y139154D01*
X-1343Y139857D01*
X-2046Y140327D01*
X-2576Y140432D01*
Y142080D01*
X-2145Y142725D01*
X-1951Y143700D01*
Y149700D01*
X-2145Y150675D01*
X-2698Y151502D01*
X-3525Y152055D01*
X-4500Y152249D01*
X-5579D01*
X-5923Y153519D01*
X-5561Y153761D01*
X-5117Y154426D01*
X-4961Y155210D01*
Y165190D01*
X-5117Y165974D01*
X-5561Y166639D01*
X-6226Y167083D01*
X-7010Y167239D01*
D02*
G37*
G36*
X26393Y117740D02*
X24407D01*
X22490Y117226D01*
X21449Y116625D01*
X25400Y112675D01*
X29351Y116625D01*
X28310Y117226D01*
X26393Y117740D01*
D02*
G37*
G36*
X38956Y116700D02*
X37244D01*
X35591Y116257D01*
X34109Y115401D01*
X33133Y114426D01*
X32056Y114381D01*
X26637Y108963D01*
X25400Y110200D01*
X24163Y108963D01*
X18744Y114381D01*
X17667Y114426D01*
X16691Y115401D01*
X15209Y116257D01*
X13556Y116700D01*
X11844D01*
X10191Y116257D01*
X8709Y115401D01*
X7499Y114191D01*
X7083Y113471D01*
X5617D01*
X5201Y114191D01*
X3991Y115401D01*
X2509Y116257D01*
X856Y116700D01*
X-856D01*
X-2509Y116257D01*
X-3991Y115401D01*
X-5201Y114191D01*
X-5617Y113471D01*
X-7083D01*
X-7499Y114191D01*
X-8709Y115401D01*
X-10191Y116257D01*
X-11844Y116700D01*
X-13556D01*
X-15209Y116257D01*
X-16691Y115401D01*
X-17901Y114191D01*
X-18317Y113471D01*
X-19783D01*
X-20199Y114191D01*
X-21409Y115401D01*
X-22891Y116257D01*
X-24544Y116700D01*
X-26256D01*
X-27909Y116257D01*
X-29391Y115401D01*
X-30601Y114191D01*
X-31017Y113471D01*
X-32483D01*
X-32899Y114191D01*
X-34109Y115401D01*
X-35591Y116257D01*
X-37244Y116700D01*
X-38956D01*
X-40609Y116257D01*
X-42091Y115401D01*
X-43301Y114191D01*
X-44157Y112709D01*
X-44600Y111056D01*
Y109344D01*
X-44157Y107691D01*
X-43670Y106848D01*
X-47902Y102616D01*
X-48455Y101789D01*
X-48649Y100814D01*
Y96956D01*
X-91302Y54302D01*
X-91855Y53475D01*
X-92049Y52500D01*
Y41556D01*
X-93423Y40182D01*
X-95367D01*
X-96343Y39988D01*
X-97170Y39435D01*
X-98105Y38500D01*
X-98105Y38500D01*
X-99895D01*
X-101549Y37815D01*
X-102815Y36549D01*
X-103500Y34895D01*
Y33105D01*
X-102815Y31451D01*
X-101549Y30185D01*
X-99895Y29500D01*
X-98105D01*
X-96451Y30185D01*
X-95185Y31451D01*
X-94500Y33105D01*
Y34895D01*
X-93327Y35084D01*
X-92367D01*
X-91392Y35278D01*
X-90863Y35631D01*
X-89816Y34839D01*
X-90000Y34395D01*
Y32605D01*
X-89315Y30951D01*
X-88049Y29685D01*
X-86395Y29000D01*
X-84605D01*
X-82951Y29685D01*
X-81685Y30951D01*
X-81000Y32605D01*
Y34395D01*
X-81184Y34839D01*
X-80138Y35631D01*
X-79608Y35278D01*
X-78633Y35084D01*
X-77673D01*
X-76500Y34895D01*
Y33105D01*
X-75815Y31451D01*
X-74549Y30185D01*
X-72895Y29500D01*
X-71105D01*
X-69451Y30185D01*
X-68185Y31451D01*
X-67500Y33105D01*
Y34895D01*
X-68185Y36549D01*
X-69451Y37815D01*
X-71105Y38500D01*
X-72895D01*
X-72895Y38500D01*
X-73830Y39435D01*
X-74657Y39988D01*
X-75633Y40182D01*
X-77577D01*
X-78951Y41556D01*
Y47444D01*
X-39444Y86951D01*
X-34786D01*
X-33811Y87145D01*
X-32984Y87698D01*
X-28752Y91930D01*
X-27909Y91443D01*
X-27149Y91239D01*
Y86224D01*
X-27928Y86069D01*
X-28672Y85572D01*
X-29169Y84828D01*
X-29344Y83950D01*
Y79050D01*
X-29169Y78172D01*
X-28672Y77428D01*
X-27928Y76931D01*
X-27367Y76819D01*
X-27492Y75549D01*
X-40500D01*
X-41475Y75355D01*
X-42302Y74802D01*
X-51605Y65500D01*
X-51605Y65500D01*
X-53395D01*
X-55049Y64815D01*
X-56315Y63549D01*
X-57000Y61895D01*
Y60105D01*
X-56315Y58451D01*
X-55049Y57185D01*
X-53395Y56500D01*
X-51605D01*
X-49951Y57185D01*
X-48685Y58451D01*
X-48000Y60105D01*
Y61895D01*
X-48000Y61895D01*
X-39444Y70451D01*
X-29522D01*
X-29227Y69809D01*
X-29133Y69181D01*
X-29319Y68995D01*
X-29694Y68744D01*
X-29945Y68369D01*
X-30265Y68049D01*
X-30438Y67632D01*
X-30689Y67256D01*
X-30777Y66813D01*
X-30950Y66395D01*
Y65943D01*
X-31038Y65500D01*
X-30950Y65057D01*
Y64605D01*
X-30777Y64187D01*
X-30689Y63744D01*
X-30438Y63368D01*
X-30265Y62951D01*
X-29945Y62631D01*
X-29694Y62256D01*
X-29319Y62005D01*
X-28999Y61685D01*
X-28582Y61512D01*
X-28206Y61261D01*
X-27763Y61173D01*
X-27345Y61000D01*
X-26893D01*
X-26450Y60912D01*
X-25624D01*
Y37000D01*
X-25559Y36844D01*
Y36465D01*
X-26315Y35709D01*
X-27000Y34055D01*
Y32265D01*
X-26315Y30611D01*
X-25049Y29345D01*
X-23395Y28660D01*
X-21605D01*
X-19951Y29345D01*
X-18685Y30611D01*
X-18000Y32265D01*
Y34055D01*
X-17372Y34994D01*
X-16357D01*
X-15623Y35140D01*
X-15000Y35555D01*
X-14377Y35140D01*
X-13643Y34994D01*
X-11357D01*
X-10623Y35140D01*
X-10000Y35555D01*
X-9377Y35140D01*
X-8643Y34994D01*
X-6357D01*
X-5623Y35140D01*
X-5000Y35555D01*
X-4377Y35140D01*
X-3643Y34994D01*
X-1357D01*
X-623Y35140D01*
X0Y35555D01*
X623Y35140D01*
X1357Y34994D01*
X3643D01*
X4377Y35140D01*
X5000Y35555D01*
X5623Y35140D01*
X6357Y34994D01*
X8643D01*
X9377Y35140D01*
X10000Y35555D01*
X10623Y35140D01*
X11357Y34994D01*
X13643D01*
X14377Y35140D01*
X15000Y35555D01*
X15623Y35140D01*
X16357Y34994D01*
X18643D01*
X19377Y35140D01*
X20000Y35555D01*
X20623Y35140D01*
X21357Y34994D01*
X23643D01*
X24377Y35140D01*
X25000Y35555D01*
X25623Y35140D01*
X26357Y34994D01*
X28643D01*
X29377Y35140D01*
X29999Y35556D01*
X30415Y36178D01*
X30561Y36912D01*
Y48088D01*
X30415Y48822D01*
X29999Y49444D01*
X29573Y49729D01*
Y60472D01*
X29549Y60593D01*
Y73500D01*
X29355Y74475D01*
X28802Y75302D01*
X27949Y76156D01*
Y91466D01*
X29391Y92299D01*
X30601Y93509D01*
X31017Y94229D01*
X32483D01*
X32899Y93509D01*
X34109Y92299D01*
X35591Y91443D01*
X37244Y91000D01*
X38956D01*
X40609Y91443D01*
X42091Y92299D01*
X43301Y93509D01*
X44157Y94991D01*
X44600Y96644D01*
Y98356D01*
X44157Y100009D01*
X43301Y101491D01*
X42091Y102701D01*
X41371Y103117D01*
Y104583D01*
X42091Y104999D01*
X43301Y106209D01*
X44157Y107691D01*
X44600Y109344D01*
Y111056D01*
X44157Y112709D01*
X43301Y114191D01*
X42091Y115401D01*
X40609Y116257D01*
X38956Y116700D01*
D02*
G37*
G36*
X-273605Y114000D02*
X-275395D01*
X-277049Y113315D01*
X-278315Y112049D01*
X-279000Y110395D01*
Y108605D01*
X-278315Y106951D01*
X-277049Y105685D01*
X-275395Y105000D01*
X-273605D01*
X-272708Y105372D01*
X-271838D01*
X-271328Y105030D01*
X-270450Y104856D01*
X-265550D01*
X-264672Y105030D01*
X-264069Y105434D01*
X-263444Y105272D01*
X-262799Y104931D01*
Y102950D01*
X-262605Y101975D01*
X-262052Y101148D01*
X-261225Y100595D01*
X-261000Y99395D01*
Y97605D01*
X-260315Y95951D01*
X-259049Y94685D01*
X-257395Y94000D01*
X-255605D01*
X-253951Y94685D01*
X-252685Y95951D01*
X-252000Y97605D01*
Y99395D01*
X-251775Y100595D01*
X-250948Y101148D01*
X-250395Y101975D01*
X-250201Y102950D01*
Y108950D01*
X-250395Y109925D01*
X-250948Y110752D01*
X-251775Y111305D01*
X-252750Y111499D01*
X-260250D01*
X-261225Y111305D01*
X-261986Y110797D01*
X-262355Y110874D01*
X-263256Y111237D01*
Y111650D01*
X-263431Y112528D01*
X-263928Y113272D01*
X-264672Y113769D01*
X-265550Y113944D01*
X-270450D01*
X-271328Y113769D01*
X-271689Y113528D01*
X-272466D01*
X-273605Y114000D01*
D02*
G37*
G36*
X-383450Y69244D02*
X-387950D01*
X-388828Y69069D01*
X-389572Y68572D01*
X-389794Y68239D01*
X-389864Y68214D01*
X-391137D01*
X-391206Y68239D01*
X-391428Y68572D01*
X-392172Y69069D01*
X-393050Y69244D01*
X-397550D01*
X-398428Y69069D01*
X-399172Y68572D01*
X-399669Y67828D01*
X-399844Y66950D01*
Y62050D01*
X-399669Y61172D01*
X-399478Y60886D01*
Y55033D01*
X-400810D01*
Y39079D01*
X-393795D01*
X-350913Y-3802D01*
X-350087Y-4355D01*
X-349111Y-4549D01*
X-258815D01*
X-258815Y-4549D01*
X-257549Y-5815D01*
X-255895Y-6500D01*
X-254105D01*
X-252451Y-5815D01*
X-251185Y-4549D01*
X-250500Y-2895D01*
Y-1105D01*
X-251185Y549D01*
X-252451Y1815D01*
X-254105Y2500D01*
X-255895D01*
X-257549Y1815D01*
X-258815Y549D01*
X-258815Y549D01*
X-348055D01*
X-385412Y37906D01*
X-384926Y39079D01*
X-377490D01*
Y55033D01*
X-388110D01*
Y42263D01*
X-389283Y41777D01*
X-390190Y42684D01*
Y55033D01*
X-391322D01*
Y60587D01*
X-391206Y60760D01*
X-391137Y60786D01*
X-389864D01*
X-389794Y60760D01*
X-389572Y60428D01*
X-388828Y59931D01*
X-387950Y59756D01*
X-383450D01*
X-382572Y59931D01*
X-381837Y60422D01*
X-381413D01*
X-380395Y60000D01*
X-378605D01*
X-376951Y60685D01*
X-375685Y61951D01*
X-375000Y63605D01*
Y65395D01*
X-375685Y67049D01*
X-376951Y68315D01*
X-378605Y69000D01*
X-380395D01*
X-381413Y68578D01*
X-381837D01*
X-382572Y69069D01*
X-383450Y69244D01*
D02*
G37*
G36*
X-56000Y50188D02*
X-56443Y50100D01*
X-56895D01*
X-57313Y49927D01*
X-57756Y49839D01*
X-58132Y49588D01*
X-58549Y49415D01*
X-58868Y49095D01*
X-59244Y48844D01*
X-59495Y48469D01*
X-59815Y48149D01*
X-59988Y47732D01*
X-60239Y47356D01*
X-60327Y46913D01*
X-60500Y46495D01*
Y46043D01*
X-60588Y45600D01*
Y42434D01*
X-60744Y41650D01*
Y37150D01*
X-60569Y36272D01*
X-60072Y35528D01*
X-59328Y35031D01*
X-58450Y34856D01*
X-56222D01*
X-56000Y34812D01*
X-55778Y34856D01*
X-53550D01*
X-52672Y35031D01*
X-51928Y35528D01*
X-51431Y36272D01*
X-51256Y37150D01*
Y41650D01*
X-51412Y42434D01*
Y45600D01*
X-51500Y46043D01*
Y46495D01*
X-51673Y46913D01*
X-51761Y47356D01*
X-52012Y47732D01*
X-52185Y48149D01*
X-52505Y48469D01*
X-52756Y48844D01*
X-53131Y49095D01*
X-53451Y49415D01*
X-53868Y49588D01*
X-54244Y49839D01*
X-54687Y49927D01*
X-55105Y50100D01*
X-55557D01*
X-56000Y50188D01*
D02*
G37*
G36*
X-208724Y9351D02*
X-212675Y5400D01*
X-208724Y1449D01*
X-208124Y2490D01*
X-207610Y4407D01*
Y6393D01*
X-208124Y8310D01*
X-208724Y9351D01*
D02*
G37*
G36*
X23643Y-34994D02*
X21357D01*
X20623Y-35140D01*
X20000Y-35555D01*
X19377Y-35140D01*
X18643Y-34994D01*
X16357D01*
X15623Y-35140D01*
X15001Y-35556D01*
X14585Y-36178D01*
X14439Y-36912D01*
Y-48088D01*
X14585Y-48822D01*
X15001Y-49444D01*
X15623Y-49860D01*
X16357Y-50006D01*
X16539D01*
X17025Y-51179D01*
X15352Y-52852D01*
X14876Y-54000D01*
Y-60000D01*
X15352Y-61148D01*
X15752Y-61548D01*
Y-63166D01*
X16437Y-64820D01*
X17703Y-66086D01*
X19357Y-66771D01*
X21147D01*
X22801Y-66086D01*
X24067Y-64820D01*
X24752Y-63166D01*
Y-61544D01*
X25148Y-61148D01*
X25624Y-60000D01*
Y-37000D01*
X25537Y-36790D01*
X25415Y-36178D01*
X24999Y-35556D01*
X24377Y-35140D01*
X23643Y-34994D01*
D02*
G37*
G36*
X3643D02*
X1357D01*
X623Y-35140D01*
X0Y-35555D01*
X-623Y-35140D01*
X-1357Y-34994D01*
X-3643D01*
X-4377Y-35140D01*
X-5000Y-35555D01*
X-5623Y-35140D01*
X-6357Y-34994D01*
X-8643D01*
X-9377Y-35140D01*
X-10000Y-35555D01*
X-10623Y-35140D01*
X-11357Y-34994D01*
X-13643D01*
X-14377Y-35140D01*
X-15000Y-35555D01*
X-15623Y-35140D01*
X-16357Y-34994D01*
X-18643D01*
X-19377Y-35140D01*
X-20000Y-35555D01*
X-20623Y-35140D01*
X-21357Y-34994D01*
X-23643D01*
X-24377Y-35140D01*
X-25000Y-35555D01*
X-25623Y-35140D01*
X-26357Y-34994D01*
X-28643D01*
X-29377Y-35140D01*
X-29999Y-35556D01*
X-30415Y-36178D01*
X-30561Y-36912D01*
Y-48088D01*
X-30415Y-48822D01*
X-29999Y-49444D01*
X-29377Y-49860D01*
X-28643Y-50006D01*
X-26357D01*
X-25623Y-49860D01*
X-25000Y-49445D01*
X-24377Y-49860D01*
X-23643Y-50006D01*
X-21357D01*
X-20623Y-49860D01*
X-20000Y-49445D01*
X-19377Y-49860D01*
X-18643Y-50006D01*
X-16357D01*
X-15623Y-49860D01*
X-15000Y-49445D01*
X-14377Y-49860D01*
X-13643Y-50006D01*
X-11357D01*
X-10623Y-49860D01*
X-10000Y-49445D01*
X-9377Y-49860D01*
X-8643Y-50006D01*
X-6357D01*
X-5623Y-49860D01*
X-5000Y-49445D01*
X-4377Y-49860D01*
X-3643Y-50006D01*
X-3461D01*
X-2975Y-51179D01*
X-4648Y-52852D01*
X-5124Y-54000D01*
X-5124Y-60000D01*
X-4648Y-61148D01*
X-4248Y-61548D01*
Y-63166D01*
X-3563Y-64820D01*
X-2297Y-66086D01*
X-643Y-66771D01*
X1147D01*
X2801Y-66086D01*
X4067Y-64820D01*
X4752Y-63166D01*
Y-61544D01*
X5148Y-61148D01*
X5624Y-60000D01*
Y-37000D01*
X5537Y-36790D01*
X5415Y-36178D01*
X4999Y-35556D01*
X4377Y-35140D01*
X3643Y-34994D01*
D02*
G37*
%LPD*%
G36*
X-233051Y-23991D02*
X-231841Y-25201D01*
X-231121Y-25617D01*
Y-27083D01*
X-231841Y-27499D01*
X-233051Y-28709D01*
X-233823Y-30046D01*
X-241873D01*
X-241873Y-30046D01*
X-242343Y-29343D01*
X-243046Y-28873D01*
X-243875Y-28708D01*
X-247625D01*
X-248454Y-28873D01*
X-249157Y-29343D01*
X-249627Y-30046D01*
X-249792Y-30875D01*
Y-35125D01*
X-249627Y-35954D01*
X-249157Y-36657D01*
X-248454Y-37127D01*
X-247625Y-37292D01*
X-243875D01*
X-243046Y-37127D01*
X-242343Y-36657D01*
X-241873Y-35954D01*
X-241814Y-35654D01*
X-233650D01*
X-233051Y-36691D01*
X-232076Y-37667D01*
X-232031Y-38744D01*
X-226613Y-44163D01*
X-227850Y-45400D01*
X-226613Y-46637D01*
X-231801Y-51825D01*
X-230760Y-52426D01*
X-228843Y-52940D01*
X-228091D01*
X-227565Y-54210D01*
X-237306Y-63951D01*
X-242185D01*
X-242185Y-63951D01*
X-243451Y-62685D01*
X-245105Y-62000D01*
X-246895D01*
X-248549Y-62685D01*
X-249815Y-63951D01*
X-250085Y-64603D01*
X-251656Y-65078D01*
X-252000Y-64847D01*
Y-64105D01*
X-252685Y-62451D01*
X-253951Y-61185D01*
X-255605Y-60500D01*
X-257395D01*
X-259049Y-61185D01*
X-260315Y-62451D01*
X-260981Y-64060D01*
X-261007Y-64110D01*
X-262270Y-65000D01*
X-262515Y-64951D01*
X-279693D01*
X-282008Y-62636D01*
Y-57060D01*
X-279390D01*
Y-46440D01*
X-294295D01*
Y-44360D01*
X-279390D01*
Y-38789D01*
X-274425D01*
X-273450Y-38595D01*
X-272623Y-38043D01*
X-261673Y-27093D01*
X-260347Y-27563D01*
X-259815Y-28849D01*
X-258923Y-29741D01*
X-259127Y-30046D01*
X-259292Y-30875D01*
Y-35125D01*
X-259127Y-35954D01*
X-258657Y-36657D01*
X-257954Y-37127D01*
X-257125Y-37292D01*
X-253375D01*
X-252546Y-37127D01*
X-251843Y-36657D01*
X-251373Y-35954D01*
X-251208Y-35125D01*
Y-30875D01*
X-251373Y-30046D01*
X-251843Y-29343D01*
X-252157Y-29133D01*
X-252185Y-28849D01*
X-251500Y-27195D01*
Y-25405D01*
X-252033Y-24119D01*
X-251428Y-22849D01*
X-233711D01*
X-233051Y-23991D01*
D02*
G37*
%LPC*%
G36*
X-234276Y-41449D02*
X-234876Y-42490D01*
X-235390Y-44407D01*
Y-46393D01*
X-234876Y-48310D01*
X-234276Y-49351D01*
X-230325Y-45400D01*
X-234276Y-41449D01*
D02*
G37*
%LPD*%
G36*
X-16500Y68500D02*
Y53500D01*
X-21000Y49000D01*
Y37000D01*
X-24000D01*
Y68500D01*
X-23000Y69500D01*
X-17500D01*
X-16500Y68500D01*
D02*
G37*
G36*
X24000Y-60000D02*
X23000Y-61000D01*
X17500D01*
X16500Y-60000D01*
Y-54000D01*
X21000Y-49500D01*
Y-37000D01*
X24000D01*
Y-60000D01*
D02*
G37*
G36*
X4000D02*
X3000Y-61000D01*
X-2500D01*
X-3500Y-60000D01*
X-3500Y-54000D01*
X1000Y-49500D01*
Y-37000D01*
X4000D01*
Y-60000D01*
D02*
G37*
%LPC*%
G36*
X135895Y62500D02*
X134105D01*
X132451Y61815D01*
X131185Y60549D01*
X130500Y58895D01*
Y57105D01*
X129966Y56305D01*
X126313D01*
X125215Y56087D01*
X124285Y55465D01*
X123663Y54535D01*
X123445Y53437D01*
Y45562D01*
X123663Y44465D01*
X124285Y43535D01*
X125215Y42913D01*
X126313Y42695D01*
X143687D01*
X144785Y42913D01*
X145715Y43535D01*
X146337Y44465D01*
X146555Y45562D01*
Y53437D01*
X146337Y54535D01*
X145715Y55465D01*
X144785Y56087D01*
X143687Y56305D01*
X140035D01*
X139500Y57105D01*
Y58895D01*
X138815Y60549D01*
X137549Y61815D01*
X135895Y62500D01*
D02*
G37*
G36*
X143687Y10305D02*
X126313D01*
X125215Y10087D01*
X124285Y9465D01*
X123663Y8535D01*
X123445Y7437D01*
Y7215D01*
X122175Y6689D01*
X122049Y6815D01*
X120395Y7500D01*
X118605D01*
X116951Y6815D01*
X115685Y5549D01*
X115000Y3895D01*
Y2105D01*
X115685Y451D01*
X116951Y-815D01*
X118605Y-1500D01*
X120395D01*
X122049Y-815D01*
X122205Y-659D01*
X123574Y-1086D01*
X123663Y-1535D01*
X124285Y-2465D01*
X125215Y-3087D01*
X126313Y-3305D01*
X143687D01*
X144785Y-3087D01*
X145715Y-2465D01*
X146337Y-1535D01*
X146555Y-438D01*
Y7437D01*
X146337Y8535D01*
X145715Y9465D01*
X144785Y10087D01*
X143687Y10305D01*
D02*
G37*
G36*
X135895Y-27500D02*
X134105D01*
X132451Y-28185D01*
X131185Y-29451D01*
X130500Y-31105D01*
Y-32895D01*
X129966Y-33695D01*
X126313D01*
X125215Y-33913D01*
X124285Y-34535D01*
X123663Y-35465D01*
X123445Y-36563D01*
Y-44438D01*
X123663Y-45535D01*
X124285Y-46465D01*
X125215Y-47087D01*
X126313Y-47305D01*
X143687D01*
X144785Y-47087D01*
X145715Y-46465D01*
X146337Y-45535D01*
X146555Y-44438D01*
Y-36563D01*
X146337Y-35465D01*
X145715Y-34535D01*
X144785Y-33913D01*
X143687Y-33695D01*
X140035D01*
X139500Y-32895D01*
Y-31105D01*
X138815Y-29451D01*
X137549Y-28185D01*
X135895Y-27500D01*
D02*
G37*
G36*
X-113921Y-163312D02*
X-113921Y-163312D01*
X-113921Y-163312D01*
Y-163312D01*
D02*
G37*
G36*
X-113904Y-163356D02*
D01*
Y-163356D01*
Y-163356D01*
D02*
G37*
G36*
X-122682Y-152585D02*
X-122887Y-152586D01*
X-124967D01*
Y-156747D01*
X-122850D01*
X-122776Y-156744D01*
X-122702Y-156739D01*
X-122628Y-156731D01*
X-122591Y-156725D01*
X-122538Y-156718D01*
X-122432Y-156697D01*
X-122327Y-156672D01*
X-122224Y-156642D01*
X-122173Y-156624D01*
X-122173D01*
X-122167Y-156622D01*
X-122154Y-156617D01*
X-122141Y-156613D01*
X-122129Y-156608D01*
X-122122Y-156605D01*
X-122122D01*
X-122111Y-156601D01*
X-122087Y-156591D01*
X-122063Y-156581D01*
X-122040Y-156570D01*
X-122028Y-156565D01*
X-122022Y-156562D01*
X-122011Y-156557D01*
X-122000Y-156552D01*
X-121989Y-156546D01*
X-121983Y-156544D01*
X-121983Y-156544D01*
X-121983D01*
X-121983D01*
D01*
X-121978Y-156541D01*
X-121967Y-156536D01*
X-121957Y-156530D01*
X-121946Y-156524D01*
X-121940Y-156522D01*
X-121935Y-156519D01*
X-121925Y-156513D01*
X-121914Y-156508D01*
X-121904Y-156502D01*
X-121899Y-156499D01*
X-121858Y-156477D01*
X-121818Y-156454D01*
X-121738Y-156408D01*
X-121522Y-156266D01*
X-121173Y-155884D01*
X-120929Y-155428D01*
X-120805Y-154925D01*
X-120807Y-154667D01*
X-120805Y-154461D01*
X-120883Y-154058D01*
X-121038Y-153678D01*
X-121266Y-153336D01*
X-121556Y-153045D01*
X-121898Y-152818D01*
X-122279Y-152662D01*
X-122682Y-152585D01*
D02*
G37*
G36*
X-94910Y-176228D02*
X-96213Y-179703D01*
X-93607D01*
X-94910Y-176228D01*
D02*
G37*
G36*
X-108943Y-174105D02*
X-109255Y-174107D01*
X-109255D01*
X-109255Y-174107D01*
X-109255Y-174107D01*
X-110976D01*
Y-183289D01*
X-109255Y-183289D01*
X-108943Y-183291D01*
X-108332Y-183172D01*
X-107756Y-182935D01*
X-107238Y-182590D01*
X-106797Y-182150D01*
X-106452Y-181631D01*
X-106215Y-181055D01*
X-106096Y-180444D01*
X-106098Y-180133D01*
Y-177264D01*
X-106096Y-176952D01*
X-106215Y-176341D01*
X-106452Y-175765D01*
X-106797Y-175247D01*
X-107238Y-174806D01*
X-107756Y-174461D01*
X-108332Y-174224D01*
X-108943Y-174105D01*
D02*
G37*
G36*
X135895Y-117500D02*
X134105D01*
X132451Y-118185D01*
X131185Y-119451D01*
X130500Y-121105D01*
Y-122895D01*
X129966Y-123695D01*
X126313D01*
X125215Y-123913D01*
X124285Y-124535D01*
X123663Y-125465D01*
X123445Y-126563D01*
Y-134438D01*
X123663Y-135535D01*
X124285Y-136465D01*
X125215Y-137087D01*
X126313Y-137305D01*
X143687D01*
X144785Y-137087D01*
X145715Y-136465D01*
X146337Y-135535D01*
X146555Y-134438D01*
Y-126563D01*
X146337Y-125465D01*
X145715Y-124535D01*
X144785Y-123913D01*
X143687Y-123695D01*
X140035D01*
X139500Y-122895D01*
Y-121105D01*
X138815Y-119451D01*
X137549Y-118185D01*
X135895Y-117500D01*
D02*
G37*
G36*
X-26875Y-170708D02*
X-30625D01*
X-31454Y-170873D01*
X-32157Y-171343D01*
X-32627Y-172046D01*
X-32792Y-172875D01*
Y-176463D01*
X-32799Y-176500D01*
Y-179006D01*
X-34250D01*
X-35128Y-179181D01*
X-35872Y-179678D01*
X-36369Y-180422D01*
X-36544Y-181300D01*
Y-182113D01*
X-38335D01*
X-38564Y-181814D01*
X-39922Y-180772D01*
X-41503Y-180117D01*
X-43200Y-179894D01*
X-44897Y-180117D01*
X-46478Y-180772D01*
X-47836Y-181814D01*
X-48878Y-183172D01*
X-49533Y-184753D01*
X-49756Y-186450D01*
Y-197450D01*
X-49533Y-199147D01*
X-48878Y-200728D01*
X-47836Y-202086D01*
X-46478Y-203128D01*
X-44897Y-203783D01*
X-43200Y-204006D01*
X-41503Y-203783D01*
X-39922Y-203128D01*
X-38564Y-202086D01*
X-37522Y-200728D01*
X-36867Y-199147D01*
X-36644Y-197450D01*
Y-193779D01*
X-35374Y-193155D01*
X-35128Y-193319D01*
X-34250Y-193494D01*
X-33821D01*
X-33136Y-194764D01*
X-33650Y-196005D01*
Y-197895D01*
X-32927Y-199641D01*
X-31591Y-200977D01*
X-29845Y-201700D01*
X-27955D01*
X-26209Y-200977D01*
X-24873Y-199641D01*
X-24150Y-197895D01*
Y-196005D01*
X-24873Y-194259D01*
X-26209Y-192923D01*
X-27542Y-192371D01*
X-27631Y-192078D01*
X-27456Y-191200D01*
Y-181300D01*
X-27603Y-180562D01*
X-27500Y-180132D01*
X-27123Y-179292D01*
X-26875D01*
X-26046Y-179127D01*
X-25343Y-178657D01*
X-24873Y-177954D01*
X-24708Y-177125D01*
Y-172875D01*
X-24873Y-172046D01*
X-25343Y-171343D01*
X-26046Y-170873D01*
X-26875Y-170708D01*
D02*
G37*
G36*
X30625Y-170708D02*
X26875D01*
X26046Y-170873D01*
X25343Y-171343D01*
X24873Y-172046D01*
X24708Y-172875D01*
Y-177125D01*
X24873Y-177954D01*
X25343Y-178657D01*
X26046Y-179127D01*
X26875Y-179292D01*
X27123D01*
X27500Y-180131D01*
X27603Y-180562D01*
X27456Y-181300D01*
Y-191200D01*
X27631Y-192078D01*
X27542Y-192371D01*
X26209Y-192923D01*
X24873Y-194259D01*
X24150Y-196005D01*
Y-197895D01*
X24873Y-199641D01*
X26209Y-200977D01*
X27955Y-201700D01*
X29845D01*
X31591Y-200977D01*
X32927Y-199641D01*
X33650Y-197895D01*
Y-196005D01*
X33136Y-194764D01*
X33821Y-193494D01*
X34250D01*
X35128Y-193319D01*
X35374Y-193155D01*
X36644Y-193779D01*
Y-197450D01*
X36867Y-199147D01*
X37522Y-200728D01*
X38564Y-202086D01*
X39922Y-203128D01*
X41503Y-203783D01*
X43200Y-204006D01*
X44897Y-203783D01*
X46478Y-203128D01*
X47836Y-202086D01*
X48878Y-200728D01*
X49533Y-199147D01*
X49756Y-197450D01*
Y-186450D01*
X49533Y-184753D01*
X48878Y-183172D01*
X47836Y-181814D01*
X46478Y-180772D01*
X44897Y-180117D01*
X43200Y-179894D01*
X41503Y-180117D01*
X39922Y-180772D01*
X38564Y-181814D01*
X38290Y-182172D01*
X36544D01*
Y-181300D01*
X36369Y-180422D01*
X35872Y-179678D01*
X35128Y-179181D01*
X34250Y-179006D01*
X32799D01*
Y-176500D01*
X32792Y-176463D01*
Y-172875D01*
X32627Y-172046D01*
X32157Y-171343D01*
X31454Y-170873D01*
X30625Y-170708D01*
D02*
G37*
G36*
X-79833Y-195626D02*
X-79842D01*
X-79876Y-195626D01*
X-79913Y-195627D01*
X-79952Y-195628D01*
X-80048Y-195631D01*
X-80048D01*
Y-195631D01*
X-80487Y-195649D01*
X-81344Y-195851D01*
X-82146Y-196213D01*
X-82864Y-196721D01*
X-83472Y-197357D01*
X-83948Y-198097D01*
X-84274Y-198914D01*
X-84438Y-199779D01*
X-84437Y-200219D01*
Y-200219D01*
X-84437D01*
X-84438Y-200672D01*
X-84265Y-201561D01*
X-83920Y-202398D01*
X-83418Y-203151D01*
X-82778Y-203792D01*
X-82024Y-204294D01*
X-81187Y-204639D01*
X-80299Y-204814D01*
X-79846Y-204812D01*
X-79393Y-204814D01*
X-78505Y-204640D01*
X-77667Y-204294D01*
X-76914Y-203792D01*
X-76274Y-203152D01*
X-75771Y-202398D01*
X-75427Y-201561D01*
X-75253Y-200672D01*
X-75255Y-200219D01*
X-75255Y-200219D01*
X-75252Y-199778D01*
X-75416Y-198913D01*
X-75743Y-198095D01*
X-76219Y-197355D01*
X-76828Y-196719D01*
X-77547Y-196211D01*
X-78350Y-195849D01*
X-79207Y-195648D01*
X-79647Y-195631D01*
Y-195631D01*
X-79694Y-195629D01*
X-79735Y-195628D01*
X-79773Y-195627D01*
X-79773D01*
X-79781Y-195627D01*
X-79799Y-195626D01*
X-79816Y-195626D01*
X-79833Y-195626D01*
D02*
G37*
G36*
X-94982Y-196625D02*
X-100373Y-200219D01*
X-94982Y-203813D01*
Y-196625D01*
D02*
G37*
G36*
X135895Y-207500D02*
X134105D01*
X132451Y-208185D01*
X131185Y-209451D01*
X130500Y-211105D01*
Y-212895D01*
X129966Y-213695D01*
X126313D01*
X125215Y-213913D01*
X124285Y-214535D01*
X123663Y-215465D01*
X123445Y-216563D01*
Y-224438D01*
X123663Y-225535D01*
X124285Y-226465D01*
X125215Y-227087D01*
X126313Y-227305D01*
X143687D01*
X144785Y-227087D01*
X145715Y-226465D01*
X146337Y-225535D01*
X146555Y-224438D01*
Y-216563D01*
X146337Y-215465D01*
X145715Y-214535D01*
X144785Y-213913D01*
X143687Y-213695D01*
X140035D01*
X139500Y-212895D01*
Y-211105D01*
X138815Y-209451D01*
X137549Y-208185D01*
X135895Y-207500D01*
D02*
G37*
%LPD*%
D10*
X9000Y159843D02*
X9500Y160343D01*
X8500Y146700D02*
X9000Y147200D01*
Y159843D01*
X9500Y160343D02*
Y162700D01*
Y160200D02*
Y160343D01*
X-22000Y168400D02*
X-21450Y168950D01*
X3250D01*
X9500Y162700D01*
X-216750Y13500D02*
Y20000D01*
X-216585Y6835D02*
Y13335D01*
Y6835D02*
X-215150Y5400D01*
X-245600Y-32850D02*
X-228000D01*
X-227850Y-32700D01*
X-245750Y-33000D02*
X-245600Y-32850D01*
X-256000Y-26300D02*
X-255625Y-26675D01*
Y-32625D02*
X-255250Y-33000D01*
X-395500Y44389D02*
Y47056D01*
X-216750Y13500D02*
X-216585Y13335D01*
X304196Y198084D02*
X304697Y197584D01*
D12*
X-350874Y26000D02*
X-211000D01*
X-164000Y-21000D01*
X-364210Y39336D02*
X-350874Y26000D01*
X-343011Y30000D02*
X-209000D01*
X-357400Y44389D02*
X-343011Y30000D01*
X-209000D02*
X-162500Y-16500D01*
X-321611Y34000D02*
X-207157D01*
X-160657Y-12500D01*
X-332000Y44389D02*
X-321611Y34000D01*
X-319300Y45226D02*
X-312074Y38000D01*
X-205000D02*
X-158500Y-8500D01*
X-312074Y38000D02*
X-205000D01*
X-319300Y45226D02*
Y47056D01*
X-14977Y-177550D02*
X-13000Y-179527D01*
Y-185750D02*
Y-179527D01*
X-16950Y-177550D02*
X-14977D01*
X-19250Y-175250D02*
X-16950Y-177550D01*
X-75633Y37633D02*
X-72000Y34000D01*
X-78633Y37633D02*
X-75633D01*
X-81500Y40500D02*
X-78633Y37633D01*
X-85500Y33500D02*
Y50157D01*
X-95367Y37633D02*
X-92367D01*
X-99000Y34000D02*
X-95367Y37633D01*
X-92367D02*
X-89500Y40500D01*
X-164000Y-21000D02*
X-101582D01*
X-100082Y-22500D02*
X-91985D01*
X-101582Y-21000D02*
X-100082Y-22500D01*
X-91985D02*
X-87985Y-26500D01*
X-83015D01*
X-79491Y-22976D01*
X-257964Y167150D02*
X-108790Y17976D01*
X-273180Y193680D02*
X-124000Y44500D01*
X-108133Y22976D02*
X-42976D01*
X-111784Y4000D02*
X-69515D01*
X-280994Y129450D02*
X-237234D01*
X-109446Y12976D02*
X-42976D01*
X-280594Y141750D02*
X-243877D01*
X-250921Y154450D02*
X-109446Y12976D01*
X-265007Y179850D02*
X-108133Y22976D01*
X-237234Y129450D02*
X-111784Y4000D01*
X-243877Y141750D02*
X-110127Y8000D01*
X-280594Y154450D02*
X-250921D01*
X-283594Y195550D02*
X-281724Y193680D01*
X-280594Y179850D02*
X-265007D01*
X-108790Y17976D02*
X-42976D01*
X-110127Y8000D02*
X-67858D01*
X-124000Y44500D02*
X-113000D01*
X-281724Y193680D02*
X-273180D01*
X-280594Y167150D02*
X-257964D01*
X-79491Y-22976D02*
X-42976D01*
X-85500Y-20500D02*
X-82976Y-17976D01*
X-42976D01*
X-81500Y48500D02*
X-40500Y89500D01*
X-81500Y40500D02*
Y48500D01*
X-42100Y93500D02*
X-38100Y97500D01*
X-42157Y93500D02*
X-42100D01*
X-89500Y40500D02*
Y52500D01*
X-46100Y95900D01*
X-85500Y50157D02*
X-42157Y93500D01*
X-42750Y-2250D02*
X-42500Y-2500D01*
X-67834Y7976D02*
X-42976D01*
X-72000Y-2000D02*
X-71750Y-2250D01*
X-69515Y4000D02*
X-68491Y2976D01*
X-71750Y-2250D02*
X-42750D01*
X-67858Y8000D02*
X-67834Y7976D01*
X-68491Y2976D02*
X-42976D01*
X-42500Y-12500D02*
X-42500Y-12500D01*
X-160657Y-12500D02*
X-42500D01*
X-62739Y-8500D02*
X-62215Y-7976D01*
X-158500Y-8500D02*
X-62739D01*
X-62215Y-7976D02*
X-42976D01*
X-89500Y-16500D02*
X-85500Y-20500D01*
X-162500Y-16500D02*
X-89500D01*
X-40500Y89500D02*
X-34786D01*
X-30100Y94543D02*
X-27143Y97500D01*
X-34786Y89500D02*
X-30100Y94186D01*
X-27143Y97500D02*
X-25400D01*
X-30100Y94186D02*
Y94543D01*
X-46100Y95900D02*
Y100814D01*
X-41414Y105500D01*
X-38100Y108457D02*
Y110200D01*
X-41414Y105500D02*
X-41057D01*
X-38100Y108457D01*
X-113000Y44500D02*
X-105000Y52500D01*
X109000Y-78000D02*
X109500Y-78500D01*
X51226Y-22726D02*
X106500Y-78000D01*
X42726Y-22726D02*
X51226D01*
X106500Y-78000D02*
X109000D01*
X42774Y-27774D02*
X50274D01*
X110000Y-87500D01*
Y-148500D02*
Y-87500D01*
X116000Y-177000D02*
Y-58500D01*
X120000Y-92000D02*
Y-56485D01*
X126991Y-82274D02*
X131217Y-86500D01*
X126991Y-82274D02*
Y-78313D01*
X131217Y-86500D02*
X135000D01*
X126669Y-77991D02*
X126991Y-78313D01*
X71015Y-7500D02*
X120000Y-56485D01*
Y-92000D02*
X126500Y-98500D01*
X70000Y-12500D02*
X116000Y-58500D01*
Y-177000D02*
X127000Y-188000D01*
X176500D01*
X123000Y-169216D02*
Y-149000D01*
Y-169216D02*
X130284Y-176500D01*
X112943Y148943D02*
X130943D01*
X72000Y108000D02*
X112943Y148943D01*
X-232623Y-85500D02*
X-199150Y-52027D01*
X-312591Y-100533D02*
X-297558Y-85500D01*
X-232623D01*
X-314247Y-96533D02*
X-297214Y-79500D01*
X-259000D01*
X-297000Y-73500D02*
X-265000D01*
X-310556Y-87056D02*
X-297000Y-73500D01*
X-284557Y-63692D02*
X-280749Y-67500D01*
X-262515D01*
X-258015Y-72000D01*
X-284557Y-63692D02*
Y-54560D01*
X-258015Y-72000D02*
X-253515Y-76500D01*
X-258015Y-72000D02*
Y-72000D01*
X-253515Y-76500D02*
X-229279D01*
X-287367Y-51750D02*
X-284557Y-54560D01*
X-370013Y-87143D02*
Y-84302D01*
X-367290Y-81579D01*
X-366453D01*
X-362453Y-77579D01*
X-274425Y-36240D02*
X-258485Y-20300D01*
X-284557Y-36240D02*
X-274425D01*
X-260142Y-16300D02*
X-259300D01*
X-296844Y-46697D02*
Y-33997D01*
X-259300Y-16300D02*
X-259000Y-16000D01*
X-362453Y-77579D02*
X-327726D01*
X-295087Y-32240D02*
X-276082D01*
X-327726Y-77579D02*
X-296844Y-46697D01*
Y-33997D02*
X-295087Y-32240D01*
X-258485Y-20300D02*
X-228150D01*
X-227850Y-20000D01*
X-259000Y-16000D02*
X-236550D01*
X-276082Y-32240D02*
X-260142Y-16300D01*
X-287367Y-39050D02*
X-284557Y-36240D01*
X-319300Y-87056D02*
X-310556D01*
X-357400Y-89723D02*
X-346590Y-100533D01*
X-312591D01*
X-332000Y-89723D02*
X-325190Y-96533D01*
X-314247D01*
X-229279Y-76500D02*
X-203150Y-50371D01*
X-357400Y-89723D02*
Y-87056D01*
X-249000Y-72500D02*
X-230936D01*
X-207150Y-48714D01*
X-215150Y-32700D02*
X-207150Y-40700D01*
Y-48714D02*
Y-40700D01*
X-203150Y-50371D02*
Y-32000D01*
X-199150Y-52027D02*
Y-23300D01*
X-236250Y-66500D02*
X-215150Y-45400D01*
X-246000Y-66500D02*
X-236250D01*
X-215150Y-20000D02*
X-203150Y-32000D01*
X-349111Y-2000D02*
X-255000D01*
X-395500Y44389D02*
X-349111Y-2000D01*
X-52500Y61000D02*
X-40500Y73000D01*
X-1000D01*
X42500Y2500D02*
X59500D01*
X139000Y82000D01*
X176500D01*
X57961Y7976D02*
X126193Y76208D01*
Y89274D01*
X42976Y7976D02*
X57961D01*
X-1000Y73000D02*
X2024Y69976D01*
Y42976D02*
X2500Y42500D01*
X2024Y42976D02*
Y69976D01*
X-42976Y7976D02*
X-42500Y7500D01*
X-42976Y22976D02*
X-42500Y22500D01*
X-42976Y-7976D02*
X-42500Y-7500D01*
X-283594Y182850D02*
X-280594Y179850D01*
X-42976Y17976D02*
X-42500Y17500D01*
X-283594Y170150D02*
X-280594Y167150D01*
X-283594Y157450D02*
X-280594Y154450D01*
X-42976Y12976D02*
X-42500Y12500D01*
X-42976Y2976D02*
X-42500Y2500D01*
X-283594Y144750D02*
X-280594Y141750D01*
X-283594Y132050D02*
X-280994Y129450D01*
X-357400Y44389D02*
Y47056D01*
X-332000Y44389D02*
Y47056D01*
X-364210Y39336D02*
Y54776D01*
X-351510Y56533D02*
X-344700Y49723D01*
Y47056D02*
Y49723D01*
X-362453Y56533D02*
X-351510D01*
X-364210Y54776D02*
X-362453Y56533D01*
X-5125Y136575D02*
Y144325D01*
X-7500Y146700D02*
X-5125Y144325D01*
Y136575D02*
X-4750Y136200D01*
X-24600Y81700D02*
Y96700D01*
X-24800Y81500D02*
X-24600Y81700D01*
X-25400Y97500D02*
X-24600Y96700D01*
X-42976Y-17976D02*
X-42500Y-17500D01*
X-42976Y-22976D02*
X-42500Y-22500D01*
X-235850Y10178D02*
X-227778Y18250D01*
X-235850Y622D02*
Y10178D01*
X-227778Y18250D02*
X-227750D01*
X-215150Y-7300D02*
X-199150Y-23300D01*
X-227750Y18250D02*
X-226250Y19750D01*
Y20000D01*
X-236550Y-16000D02*
X-227850Y-7300D01*
X-235850Y622D02*
X-228062Y-7166D01*
X-255625Y-32625D02*
Y-26675D01*
X-332000Y-89723D02*
Y-87056D01*
X-256500Y-65000D02*
X-249000Y-72500D01*
X130943Y148943D02*
X135000Y153000D01*
X25400Y75100D02*
X27000Y73500D01*
X27024Y42976D02*
X27500Y42500D01*
X27024Y42976D02*
Y60472D01*
X27000Y60497D02*
X27024Y60472D01*
X27000Y60497D02*
Y73500D01*
X22568Y42568D02*
Y70932D01*
X22500Y42500D02*
X22568Y42568D01*
X13000Y80500D02*
X22568Y70932D01*
X16568Y52605D02*
X17034Y52139D01*
Y42966D02*
X17500Y42500D01*
X17034Y42966D02*
Y52139D01*
X130419Y93500D02*
X135000D01*
X42500Y7500D02*
X42976Y7976D01*
X126193Y89274D02*
X130419Y93500D01*
X89500Y-17500D02*
X93000Y-14000D01*
X119000D01*
X134500Y3000D02*
X135000Y3500D01*
X119500Y3000D02*
X134500D01*
X73000Y-2500D02*
X78500Y-8000D01*
X176500D01*
X42500Y-7500D02*
X71015D01*
X42500Y-12500D02*
X70000D01*
X66226Y-17726D02*
X77500Y-29000D01*
X42500Y-17500D02*
X42726Y-17726D01*
X66226D01*
X126500Y-98500D02*
X176000D01*
X42500Y-22500D02*
X42726Y-22726D01*
X42500Y-27500D02*
X42774Y-27774D01*
X61000Y-202657D02*
Y-58500D01*
X44000Y-214000D02*
X57000Y-201000D01*
X33531Y-31031D02*
X61000Y-58500D01*
X57000Y-201000D02*
Y-60488D01*
X29531Y-33019D02*
X57000Y-60488D01*
X45657Y-218000D02*
X61000Y-202657D01*
X11343Y-218000D02*
X45657D01*
X13000Y-214000D02*
X44000D01*
X130284Y-176500D02*
X135000D01*
X42500Y-2500D02*
X73000D01*
X176000Y-98500D02*
X176500Y-98000D01*
X33531Y-31031D02*
Y-24957D01*
X29531Y-23300D02*
Y11700D01*
X31512Y13681D02*
X35013Y17182D01*
X29531Y-23300D02*
X29531Y-23300D01*
X31512Y13681D02*
Y13681D01*
X29531Y-33019D02*
Y-23300D01*
X29531Y11700D02*
X31512Y13681D01*
X-7500Y-186250D02*
X-7000Y-186750D01*
Y-199657D02*
X11343Y-218000D01*
X-7000Y-199657D02*
Y-186750D01*
X-2500Y-198500D02*
X13000Y-214000D01*
X-2500Y-194023D02*
Y-186250D01*
X-7000Y-179527D02*
X-5023Y-177550D01*
X23D01*
X2000Y-179527D01*
X-1573Y-194950D02*
X5023D01*
X-2500Y-194023D02*
X-1573Y-194950D01*
X-2500Y-198500D02*
Y-194950D01*
X2000Y-185750D02*
X2500Y-186250D01*
X2000Y-185750D02*
Y-179527D01*
X-7000Y-185750D02*
Y-179527D01*
X-7500Y-186250D02*
X-7000Y-185750D01*
X5023Y-194950D02*
X7000Y-192973D01*
Y-186750D01*
X7500Y-186250D01*
X35013Y17182D02*
X42182D01*
X42500Y17500D01*
X33531Y-24957D02*
X33531Y-24957D01*
Y10043D01*
X35512Y12024D01*
X42024D01*
X42500Y12500D01*
X-13000Y-185750D02*
X-12500Y-186250D01*
X-19250Y-175250D02*
Y-175000D01*
X17500Y-186250D02*
X18000Y-185750D01*
Y-176250D01*
X19250Y-175000D01*
X-30250Y-184500D02*
Y-176500D01*
X-28750Y-175000D01*
X-32000Y-186250D02*
X-30250Y-184500D01*
X30250Y-184500D02*
Y-176500D01*
X260250Y135250D02*
X263500D01*
X30250Y-184500D02*
X32000Y-186250D01*
X28750Y-175000D02*
X30250Y-176500D01*
X25400Y75100D02*
Y97500D01*
X13000Y80500D02*
Y97200D01*
X12700Y97500D02*
X13000Y97200D01*
X-10750Y60250D02*
Y65500D01*
X-12500Y58500D02*
X-10750Y60250D01*
X-12500Y42500D02*
Y58500D01*
D17*
X2500Y42500D02*
D03*
X-27500D02*
D03*
X-22500D02*
D03*
X-17500D02*
D03*
X-12500D02*
D03*
X-7500D02*
D03*
X-2500D02*
D03*
X7500D02*
D03*
X12500D02*
D03*
X17500D02*
D03*
X22500D02*
D03*
X27500D02*
D03*
Y-42500D02*
D03*
X22500D02*
D03*
X17500D02*
D03*
X12500D02*
D03*
X7500D02*
D03*
X2500D02*
D03*
X-2500D02*
D03*
X-7500D02*
D03*
X-12500D02*
D03*
X-17500D02*
D03*
X-22500D02*
D03*
X-27500D02*
D03*
D18*
X-418214Y119500D02*
D03*
Y207130D02*
D03*
D19*
X-283594Y144750D02*
D03*
Y170150D02*
D03*
Y157450D02*
D03*
Y132050D02*
D03*
Y119350D02*
D03*
Y182850D02*
D03*
Y195550D02*
D03*
Y208250D02*
D03*
D20*
X-268000Y119000D02*
D03*
Y109400D02*
D03*
X281000Y156700D02*
D03*
Y166300D02*
D03*
X22000Y168400D02*
D03*
X-56000Y39400D02*
D03*
Y29800D02*
D03*
X22000Y178000D02*
D03*
X-22000Y178000D02*
D03*
Y168400D02*
D03*
X56000Y20700D02*
D03*
Y30300D02*
D03*
D21*
X-256500Y122450D02*
D03*
Y105950D02*
D03*
D22*
X-384200Y-104500D02*
D03*
X-393800D02*
D03*
X-9800Y198200D02*
D03*
X-200D02*
D03*
X-385700Y64500D02*
D03*
X-395300D02*
D03*
X200Y-56000D02*
D03*
X9800D02*
D03*
X20200D02*
D03*
X29800D02*
D03*
X-20200Y56000D02*
D03*
X-29800D02*
D03*
X-15200Y81500D02*
D03*
X-24800D02*
D03*
D23*
X-216750Y20000D02*
D03*
X-226250D02*
D03*
X-28750Y-175000D02*
D03*
X-19250D02*
D03*
X28750Y-175000D02*
D03*
X19250D02*
D03*
X320750Y119000D02*
D03*
X311250D02*
D03*
X339750D02*
D03*
X330250D02*
D03*
X205750Y-88500D02*
D03*
X215250D02*
D03*
X-255250Y-33000D02*
D03*
X-245750D02*
D03*
X205750Y91500D02*
D03*
X215250D02*
D03*
Y1500D02*
D03*
X205750D02*
D03*
X215250Y-178500D02*
D03*
X205750D02*
D03*
X-4750Y136200D02*
D03*
X4750D02*
D03*
X-20250Y65500D02*
D03*
X-10750D02*
D03*
D24*
X135000Y197000D02*
D03*
Y153000D02*
D03*
Y-220500D02*
D03*
Y-176500D02*
D03*
Y-130500D02*
D03*
Y-86500D02*
D03*
Y-40500D02*
D03*
Y3500D02*
D03*
Y49500D02*
D03*
Y93500D02*
D03*
D25*
X73355Y-233500D02*
D03*
X107645D02*
D03*
X328645Y230000D02*
D03*
X294355D02*
D03*
D26*
X292450Y134500D02*
D03*
X305150D02*
D03*
X317850D02*
D03*
X330550D02*
D03*
Y188500D02*
D03*
X317850D02*
D03*
X292450D02*
D03*
X305150D02*
D03*
D27*
X347477Y230500D02*
D03*
X374523D02*
D03*
D28*
X263500Y135250D02*
D03*
Y165750D02*
D03*
X240500D02*
D03*
Y135250D02*
D03*
D29*
X252000Y184000D02*
D03*
Y229000D02*
D03*
D30*
X326750Y209000D02*
D03*
X296250D02*
D03*
D31*
X349500Y209000D02*
D03*
Y179000D02*
D03*
X261000Y-93500D02*
D03*
Y-123500D02*
D03*
Y86500D02*
D03*
Y56500D02*
D03*
Y-33500D02*
D03*
Y-3500D02*
D03*
Y-213500D02*
D03*
Y-183500D02*
D03*
D32*
X9500Y160200D02*
D03*
Y186200D02*
D03*
X0D02*
D03*
X-9500D02*
D03*
Y160200D02*
D03*
D33*
X176500Y101000D02*
D03*
Y11000D02*
D03*
Y-79000D02*
D03*
Y-169000D02*
D03*
Y-88500D02*
D03*
Y-98000D02*
D03*
X202500D02*
D03*
Y-79000D02*
D03*
Y101000D02*
D03*
Y82000D02*
D03*
X176500D02*
D03*
Y91500D02*
D03*
X202500Y11000D02*
D03*
Y-8000D02*
D03*
X176500D02*
D03*
Y1500D02*
D03*
X202500Y-169000D02*
D03*
Y-188000D02*
D03*
X176500D02*
D03*
Y-178500D02*
D03*
D34*
X7500Y146700D02*
D03*
X-7500D02*
D03*
D35*
X176542Y-26000D02*
D03*
X202458D02*
D03*
X176542Y-116000D02*
D03*
X202458D02*
D03*
X176542Y-206000D02*
D03*
X202458D02*
D03*
D36*
X218000Y-79000D02*
D03*
Y-98000D02*
D03*
X242000Y-88500D02*
D03*
X218000Y101000D02*
D03*
Y82000D02*
D03*
X242000Y91500D02*
D03*
Y1500D02*
D03*
X218000Y-8000D02*
D03*
Y11000D02*
D03*
X242000Y-178500D02*
D03*
X218000Y-188000D02*
D03*
Y-169000D02*
D03*
D37*
X229500Y-113500D02*
D03*
Y-143500D02*
D03*
Y66500D02*
D03*
Y36500D02*
D03*
Y-53500D02*
D03*
Y-23500D02*
D03*
Y-233500D02*
D03*
Y-203500D02*
D03*
D38*
X42500Y27500D02*
D03*
Y22500D02*
D03*
Y17500D02*
D03*
Y12500D02*
D03*
Y7500D02*
D03*
Y2500D02*
D03*
Y-2500D02*
D03*
Y-7500D02*
D03*
Y-12500D02*
D03*
Y-17500D02*
D03*
Y-22500D02*
D03*
Y-27500D02*
D03*
X-42500D02*
D03*
Y-22500D02*
D03*
Y-17500D02*
D03*
Y-12500D02*
D03*
Y-7500D02*
D03*
Y-2500D02*
D03*
Y2500D02*
D03*
Y7500D02*
D03*
Y12500D02*
D03*
Y17500D02*
D03*
Y22500D02*
D03*
Y27500D02*
D03*
D39*
X32000Y-186250D02*
D03*
X24000D02*
D03*
X-24000D02*
D03*
X-32000D02*
D03*
D40*
X-17500D02*
D03*
X17500D02*
D03*
X-12500D02*
D03*
X12500D02*
D03*
X-7500D02*
D03*
X7500D02*
D03*
X-2500D02*
D03*
X2500D02*
D03*
D41*
X-395500Y-87056D02*
D03*
X-382800D02*
D03*
X-370100D02*
D03*
X-357400D02*
D03*
X-344700D02*
D03*
X-332000D02*
D03*
X-319300D02*
D03*
X-306600Y47056D02*
D03*
X-319300D02*
D03*
X-332000D02*
D03*
X-344700D02*
D03*
X-357400D02*
D03*
X-382800D02*
D03*
X-395500D02*
D03*
D42*
X-287367Y-51750D02*
D03*
Y-39050D02*
D03*
D43*
X176542Y64000D02*
D03*
X202458D02*
D03*
D44*
X217500Y136977D02*
D03*
Y164023D02*
D03*
X194499Y136977D02*
D03*
Y164023D02*
D03*
D45*
X293000Y91500D02*
D03*
Y51500D02*
D03*
X-210500Y-156250D02*
D03*
Y-196250D02*
D03*
X293000Y-218500D02*
D03*
Y-178500D02*
D03*
Y-38500D02*
D03*
Y1500D02*
D03*
Y-128500D02*
D03*
Y-88500D02*
D03*
D46*
X385500Y91500D02*
D03*
Y51500D02*
D03*
X-303000Y-156250D02*
D03*
Y-196250D02*
D03*
X385500Y-218500D02*
D03*
Y-178500D02*
D03*
Y-38500D02*
D03*
Y1500D02*
D03*
Y-128500D02*
D03*
Y-88500D02*
D03*
D47*
X43200Y-233750D02*
D03*
X-43200D02*
D03*
D48*
X43200Y-191950D02*
D03*
X-43200D02*
D03*
D49*
X-167000Y-201650D02*
D03*
Y-150850D02*
D03*
D50*
X-28900Y-196950D02*
D03*
X28900D02*
D03*
D51*
X-215150Y-45400D02*
D03*
Y-32700D02*
D03*
X-227850Y-45400D02*
D03*
Y-32700D02*
D03*
X-215150Y-20000D02*
D03*
Y-7300D02*
D03*
X-227850Y-20000D02*
D03*
Y-7300D02*
D03*
X-215150Y5400D02*
D03*
X-38100Y97500D02*
D03*
Y110200D02*
D03*
X-25400Y97500D02*
D03*
Y110200D02*
D03*
X-12700Y97500D02*
D03*
Y110200D02*
D03*
X0Y97500D02*
D03*
Y110200D02*
D03*
X12700Y97500D02*
D03*
Y110200D02*
D03*
X25400Y97500D02*
D03*
Y110200D02*
D03*
X38100Y97500D02*
D03*
Y110200D02*
D03*
D52*
X-227850Y5400D02*
D03*
D53*
X378000Y202500D02*
D03*
Y147500D02*
D03*
D54*
X-382000Y-210000D02*
D03*
D55*
Y-142500D02*
D03*
D56*
X318075Y188958D02*
G03*
X318126Y188634I4962J614D01*
G01*
X317985Y190463D02*
G03*
X318075Y188958I12500J0D01*
G01*
X305147Y194260D02*
G03*
X304697Y197584I-12500J0D01*
G01*
X320739Y200046D02*
G03*
X317985Y192219I9746J-7827D01*
G01*
X304622Y197659D02*
G03*
X304101Y198568I-11099J-5749D01*
G01*
X302286Y201513D02*
G03*
X302740Y200730I11033J5876D01*
G01*
X300622Y204648D02*
G03*
X299750Y205820I-4405J-2367D01*
G01*
X326905Y208405D02*
G03*
X326286Y207089I10982J-5971D01*
G01*
X327086Y208727D02*
G03*
X326905Y208405I10800J-6293D01*
G01*
X327306Y209069D02*
G03*
X327086Y208727I4093J-2871D01*
G01*
X-378200Y-110500D02*
X-206000D01*
X-382800Y-105900D02*
X-378200Y-110500D01*
X135000Y188500D02*
Y197000D01*
Y49500D02*
Y58000D01*
Y-40500D02*
Y-32000D01*
Y-130500D02*
Y-122000D01*
Y-220500D02*
Y-212000D01*
X-93350Y-2466D02*
X-80034D01*
X-80000Y-2500D01*
X-93384Y-2431D02*
X-93350Y-2466D01*
X-93418D02*
X-93384Y-2431D01*
X-105466Y-2466D02*
X-93418D01*
X-105500Y-2500D02*
X-105466Y-2466D01*
X-297000Y208500D02*
X-270500D01*
X-283469Y208375D02*
X-270625D01*
X-283594Y208250D02*
X-283469Y208375D01*
X-270625D02*
X-270500Y208500D01*
X-256500Y98500D02*
Y105950D01*
X-274500Y109500D02*
X-274450Y109450D01*
X-268050D01*
X-268000Y109400D01*
X-260200Y119500D02*
X-257250Y122450D01*
X-256500D01*
X-268000Y119000D02*
X-267500Y119500D01*
X-260200D01*
X-283419Y119175D02*
X-268175D01*
X-283594Y119350D02*
X-283419Y119175D01*
X-268175D02*
X-268000Y119000D01*
X-385700Y64500D02*
X-379500D01*
X-394255Y-104045D02*
X-393800Y-104500D01*
X-395500Y-87056D02*
X-394255Y-88301D01*
Y-104045D02*
Y-88301D01*
X-383831Y-104131D02*
Y-88087D01*
X-382800Y-87056D01*
X-384200Y-104500D02*
X-383831Y-104131D01*
X-393900Y-110900D02*
Y-104500D01*
X-395500Y-87056D02*
Y-77500D01*
X-394000Y-111000D02*
X-393900Y-110900D01*
X-395500Y47056D02*
X-395400Y47156D01*
Y64200D01*
X-206000Y-110500D02*
X-101500D01*
X-206500Y-110000D02*
X-206000Y-110500D01*
X-101500D02*
X-48000Y-57000D01*
X-43200Y-188501D02*
X-40890Y-186192D01*
X-43200Y-191950D02*
Y-188501D01*
X-40890Y-186192D02*
X-32058D01*
X43200Y-191950D02*
Y-188560D01*
X40890Y-186250D02*
X43200Y-188560D01*
X32000Y-186250D02*
X40890D01*
X4750Y136200D02*
X10350D01*
Y136125D02*
X10500Y136275D01*
X4750Y136125D02*
Y136275D01*
X-50Y198200D02*
X50Y198300D01*
X0D02*
Y204600D01*
X-50D02*
X50Y204700D01*
X0Y186300D02*
Y198100D01*
X-50Y198200D02*
X50Y198100D01*
X-50Y186300D02*
X50Y186200D01*
X-15200Y81500D02*
X-8500D01*
X-214415Y5400D02*
X-193650Y-15365D01*
X-206000Y-68000D02*
X-193650Y-55650D01*
Y-15365D01*
X-395500Y64300D02*
X-395400Y64200D01*
X-215150Y5400D02*
X-214415D01*
X-206000Y-109500D02*
Y-68000D01*
X155000Y-169000D02*
X176500D01*
X155000Y-79000D02*
X176500D01*
X155000Y11000D02*
X176500D01*
X155000Y101000D02*
X176500D01*
X176500Y101000D01*
X324306Y209569D02*
X326750D01*
X347477Y230500D02*
X348488Y229488D01*
X341250Y239000D02*
X347750Y232500D01*
X321000Y239000D02*
X334350D01*
X341250D01*
X247750Y132750D02*
X259500D01*
X317850Y168150D02*
X317953Y168047D01*
X318000Y168000D02*
Y168231D01*
X317953Y168047D02*
X318000Y168231D01*
X299145Y205461D02*
X299250Y205284D01*
X298251Y206969D02*
X299145Y205461D01*
X296750Y209000D02*
X299250Y206969D01*
X296250Y209000D02*
Y214250D01*
X317850Y168150D02*
Y188500D01*
X318350Y188634D01*
X318126D02*
X318350D01*
X305150Y188503D02*
X305650Y188786D01*
X305147D02*
X305650D01*
X317985Y190463D02*
Y192219D01*
X305147Y188786D02*
Y194260D01*
X304622Y197659D02*
X304622Y197659D01*
X302740Y200730D02*
X304101Y198568D01*
X320739Y200046D02*
X320750Y200061D01*
X323839Y203150D01*
X300622Y204648D02*
X302286Y201513D01*
X323839Y203150D02*
X324750Y203250D01*
X299250Y205284D02*
X299536D01*
X299750Y205820D02*
Y205820D01*
X296250Y214250D02*
X321000Y239000D01*
X339750Y119000D02*
Y125050D01*
X338050Y126750D02*
X339750Y125050D01*
X338050Y126750D02*
Y144057D01*
X331000Y151107D02*
X338050Y144057D01*
X331000Y151107D02*
Y155000D01*
X324750Y203250D02*
X326281Y207076D01*
X326286Y207089D01*
X348488Y208512D02*
X348500Y208500D01*
X349000Y209000D01*
X349500D01*
X327032Y209248D02*
X327250Y209000D01*
X326750Y209569D02*
X327032Y209248D01*
X210251Y-188199D02*
X210792D01*
X210991Y-188000D01*
X202500D02*
X210052D01*
X210991D02*
X218000D01*
X218000Y-188000D01*
X210052Y-188000D02*
X210251Y-188199D01*
X176500Y-178500D02*
X185000D01*
X210251Y-98199D02*
X210792D01*
X210991Y-98000D01*
X202500D02*
X210052D01*
X210991D02*
X218000D01*
X218000Y-98000D01*
X210052Y-98000D02*
X210251Y-98199D01*
X176500Y-88500D02*
X185000D01*
X210251Y-8199D02*
X210792D01*
X210991Y-8000D01*
X202500D02*
X210052D01*
X210991D02*
X218000D01*
X218000Y-8000D01*
X210052Y-8000D02*
X210251Y-8199D01*
X176500Y1500D02*
X185000D01*
X176500Y91500D02*
X185000D01*
X210052Y82000D02*
X210251Y81801D01*
X218000Y82000D02*
X218000Y82000D01*
X210991Y82000D02*
X218000D01*
X202500D02*
X210052D01*
X210792Y81801D02*
X210991Y82000D01*
X210251Y81801D02*
X210792D01*
D57*
X311500Y161500D02*
D03*
D58*
X287710Y179750D02*
X287750D01*
X292500Y183800D02*
Y184500D01*
X290250Y182250D02*
X290950D01*
X283500Y175540D02*
X287710Y179750D01*
X282700Y167800D02*
Y173995D01*
X282700Y173995D02*
X283500Y174795D01*
X290950Y182250D02*
X292500Y183800D01*
X287750Y179750D02*
X290250Y182250D01*
X283500Y174795D02*
Y175540D01*
X289750Y140750D02*
X290950D01*
X282700Y147800D02*
Y155200D01*
X292500Y138000D02*
Y139200D01*
X290950Y140750D02*
X292500Y139200D01*
X282700Y147800D02*
X289750Y140750D01*
X270750Y148750D02*
X279000Y140500D01*
X240500Y177048D02*
X241500Y178048D01*
X242952Y179500D01*
X8000Y184700D02*
X9500Y186200D01*
X8000Y181049D02*
Y184700D01*
X4151Y177200D02*
X8000Y181049D01*
X-4151Y177200D02*
X4151D01*
X243952Y180500D02*
X247452Y184000D01*
X240500Y165750D02*
Y177048D01*
X281000Y156700D02*
X281200D01*
X282700Y155200D01*
X281000Y166300D02*
X281200D01*
X282700Y167800D01*
X279000Y125000D02*
Y140500D01*
X270750Y148750D02*
Y162250D01*
X267250Y165750D02*
X270750Y162250D01*
X263500Y165750D02*
X267250D01*
X240500D02*
X263500D01*
X285000Y119000D02*
X311250D01*
X279000Y125000D02*
X285000Y119000D01*
X247452Y184000D02*
X252000D01*
X33890Y22610D02*
Y23076D01*
X34000Y22500D02*
X42500D01*
X32882Y22778D02*
Y22791D01*
Y22778D02*
X33160Y22500D01*
X33314D01*
X33890Y23076D01*
Y22610D02*
X34000Y22500D01*
X20200Y-62218D02*
Y-56000D01*
Y-62218D02*
X20252Y-62271D01*
X200Y-62218D02*
X252Y-62271D01*
X200Y-62218D02*
Y-56000D01*
X-22500Y33160D02*
Y42500D01*
X-9000Y186200D02*
X-8000Y185200D01*
Y181049D02*
Y185200D01*
Y181049D02*
X-4151Y177200D01*
X-10000Y198200D02*
X-9800D01*
X-10000Y196700D02*
X-9850D01*
X-9650Y186350D02*
Y196500D01*
Y186350D02*
X-9500Y186200D01*
X-10000Y198200D02*
Y198600D01*
X-9850Y196700D02*
X-9650Y196500D01*
D59*
X155000Y101000D02*
Y149084D01*
X185416Y179500D02*
X242952D01*
X155000Y149084D02*
X185416Y179500D01*
X247500D02*
X249726Y181726D01*
X252000Y184000D01*
X108145Y-233000D02*
X146000D01*
X155000Y-224000D02*
Y-196500D01*
X146000Y-233000D02*
X155000Y-224000D01*
X107645Y-233500D02*
X108145Y-233000D01*
X155000Y1500D02*
Y11000D01*
Y75000D01*
Y89000D02*
Y101000D01*
X242952Y179500D02*
X247500D01*
X155000Y-91500D02*
Y-15500D01*
Y-181000D02*
Y-105500D01*
D60*
X-22000Y178000D02*
Y184700D01*
X22000Y178000D02*
X22000D01*
X22000D02*
Y184700D01*
X9500Y160343D02*
X13743D01*
X21800Y168400D01*
X-189149Y-225500D02*
X-167000Y-203351D01*
Y-201650D01*
X-366500Y-225500D02*
X-189149D01*
X-203500Y-189250D02*
X-192750D01*
X-167000Y-163500D02*
Y-150850D01*
X-192750Y-189250D02*
X-167000Y-163500D01*
X-210500Y-196250D02*
X-203500Y-189250D01*
X-382000Y-210000D02*
X-366500Y-225500D01*
X285485Y199221D02*
Y215259D01*
X327697Y209198D02*
Y229053D01*
X328645Y230000D01*
X235000Y133250D02*
X237000Y135250D01*
X257750Y128500D02*
X257750Y128500D01*
X246000Y127500D02*
Y132750D01*
X269250Y127500D02*
Y133250D01*
X257750Y128500D02*
Y132750D01*
X260250Y135250D01*
X267250D02*
X269250Y133250D01*
X263500Y135250D02*
X267250D01*
X237000D02*
X245750D01*
X292450Y188500D02*
Y192255D01*
X285485Y199221D02*
X292450Y192255D01*
X285485Y215259D02*
Y218775D01*
X269938Y230805D02*
X285485Y215259D01*
Y218775D02*
X294355Y227645D01*
Y230000D01*
X331000Y168000D02*
Y170878D01*
Y168000D02*
X335826Y172826D01*
X331000Y170878D02*
X332948Y172826D01*
X335826D01*
X340021Y177021D01*
X335826Y172826D02*
X342000Y179000D01*
X340021Y177021D02*
X347021D01*
X349500D01*
X345042Y179000D02*
X347021Y177021D01*
X342000Y179000D02*
X345042D01*
X349500Y169000D02*
Y177500D01*
X326500Y208000D02*
X326905Y208405D01*
X327697Y209198D01*
X21800Y168400D02*
X22000D01*
X217601Y36500D02*
X217698Y36403D01*
X222000Y43000D02*
X237000D01*
X-26450Y65500D02*
X-20250D01*
X56000Y14500D02*
Y20700D01*
X-56000Y39400D02*
Y45600D01*
X222000Y-227000D02*
X237000D01*
X222000Y-137000D02*
X237000D01*
X222000Y-47000D02*
X237000D01*
X229500Y-233500D02*
Y-224500D01*
X222000D02*
X229500D01*
X237000D01*
Y-233500D02*
Y-224500D01*
X222000Y-233500D02*
Y-224500D01*
X229500Y-143500D02*
Y-134500D01*
X222000D02*
X229500D01*
X237000D01*
Y-143500D02*
Y-134500D01*
X222000Y-143500D02*
Y-134500D01*
X229500Y-53500D02*
Y-44500D01*
X222000D02*
X229500D01*
X237000D01*
Y-53500D02*
Y-44500D01*
X222000Y-53500D02*
Y-44500D01*
Y36500D02*
Y45500D01*
X237000Y36500D02*
Y45500D01*
X229500D02*
X237000D01*
X222000D02*
X229500D01*
Y36500D02*
Y45500D01*
X-218000Y-196250D02*
X-210500D01*
X-303000D02*
X-291500D01*
X-303000D02*
X-291500D01*
X-218000D01*
X-303000Y-156250D02*
X-287000D01*
X-210500D01*
X-303000Y-196250D02*
X-291500D01*
X-365034Y-156000D02*
X-303250D01*
X-303000Y-156250D01*
X-378534Y-142500D02*
X-365034Y-156000D01*
X-382000Y-142500D02*
X-378534D01*
D61*
X55200Y-233500D02*
X73355D01*
D62*
X348530Y209970D02*
Y229447D01*
X347477Y230500D02*
X348530Y229447D01*
Y209970D02*
X349500Y209000D01*
D63*
X320750Y119000D02*
X330250D01*
Y134500D01*
X330550D01*
X202500Y-169000D02*
X205750D01*
Y-178500D02*
Y-169000D01*
X215250Y-169000D02*
X218000D01*
X215250Y-178500D02*
Y-169000D01*
X202500Y-79000D02*
X205750D01*
Y-88500D02*
Y-79000D01*
X215250Y-79000D02*
X218000D01*
X215250Y-88500D02*
Y-79000D01*
X202500Y11000D02*
X205750D01*
Y1500D02*
Y11000D01*
X215250Y11000D02*
X218000D01*
X215250Y1500D02*
Y11000D01*
Y91500D02*
Y101000D01*
X218000D01*
X205750Y91500D02*
Y101000D01*
X202500D02*
X205750D01*
D64*
X135000Y188500D02*
D03*
Y58000D02*
D03*
Y-32000D02*
D03*
Y-122000D02*
D03*
Y-212000D02*
D03*
X-114000Y-27500D02*
D03*
X-72000Y34000D02*
D03*
X-85500Y33500D02*
D03*
X-99000Y34000D02*
D03*
Y-22500D02*
D03*
X-114000Y-2000D02*
D03*
X-72000D02*
D03*
X-80000Y-2500D02*
D03*
X-93384Y-2431D02*
D03*
X-105500Y-2500D02*
D03*
X-113000Y38000D02*
D03*
X-105000Y52500D02*
D03*
X126669Y-77991D02*
D03*
X72000Y108000D02*
D03*
X-255000Y-2000D02*
D03*
X-52500Y61000D02*
D03*
X-297000Y208500D02*
D03*
X-270500D02*
D03*
X-256500Y98500D02*
D03*
X-274500Y109500D02*
D03*
X-379500Y64500D02*
D03*
X-394000Y-111000D02*
D03*
X10500Y136200D02*
D03*
X0Y204700D02*
D03*
X-22000Y184700D02*
D03*
X22000D02*
D03*
X-8500Y81500D02*
D03*
X-85500Y-20500D02*
D03*
X-256000Y-26300D02*
D03*
X-206000Y-68000D02*
D03*
X-395500Y-77500D02*
D03*
X-259000Y-79500D02*
D03*
X-246000Y-66500D02*
D03*
X-256500Y-65000D02*
D03*
X-265000Y-73500D02*
D03*
X16568Y52605D02*
D03*
X119000Y-14000D02*
D03*
X119500Y3000D02*
D03*
X89500Y-17500D02*
D03*
X77500Y-29000D02*
D03*
X109500Y-78500D02*
D03*
X110000Y-148500D02*
D03*
X123000Y-149000D02*
D03*
X155000Y-196500D02*
D03*
Y75000D02*
D03*
Y89000D02*
D03*
Y1500D02*
D03*
Y-15500D02*
D03*
Y-91500D02*
D03*
Y-105500D02*
D03*
Y-181000D02*
D03*
X235000Y127500D02*
D03*
X246000D02*
D03*
X269250Y127500D02*
D03*
X257750Y128500D02*
D03*
X349500Y169000D02*
D03*
X217698Y36403D02*
D03*
X-26450Y65500D02*
D03*
X56000Y14500D02*
D03*
X-56000Y45600D02*
D03*
X32882Y22791D02*
D03*
X20252Y-62271D02*
D03*
X252D02*
D03*
X-22500Y33160D02*
D03*
X210521Y-188000D02*
D03*
X185000Y-178500D02*
D03*
X210521Y-98000D02*
D03*
X185000Y-88500D02*
D03*
X210521Y-8000D02*
D03*
X185000Y1500D02*
D03*
X229500Y-224500D02*
D03*
X237000D02*
D03*
X222000D02*
D03*
X229500Y-134500D02*
D03*
X237000D02*
D03*
X222000D02*
D03*
X229500Y-44500D02*
D03*
X237000D02*
D03*
X222000D02*
D03*
X185000Y91500D02*
D03*
X210521Y82000D02*
D03*
X222000Y45500D02*
D03*
X237000D02*
D03*
X229500D02*
D03*
D65*
X292000Y155000D02*
D03*
Y168000D02*
D03*
X305000Y155000D02*
D03*
Y168000D02*
D03*
X318000Y155000D02*
D03*
Y168000D02*
D03*
X331000Y155000D02*
D03*
Y168000D02*
D03*
D66*
X426250Y236500D02*
D03*
Y-92543D02*
D03*
Y-133674D02*
D03*
Y-113109D02*
D03*
Y-154239D02*
D03*
Y-215935D02*
D03*
Y-195370D02*
D03*
Y-174804D02*
D03*
Y10283D02*
D03*
Y-10283D02*
D03*
Y-51413D02*
D03*
Y-30848D02*
D03*
Y-71978D02*
D03*
Y113109D02*
D03*
Y92543D02*
D03*
Y51413D02*
D03*
Y71978D02*
D03*
Y30848D02*
D03*
Y133674D02*
D03*
Y174804D02*
D03*
Y154239D02*
D03*
Y195369D02*
D03*
Y215935D02*
D03*
Y-236500D02*
D03*
X-426250Y-236500D02*
D03*
Y215935D02*
D03*
Y195369D02*
D03*
Y154239D02*
D03*
Y174804D02*
D03*
Y133674D02*
D03*
X-428250Y30848D02*
D03*
Y71978D02*
D03*
Y51413D02*
D03*
X-426250Y92543D02*
D03*
Y113109D02*
D03*
X-428250Y-71978D02*
D03*
Y-30848D02*
D03*
Y-51413D02*
D03*
Y-10283D02*
D03*
Y10282D02*
D03*
X-426250Y-174804D02*
D03*
Y-195370D02*
D03*
Y-154239D02*
D03*
X-428250Y-113109D02*
D03*
Y-92543D02*
D03*
X-411500Y-251250D02*
D03*
X-390925D02*
D03*
X-370350D02*
D03*
X-329200D02*
D03*
X-349775D02*
D03*
X-308625D02*
D03*
X-205750D02*
D03*
X-246900D02*
D03*
X-226325D02*
D03*
X-267475D02*
D03*
X-288050D02*
D03*
X-102875D02*
D03*
X-144025D02*
D03*
X-123450D02*
D03*
X-164600D02*
D03*
X-185175D02*
D03*
X102875D02*
D03*
X123450D02*
D03*
X164600D02*
D03*
X144025D02*
D03*
X185175D02*
D03*
X-0D02*
D03*
X20575D02*
D03*
X61725D02*
D03*
X41150D02*
D03*
X82300D02*
D03*
X-20575D02*
D03*
X-61725D02*
D03*
X-41150D02*
D03*
X-82300D02*
D03*
X390925D02*
D03*
X288050D02*
D03*
X308625D02*
D03*
X349775D02*
D03*
X329200D02*
D03*
X370350D02*
D03*
X267475D02*
D03*
X226325D02*
D03*
X246900D02*
D03*
X205750D02*
D03*
X411500D02*
D03*
Y251250D02*
D03*
X205750D02*
D03*
X246900D02*
D03*
X226325D02*
D03*
X267475D02*
D03*
X370350D02*
D03*
X329200D02*
D03*
X349775D02*
D03*
X308625D02*
D03*
X288050D02*
D03*
X390925D02*
D03*
X-82300D02*
D03*
X-41150D02*
D03*
X-61725D02*
D03*
X-20575D02*
D03*
X82300D02*
D03*
X41150D02*
D03*
X61725D02*
D03*
X20575D02*
D03*
X-0D02*
D03*
X185175D02*
D03*
X144025D02*
D03*
X164600D02*
D03*
X123450D02*
D03*
X102875D02*
D03*
X-185175D02*
D03*
X-164600D02*
D03*
X-123450D02*
D03*
X-144025D02*
D03*
X-102875D02*
D03*
X-288050D02*
D03*
X-267475D02*
D03*
X-226325D02*
D03*
X-246900D02*
D03*
X-205750D02*
D03*
X-308625D02*
D03*
X-349775D02*
D03*
X-329200D02*
D03*
X-370350D02*
D03*
X-426250Y236500D02*
D03*
X-390925Y251250D02*
D03*
X-411500D02*
D03*
M02*
